<!-- Pulse empty-state: closed book + cup (from empty-pulse-7). Fills use --pulse-empty-* from usePulseEmptyIllustrationVars. -->
<svg xmlns="http://www.w3.org/2000/svg" viewBox="0 0 2048 1365" preserveAspectRatio="xMidYMax meet"><path fill="var(--pulse-empty-9)" d="M 921.555 845.232 C 928.114 844.746 948.156 847.416 955.302 848.222 C 973.768 850.319 992.247 852.293 1010.74 854.144 L 1151.1 868.932 C 1172.31 871.196 1193.65 873.187 1214.84 875.567 C 1218.68 875.998 1225.16 877.583 1228.34 879.873 C 1231.05 881.822 1230.97 882.565 1231.57 885.256 C 1231.02 886.007 1230.96 886.171 1230.12 886.832 C 1222.31 892.942 964.018 976.495 935.608 984.527 C 928.68 986.486 921.72 988.087 914.485 988.203 C 901.639 988.411 888.328 985.579 875.633 983.698 L 830.329 977.402 L 651.77 951.827 C 646.474 950.842 639.356 949.07 634.609 952.491 C 630.538 955.426 628.898 962.177 628.192 966.898 C 626.707 976.825 628.087 1002.52 635.646 1009.35 C 648.449 1020.92 801.686 1036.14 808.138 1044.91 C 809.388 1051.19 808.669 1056.89 806.718 1062.95 C 805.346 1064.38 804.571 1065.6 802.519 1066.04 C 796.851 1067.24 657.898 1043.21 641.619 1039.33 C 635.492 1037.87 629.503 1035.71 624.13 1032.38 C 611.433 1024.51 604.258 1011.26 601.095 996.982 C 596.771 977.464 596.632 952.675 607.706 935.448 C 613.5 926.436 619.841 922.263 629.639 918.346 C 640.339 914.069 652.625 912.137 663.824 909.393 L 725.266 894.039 C 788.632 878.173 858.278 859.221 921.555 845.232 z"></path><path fill="var(--pulse-empty-9)" d="M 1330.11 807.564 C 1349.8 805.285 1386.76 807.192 1407.59 808.94 C 1419.45 809.936 1459.2 812.486 1466.59 821.407 C 1470.44 826.068 1468.87 833.778 1467.94 839.429 C 1488.49 841.153 1520.4 843.528 1530.28 863.039 C 1551.01 903.985 1516.08 942.576 1480.25 958.702 C 1472.66 962.118 1463.26 965.915 1456.92 969.8 C 1488.64 976.62 1557.2 975.795 1591.58 975.88 L 1729.87 976.97 C 1749.79 977.033 1793.47 976.002 1811.37 979.621 C 1804.99 980.549 1798.68 980.725 1792.25 981.022 C 1735.8 981.182 1678.29 982.841 1621.71 983.341 C 1597.39 983.556 1566.66 983.501 1542.9 985.092 C 1542.06 986.216 1541.19 987.309 1540.27 988.369 C 1523.35 1007.79 1421.01 1022.22 1393.95 1024.47 C 1367.37 1026.69 1298.8 1024.62 1292.55 989.684 C 1283.9 941.293 1281.36 888.527 1275.17 839.402 C 1270.69 803.813 1304.71 808.622 1330.11 807.564 z M 1489.65 931.146 C 1502.18 920.824 1511.24 910.486 1513.06 893.818 C 1515.91 867.736 1490.88 865.25 1471.88 864.644 L 1468.37 864.542 C 1464.95 886.416 1461.84 924.019 1460.98 946.309 C 1472.99 941.445 1479.04 938.578 1489.65 931.146 z M 1399.75 842.07 C 1418.69 840.929 1437.6 839.462 1456.48 837.671 C 1435.78 831.842 1359.4 826.62 1339.55 829.435 C 1322.19 830.412 1307.09 830.887 1290.24 835.506 C 1302.2 842.862 1382.44 842.717 1399.75 842.07 z"></path><path fill="var(--pulse-empty-9)" d="M 1219.21 901.146 L 1219.94 901.354 C 1225.22 908.352 1212.91 935.639 1214.67 947.939 C 1216.45 960.375 1217.47 963.286 1223.28 974.464 C 1199.35 985.603 967.639 1068.26 963.473 1073.63 L 964.563 1075.05 C 968.542 1076.49 973.695 1075.67 977.532 1074.22 C 999.195 1066.04 1021.03 1057.66 1042.74 1049.67 L 1187.16 996.722 C 1200.35 991.822 1284.77 951.607 1281.2 986.304 C 1278.4 991.154 1206.45 1016.51 1196.25 1020.37 C 1180.23 1025.78 1161.57 1033.44 1145.47 1039.43 L 1039.94 1078.55 C 1021.04 1085.56 1001.57 1095.12 981.967 1099.65 C 977.384 1100.71 973.314 1100.82 968.648 1100.36 C 954.281 1098.93 863.673 1083.5 857.213 1079.08 C 854.964 1077.55 853.574 1075.36 853.084 1072.68 C 852.43 1069.12 853.074 1061.21 855.517 1058.35 C 862.843 1049.76 901.985 1065.12 914.47 1063.33 C 916.513 1063.03 918.695 1062.48 920.12 1060.85 C 925.06 1055.18 919.924 1019.23 923.478 1007.63 C 924.627 1003.88 926.905 1000.85 929.208 997.731 C 935.435 994.419 953.081 989.128 960.437 986.749 L 1014.56 969.015 L 1219.21 901.146 z"></path><path fill="var(--pulse-empty-9)" d="M 832.677 1009.24 C 840.639 1008.93 853.93 1007.42 860.114 1012.31 C 860.292 1021.53 853.548 1035.05 851.626 1044.08 C 848.398 1059.25 848.545 1071.53 843.077 1086.26 C 840.163 1088.71 837.031 1090.89 833.72 1092.78 C 830.884 1094.4 828.992 1095.35 825.864 1094.53 C 824.3 1092.46 824.728 1093.62 824.749 1090.86 C 824.574 1088.41 824.648 1087.49 823.678 1085.18 C 814.738 1080.6 804.748 1095.49 795.981 1086.92 C 793.478 1078.74 808.628 1075.44 813.593 1062.56 C 822.626 1039.12 803.765 1017.89 832.677 1009.24 z"></path><path fill="var(--pulse-empty-9)" d="M 559.846 975.52 C 564.824 975.272 572.76 974.416 577.116 976.504 C 578.276 978.539 577.941 980.23 577.876 982.618 C 574.264 985.608 491.627 983.021 482.24 982.925 L 265.03 981.01 C 255.127 981.047 248.631 980.91 238.925 979.037 C 269.813 975.906 314.977 976.604 347.146 976.349 L 559.846 975.52 z"></path><path fill="var(--pulse-empty-9)" d="M 1370.5 588.578 L 1371.65 589.812 C 1370.86 596.088 1368.52 609.48 1369.99 615.496 C 1375.88 639.065 1391.8 656.255 1387.05 682.189 C 1383.18 703.35 1365.95 717.578 1369 739.535 C 1370.4 749.619 1375.26 751.926 1379.58 760.027 L 1378.21 761.053 C 1359.54 752.085 1358.43 729.748 1365.56 712.631 C 1371.06 699.458 1379.81 685.513 1378.96 670.858 C 1377.41 644.227 1348.13 613.814 1370.5 588.578 z"></path><path fill="var(--pulse-empty-9)" d="M 1408.95 653.648 C 1411.43 655.229 1417.29 662.436 1418.56 665.147 C 1436.48 703.43 1389.12 717.917 1412.61 757.308 C 1407.1 757.929 1402.94 751.109 1401.02 746.733 C 1390.93 723.778 1413.98 705.858 1415.93 684.175 C 1416.83 674.105 1411.48 663.488 1408.95 653.648 z"></path><path fill="var(--pulse-empty-9)" d="M 1325.32 633.464 C 1328.15 635.375 1336.4 648.246 1337.69 651.432 C 1346.73 673.672 1340.35 685.033 1331.78 705.316 C 1327.99 714.284 1328.43 721.651 1332.38 730.268 C 1331.35 730.399 1330.7 730.16 1329.61 729.971 C 1312.68 711.156 1332.04 695.844 1334.86 675.712 C 1337.03 660.263 1326 646.287 1325.32 633.464 z"></path></svg>
