<!-- Pulse empty-state from empty-pulse-4 (line/wave silhouette). Fills use --pulse-empty-* from usePulseEmptyIllustrationVars. -->
<svg xmlns="http://www.w3.org/2000/svg" viewBox="0 0 1344 768" preserveAspectRatio="xMidYMax meet"><path fill="var(--pulse-empty-9)" fill-opacity="0.97647059" d="M499.406 290.754C500.346 275.409 497.021 165.823 500.422 161.208C501.219 160.127 502.749 159.446 504.044 159.27C505.397 159.086 506.607 159.288 507.816 159.907C514.388 163.277 520.433 169.818 525.939 174.719C540.021 187.251 553.927 201.229 569.031 212.478C571.389 212.155 574.429 211.903 576.816 211.901C603.49 211.882 630.17 211.795 656.841 211.278C684.749 210.706 712.662 210.357 740.575 210.23C746.874 210.155 783.473 208.368 786.018 210.76C784.672 211.974 783.002 211.96 780.973 212.391C779.681 215.299 780.21 247.874 780.161 254.138L778.51 254.98C778.491 257.516 779.047 258.614 777.922 260.351L777.522 256.167L776.854 255.821C772.503 257.654 766.808 261.119 762.815 262.386C733.021 271.839 703.676 279.09 675.492 293.119L674.975 291.871C690.73 283.613 703.635 278.727 720.442 273.423C739.498 267.41 760.72 263.246 777.735 252.754C778.121 243.124 778.252 233.485 778.126 223.849L572.724 223.742C572.846 256.5 572.516 289.872 572.943 322.557C592.007 326.539 609.135 328.438 628.103 322.224C645.265 316.603 654.877 303.861 670.02 294.627L671.183 295.623C663.804 299.78 653.672 309.902 645.081 315.508C621.114 331.147 599.999 330.046 572.917 324.508L572.916 339.98C597.396 344.355 631.555 339.844 652.386 325.942C667.487 315.864 678.041 306.089 695.877 299.144C722.205 288.893 742.811 286.763 768.489 273.366C769.903 273.818 772.122 274.467 773.356 275.211C747.227 298.419 709.544 305.858 678.866 320.94C662.814 328.832 651.742 343.056 634.364 348.831C614.198 355.531 595.717 356.452 574.735 355.191C574.116 355.154 573.497 355.114 572.879 355.07L572.96 365.54C600.925 365.442 619.699 364.155 645.35 352.11L645.876 353.344C623.639 365.491 597.814 368.134 572.882 367.137L573.001 379.515C597.053 377.607 616.64 373.553 637.967 362.282C664.272 348.381 686.72 342.239 715.962 338.405C737.447 335.588 760.045 323.885 777.965 311.434C778.289 304.636 778.371 297.43 777.722 290.662C768.118 297.299 753.594 307.369 743.27 311.949C713.724 325.056 690.577 327.998 661.507 344.048L660.425 343.125C684.361 327.585 707.392 324.632 733.338 314.289C749.728 307.756 763.557 298.183 777.826 288.09C777.932 282.274 777.912 277.662 777.577 271.864L778.906 271.512C780.513 267.903 778.323 259.134 780.165 254.824C781.239 344.131 779.207 434.339 780.215 523.597C759.086 523.292 737.953 523.236 716.823 523.431L714.125 529.984C738.809 530.716 764.016 529.635 788.326 530.341L789.197 532.431L713.189 532.325C681.953 604.597 738.551 583.084 742.302 588.875L742.331 588.015L743.454 588.589C736.563 590.857 670.748 589.241 659.809 588.798C671.469 586.395 693.768 587.593 706.376 587.362C708.119 587.425 708.912 587.73 710.332 587.019C708.736 585.444 705.364 584.33 703.157 583.436C694.672 579.95 685.3 575.031 676.825 571.158C663.119 564.895 649.223 558.766 635.812 551.92C635.117 544.36 635.789 539.493 637.792 532.315C627.945 532.077 576.026 533.301 570.503 531.284C569.268 529.498 569.564 527.23 569.534 524.923C561.046 532.038 511.094 578.294 504.491 578.329C503.098 578.336 501.726 577.727 500.747 576.746C499.69 575.686 499.192 574.375 498.964 572.922C497.799 565.501 498.522 557.224 498.578 549.722C498.568 535.564 498.798 521.408 499.267 507.258C442.864 544.367 380.39 575.049 321.882 608.961C304.556 618.883 287.597 629.433 271.039 640.589C261.573 646.992 251.687 654.659 242.285 660.656C247.245 655.352 252.769 650.274 258.796 646.19C312.273 609.95 370.062 580.11 426.544 548.875C451.28 535.069 475.544 520.435 499.295 504.997L499.348 462.878C481.323 470.579 460.237 476.338 441.517 482.857C419.394 490.74 397.735 499.867 376.643 510.195C344.074 525.716 312.632 543.5 282.546 563.415C274.777 568.583 267.159 573.977 259.703 579.587C256.045 582.367 247.858 589.098 244.323 591.232L244.28 590.167C247.398 585.578 268.614 571.155 273.933 567.46C322.255 534.032 374.398 506.502 429.253 485.454C452.144 476.676 476.147 469.559 499.492 460.824C499.509 451.69 499.592 442.557 499.741 433.425C486.996 437.512 473.738 439.066 460.52 441.128C448.337 442.981 436.242 445.375 424.271 448.301C356.612 465.398 301.676 493.888 242.253 529.41C242.538 529.089 242.827 528.771 243.118 528.456C249.596 521.473 270.341 510.8 279.071 505.937C338.898 472.609 402.216 447.319 470.299 437.645C478.285 436.51 492.969 432.653 499.81 432.387C499.513 425.328 499.943 414.905 500.049 407.608C490.276 407.513 479.91 408.317 470.231 408.537C411.241 409.873 356.448 422.701 301.661 444.281C289.888 448.919 278.903 453.399 267.297 458.774C261.004 461.688 248.636 467.356 242.096 469.331L241.391 469.54C252.724 461.971 275.704 453.086 288.678 447.707C336.717 427.788 387.771 413.011 439.742 408.666C459.459 407.017 480.116 406.673 500.06 405.526L500.146 384.71C476.346 384.588 455.517 381.844 432.078 380.936C396.942 379.887 361.809 383.157 327.469 390.672C309.986 394.399 292.711 399.04 275.714 404.578C266.37 407.613 250.533 413.935 241.657 415.355C249.326 411.207 264.293 406.307 272.936 403.488C323.43 386.637 376.406 378.436 429.63 379.228C450.963 379.735 481.184 384.334 500.391 382.689C500.672 352.674 500.548 322.657 500.017 292.646C489.713 286.773 471.627 270.492 462.586 263.012C406.966 216.994 344.44 179.206 269.067 189.459C265.917 189.888 245.251 191.654 243.945 191.179L244.229 190.538C251.008 188.618 270.107 187.804 277.596 187.093C346.843 180.519 401.857 212.403 453.985 253.806C469.08 265.795 484.539 277.753 499.406 290.754ZM569.374 522.627C569.965 504.159 569.558 484.283 569.51 465.688L569.337 366.589L569.409 276.514C569.439 256.92 569.848 234.886 568.865 215.453C559.803 207.614 510.223 161.764 503.308 161.074C499.861 166.206 501.107 190.697 501.182 197.902L501.614 250.294C502.391 326.746 502.312 403.203 501.377 479.653L500.493 537.251C500.406 543.39 499.268 572.349 503.115 575.66C509.089 575.964 534.162 552.622 539.434 547.888C547.924 540.355 560.414 528.698 569.374 522.627ZM572.865 456.017L572.916 521.144L641.925 521.145L646.022 508.356C652.007 485.376 654.113 471.582 668.869 452.364C693.337 467.911 709.71 475.093 738.3 470.187C732.579 487.614 725.319 504.232 718.025 521.048L777.763 521.196L777.802 451.361C777.774 442.878 778.129 427.556 777.513 419.439C719.501 447.699 692.311 417.434 634.765 427.659C620.425 430.208 586.604 447.952 572.865 456.017ZM637.099 550.454C658.102 560.251 683.597 572.9 704.682 581.311L705.518 580.991L705.343 580.066C696.966 558.012 708.328 538.765 716.824 518.711C723.31 503.404 730.021 488.803 735.555 473.096C706.491 475.314 694.293 469.761 669.009 455.207C666.198 459.281 660.992 466.267 659.301 470.584C654.381 483.146 651.075 496.841 647.453 509.871C643.83 522.906 636.9 536.912 637.099 550.454ZM776.975 314.349C756.271 327.792 739.062 336.753 714.293 340.619C701.129 342.674 686.198 344.797 673.657 348.906C664.375 351.947 652.897 357.156 643.925 361.494C618.297 373.886 601.373 379.822 572.885 381.039C572.869 383.536 572.404 390.533 573.734 392.189C597.683 385.377 625.297 371.943 648.322 367.125C696.686 357.005 733.283 368.236 777.737 337.13C777.773 333.609 778.466 316.068 776.975 314.349ZM638.996 528.915L641.067 523.374L573.215 523.502C572.254 525.473 572.349 525.981 572.388 528.201C573.839 529.734 575.945 529.682 578.758 529.725C598.442 530.022 618.212 529.424 637.899 529.929C638.265 529.591 638.63 529.253 638.996 528.915ZM711.961 384.2C708.483 383.962 681.548 383.334 680.043 384.483C644.657 384.722 604.834 400.236 572.898 414.14C572.622 421.6 572.644 427.107 573.103 434.524C596.431 428.578 621.301 410.327 647.666 405.994C677.404 401.106 701.175 409.206 730.648 406.21C748.099 404.436 761.532 396.477 777.774 392.034C778.215 383.489 778.317 373.26 777.809 364.759C753.131 376.412 738.919 381.488 711.961 384.2ZM574.598 353.513C591.891 355.395 616.248 352.686 632.967 347.514C649.718 342.333 663.711 326.291 678.78 318.88C710.533 303.263 740.314 299.134 769.026 276.578L769.172 275.926L768.869 275.762C740.895 288.379 715.411 292.534 688.015 304.705C670.756 312.373 655.462 327.949 639.188 337.517C632.251 341.576 624.808 344.701 617.053 346.812C602.866 350.788 590.363 350.848 575.838 350.773C574.572 350.767 573.487 351.051 572.791 352.08C573.474 352.804 573.674 353.162 574.598 353.513ZM572.925 394.246C572.879 399.889 572.674 406.432 573.116 411.976C594.249 403.134 627.971 389.123 650.488 385.969C699.157 379.154 731.645 388.921 777.655 362.412C777.735 357.57 778.162 344.348 777.524 340.104C726.946 371.343 699.699 357.691 645.768 369.606C624.242 374.361 596.509 387.817 572.925 394.246ZM778.321 212.249L758.458 212.339L616.929 213.825C611.204 213.916 575.979 213.735 574.036 214.757C572.876 216.487 572.357 219.044 573.387 220.962C578.263 222.457 588.388 221.876 593.972 221.786L778.285 221.749L778.321 212.249ZM574.947 348.378C592.71 351.108 622.227 346.637 636.865 336.324L636.325 335.964L635.664 336.18C624.356 339.267 617.53 341.433 605.938 343.135C596.835 344.471 578.21 340.678 573.583 343.482C572.586 345.718 572.807 344.765 573.237 347.61L574.947 348.378ZM775.864 394.472C753.099 402.986 730.918 410.944 706.161 408.719C685.469 406.86 667.547 404.825 646.66 408.012C621.431 411.862 596.515 431.395 572.958 436.242C572.606 441.041 571.506 447.954 573.577 452.167L574.818 452.791C575.304 452.604 576.724 452.097 577.097 451.886C592.469 443.619 616.456 429.844 632.652 426.373C689.246 414.242 722.431 447.662 777.673 416.845C777.739 412.81 778.487 396.88 776.813 394.432L775.864 394.472Z"/><path fill="var(--pulse-empty-9)" fill-opacity="0.97647059" d="M511.617 180.854C515.646 183.618 523.956 191.166 527.902 194.553C539.947 204.853 551.863 215.302 563.648 225.898L563.573 513.523C555.075 521.391 545.434 529.388 536.592 536.975C527.613 545.017 518.333 552.484 509.337 560.72C509.125 527.557 509.945 492.825 510.316 459.534L511.736 302.407C511.926 276.931 511.817 251.454 511.41 225.981C511.265 212.642 510.527 193.675 511.617 180.854ZM513.739 300.399C531.405 310.535 542.838 314.395 561.737 321.635C547.631 320.485 526.506 309.841 513.864 302.703L513.836 324.387C513.929 327.295 513.487 327.174 514.844 329.304C526.501 335.317 548.075 337.116 561.574 340.466L561.705 227.199C549.106 216.067 525.875 194.314 513.136 184.885L513.739 300.399ZM512.498 493.244C525.471 480.997 546.181 461.121 563.181 457.308L562.594 457.731C561.029 458.845 559.409 459.894 557.702 460.779C540.633 469.62 525.951 482.579 512.237 495.87C511.552 515.852 512.013 536.388 511.236 556.144C526.836 542.257 545.35 525.187 561.732 512.557C561.773 509.505 561.701 505.494 561.886 502.53C562.737 499.549 563.142 483.997 561.888 481.976C561.87 467.58 561.725 453.185 561.454 438.791C542.946 443.381 529.509 449.238 512.538 457.812L512.498 493.244ZM561.635 342.267C548.324 339.752 526.313 336.222 513.894 331.373C513.855 337.588 513.728 343.998 513.797 350.194C526.068 351.284 550.276 353.852 561.542 352.576L561.635 342.267ZM535.808 422.828L513.125 431.03L512.772 455.591C528.996 447.711 543.808 440.64 561.664 437.128C561.799 430.024 562.656 400.027 560.68 395.431C558.736 394.814 557.67 395.097 555.689 395.362C539.062 397.907 529.194 401.041 513.24 405.143L513.269 428.869C528.02 423.519 547.815 415.71 562.781 413.594C552.888 418.275 545.033 419.306 535.808 422.828ZM513.396 367.008L513.338 382.263C520.018 381.446 526.715 380.775 533.425 380.251C542.813 379.461 552.218 378.889 561.633 378.534L561.684 365.555C554.544 365.571 546.479 365.411 539.428 365.9C530.752 366.316 522.075 366.686 513.396 367.008ZM513.568 365.182C529.121 364.522 545.41 363.59 560.918 363.602C562.005 361.223 561.702 357.35 561.686 354.597C551.059 354.545 523.859 353.909 513.743 351.851C513.668 355.88 513.421 361.265 513.568 365.182ZM513.273 403.606L524.875 400.084C536.129 397.33 550.125 393.623 561.573 392.883L561.637 380.543C557.522 380.622 550.57 380.585 546.756 381.094C536.364 381.757 523.424 382.52 513.249 384.108L513.273 403.606Z"/><path fill="var(--pulse-empty-7)" fill-opacity="0.76862746" d="M561.888 481.976C563.142 483.997 562.737 499.549 561.886 502.53C561.669 495.68 561.669 488.826 561.888 481.976Z"/><path fill="var(--pulse-empty-7)" fill-opacity="0.27058825" d="M580.176 352.164C582.787 351.276 589.148 351.492 591.607 352.769C588.731 353.038 582.053 354.092 580.176 352.164Z"/><path fill="var(--pulse-empty-5)" fill-opacity="0.67058825" d="M680.043 384.483C681.548 383.334 708.483 383.962 711.961 384.2C708.561 384.85 683.6 385.015 680.043 384.483Z"/><path fill="var(--pulse-empty-9)" fill-opacity="0.93725491" d="M1103.59 61.55C1100.15 68.8784 1093.71 74.6936 1088.14 80.5076C1062.75 106.75 1030.46 132.921 995.234 144.217C952.041 158.066 910.075 162.804 869.677 185.756C855.487 193.918 842.136 203.46 829.818 214.244C824.471 218.869 794.826 247.518 791.8 248.34L791.487 247.546C793.477 244.415 812.66 227.566 816.882 223.449C843.197 197.409 875.118 177.735 910.202 165.93C922.587 161.657 938.651 157.488 951.441 154.549C991.744 145.288 1025.46 134.068 1057.47 106.394C1067.58 97.6579 1080.02 87.206 1088.74 76.912C1069.82 86.1888 1057.68 91.5248 1036.93 96.8763C988.736 109.301 941.821 107.819 895.983 129.461C865.193 143.998 846.035 159.695 822.449 183.834C814.251 192.225 798.477 212.217 789.634 216.479C788.771 237.144 789.861 258.289 789.641 278.991C789.56 286.53 789.421 294.446 790.174 301.935C843.521 253.296 884.101 223.716 960.386 222.652C990.48 222.232 1006.38 223.699 1036.33 213.894C1050.75 209.192 1064.56 202.798 1077.47 194.847C1080.26 193.144 1101.38 178.113 1102.24 178.097C1101.94 179.761 1101.25 180.91 1099.89 181.956C1068.06 206.487 1030.01 222.076 989.669 224.127C976.916 224.87 963.862 224.212 951.118 224.55C899.281 225.923 853.628 248.622 815.085 282.212C809.351 287.208 796.02 300.437 790.081 303.326C789.593 312.018 789.792 322.591 789.905 331.342C804.155 323.546 815.42 316.401 828.952 307.398L830.088 307.995C819.71 315.172 800.923 328.696 789.644 333.148C789.489 344.358 789.626 356.032 789.337 367.142C788.133 368.84 787.859 373.836 789.34 375.257C789.422 379.988 789.071 412.982 789.857 415.47L790.368 415.846L792.189 417.005L790.072 417.687C788.39 422.379 790.063 435.622 789.07 442.037L789.166 443.911C790.981 466.697 788.385 492.459 789.429 515.526C789.577 518.809 789.729 529.459 789.197 532.431L788.326 530.341C787.546 523.092 788.152 498.804 788.15 490.305L788.189 404.475L788.171 280.124C788.164 260.341 787.377 235.003 788.388 215.578C800.038 209.113 808.481 196.094 817.508 186.48C839.211 163.365 863.679 142.768 892.492 129.097C910.279 120.657 929.423 114.806 948.689 110.866C1000.36 100.299 1063.52 100.472 1103.59 61.55Z"/><path fill="var(--pulse-empty-9)" fill-opacity="0.96862745" d="M1102 120.046C1103.08 124.067 1080.1 141.187 1075.67 144.371C1050.45 162.104 1021.7 174.178 991.379 179.766C980.05 181.931 963.599 183.591 951.769 184.944C916.17 189.015 885.052 198.411 854.775 218.253C830.572 234.114 812.138 256.885 791.528 277.04L791.506 276.086C793.446 271.384 811.802 253.581 816.274 248.575C843.655 217.926 892.28 190.833 933.42 185.469C967.562 181.018 996.782 180.011 1030.55 166.578C1060.2 154.782 1078.18 140.96 1102 120.046Z"/><path fill="var(--pulse-empty-9)" fill-opacity="0.97647059" d="M790.368 415.846C808.14 409.76 825.099 404.89 843.936 403.143C923.063 395.806 995.859 445.108 1075.55 428.681C1084.6 426.815 1096.68 423.612 1105.56 422.754C1061.52 439.929 1009.57 434.492 964.805 422.745C933.339 414.487 902.745 404.887 869.914 404.053C844.97 403.419 822.112 408.188 798.391 415.276C796.474 415.849 794.13 416.597 792.189 417.005L790.368 415.846Z"/><path fill="var(--pulse-empty-9)" fill-opacity="0.97647059" d="M1101.01 353.855L1101.47 354.146C1100.22 356.675 1086.6 360.985 1083.53 362.041C1057.01 371.328 1028.89 375.124 1000.86 373.199C960.416 370.827 926.949 361.669 885.183 366.061C848.115 369.959 824.869 382.84 790.933 391.766L790.412 391.004L790.748 390.258C825.575 376.139 868.747 363.903 906.295 363.155C952.621 362.233 997.919 377.044 1044.44 369.815C1065.32 366.571 1081.43 361.057 1101.01 353.855Z"/><path fill="var(--pulse-empty-9)" fill-opacity="0.97254902" d="M789.07 442.037C852.39 428.819 890.666 453.078 946 474.286C966.627 482.199 987.926 488.231 1009.64 492.309C1030.23 496.131 1051.94 496.286 1072.79 494.823C1082.83 494.119 1094.88 492.234 1104.64 492.105C1091.87 496.213 1076.57 496.032 1063.15 496.936C1019.06 499.908 975.539 488.394 935.029 471.88C905.147 459.7 874.016 445.049 841.805 440.869C828.471 439.161 814.961 439.384 801.691 441.53C797.663 442.151 792.709 443.428 789.166 443.911L789.07 442.037Z"/><path fill="var(--pulse-empty-9)" fill-opacity="0.96078432" d="M1101.8 290.1L1102.27 290.609L1101.87 291.729C1094.53 297.98 1075.35 306.209 1066.43 309.592C1034.14 321.831 1000.37 325.835 966.084 322.206C944.457 319.917 926.173 318.06 904.325 321.437C864.565 327.582 828.703 346.274 792.391 363.009L791.847 362.903L791.716 362.232C795.894 358.601 822.992 346.964 829.409 344.018C855.757 331.923 882.868 321.78 911.941 318.966C933.919 316.839 954.018 319.761 975.806 321.211C1023.77 324.403 1060.92 313.849 1101.8 290.1Z"/><path fill="var(--pulse-empty-9)" fill-opacity="0.98039216" d="M304.243 310.761C358.046 308.269 411.417 322.674 462.189 338.738C474.376 342.594 487.727 345.877 499.637 350.116C483.974 348.308 460.406 340.358 445.041 335.284C393.934 321.426 349.483 308.824 295.619 312.724C286.099 313.445 276.622 314.647 267.224 316.328C260.223 317.556 251.501 319.48 244.571 319.957L244.287 319.151C256.849 314.497 290.44 311.935 304.243 310.761Z"/><path fill="var(--pulse-empty-9)" fill-opacity="0.96470588" d="M840.453 300.015C881.668 274.382 915.879 267.18 964.536 270.345C985.434 271.705 1000.9 272.919 1021.83 268.631C1043.22 264.158 1063.78 256.339 1082.74 245.463C1088.86 241.969 1099.24 234.947 1104.8 232.258C1098.33 239.1 1091 243.32 1082.79 247.896C1055.5 263.464 1024.8 272.071 993.395 272.957C977.265 273.41 961.066 271.482 945 271.167C906.736 270.416 873.961 281.463 841.497 300.823L840.453 300.015Z"/><path fill="var(--pulse-empty-9)" fill-opacity="0.97647059" d="M282.343 269.524C349.82 263.827 413.843 299.391 475.396 321.332C483.163 324.101 491.505 326.489 498.944 329.917C485.792 327.649 476.238 323.712 463.773 319.101C401.504 294.362 334.057 261.13 265.254 273.181C257.843 274.479 248.072 276.017 240.671 275.636C252.337 272.124 269.944 270.724 282.343 269.524Z"/><path fill="var(--pulse-empty-9)" fill-opacity="0.97647059" d="M344.997 346.323C384.059 342.923 432.047 351.29 469.712 360.579C478.733 362.804 490.94 365.003 499.347 368.007C484.578 367.181 462.728 360.973 447.91 357.529C430.455 353.504 412.746 350.674 394.906 349.059C352.462 344.692 308.949 349.777 267.712 360.193C259.275 362.324 250.812 364.322 242.287 366.07C264.883 355.934 319.451 347.946 344.997 346.323Z"/><path fill="var(--pulse-empty-9)" d="M622.514 570.744C637.094 570.526 663.932 569.543 677.644 571.945C670.168 572.864 665.194 572.731 657.727 572.65C646.326 572.503 613.488 573.745 604.078 571.987C606.127 570.48 619.121 570.755 622.514 570.744Z"/><path fill="var(--pulse-empty-9)" d="M742.628 557.862C737.253 558.522 712.685 558.488 707.961 556.822C711 555.286 750.43 555.947 756.424 556.105L755.851 557.07C752.109 557.419 745.721 557.341 742.628 557.862Z"/><path fill="var(--pulse-empty-9)" d="M777.922 260.351C779.047 258.614 778.491 257.516 778.51 254.98L780.161 254.138L780.165 254.824C778.323 259.134 780.513 267.903 778.906 271.512L777.577 271.864L773.356 275.211C772.122 274.467 769.903 273.818 768.489 273.366C775.151 269.152 777.999 268.819 777.922 260.351Z"/><path fill="var(--pulse-empty-7)" fill-opacity="0.86666667" d="M660.425 343.125L661.507 344.048C656.41 347.333 651.196 350.433 645.876 353.344L645.35 352.11C650.436 349.219 655.462 346.223 660.425 343.125Z"/><path fill="var(--pulse-empty-9)" fill-opacity="0.89019608" d="M756.424 556.105C758.407 556.143 760.153 555.919 761.732 556.968C759.522 558.543 745.729 557.942 742.628 557.862C745.721 557.341 752.109 557.419 755.851 557.07L756.424 556.105Z"/><path fill="var(--pulse-empty-7)" fill-opacity="0.81176472" d="M828.952 307.398C832.881 304.678 836.364 302.489 840.453 300.015L841.497 300.823C838.185 302.911 833.376 306.166 830.088 307.995L828.952 307.398Z"/><path fill="var(--pulse-empty-7)" fill-opacity="0.73333335" d="M789.34 375.257C787.859 373.836 788.133 368.84 789.337 367.142C789.388 369.366 789.585 373.195 789.34 375.257Z"/><path fill="var(--pulse-empty-5)" fill-opacity="0.76078433" d="M670.02 294.627C671.384 293.749 673.498 292.68 674.975 291.871L675.492 293.119C674.055 294.02 672.726 294.918 671.183 295.623L670.02 294.627Z"/></svg>
