<!-- Generated by SVGMaker - https://svgmaker.io -->
<!-- Prompt: Create a clean SVG empty-state illustration for a documentation app homepage.

Canvas: 1344x768 (or 16:9). Subject in the lower 60–65%. Upper area mostly empty negative space.

Composition:
- Flowing parallel wavy lines across the bottom (gentle hills / water), organic rhythm, sense of movement and life
- Scattered hollow document icons among the waves (simple page outline with folded top-right corner)
- Perspective via size: larger docs lower/foreground, smaller docs higher/distant
- Calm, modern, minimal — not cute, not corporate clipart

STRICT SVG technical rules:
- Stroke-only line art
- Every path: stroke="#000000", fill="none"
- Uniform thin stroke-width (about 1.5–2.5)
- stroke-linecap="round", stroke-linejoin="round"
- NO filled shapes, NO solid blobs, NO thick ribbons made with fill
- NO gradients, NO filters, NO shadows, NO opacity tricks
- NO background rectangle
- NO text, NO people, NO furniture, NO logos
- Monochrome black strokes only (hue-free for later CSS recoloring via currentColor)

Output valid optimized SVG using ‹path› (and ‹line› if needed) with fill="none" and stroke attributes only. -->
<!-- Quality: medium -->
<!-- Type: generate -->
<!-- Created: 2026-07-23T10:07:47.180Z -->
<svg version="1.1" xmlns="http://www.w3.org/2000/svg" style="display: block;" viewBox="0 0 2048 1365" width="1536" height="1024" preserveAspectRatio="none"><path transform="translate(0,0)" fill="rgb(0,0,0)" d="M 300.88 547.197 C 360.627 545.747 430.132 546.423 490.224 546.915 C 516.424 572.765 542.1 599.141 567.236 626.027 C 567.038 652.445 566.78 680.165 567.21 706.559 C 577.38 707.718 591.777 711.522 602.04 713.891 C 628.376 720.028 654.583 726.708 680.643 733.927 C 691.792 737.033 707.669 742.425 718.248 744.873 C 724.287 742.958 730.81 740.742 736.874 739.075 C 736.749 703.772 736.818 668.47 737.08 633.168 C 746.515 632.098 788.209 631.551 797.63 632.616 C 798.031 641.005 798.018 647.711 797.808 656.11 L 823.096 656.827 C 823.123 675.057 822.464 699.613 823.612 717.334 C 839.497 714.222 858.455 710.148 874.273 707.918 C 938.822 698.485 1004.63 702.57 1067.51 719.914 C 1081.85 723.84 1096.03 728.304 1110.03 733.297 C 1115.47 735.254 1141.36 745.204 1144.51 745.428 C 1151.8 745.944 1172.89 744.06 1182.29 743.856 C 1182.09 733.275 1180.42 680.2 1183.77 675.564 C 1190.15 672.839 1197.65 672.581 1204.5 672.863 C 1223.75 673.656 1225.93 668.915 1224.2 689.055 C 1230.86 689.313 1237.52 689.719 1244.16 690.271 C 1245.54 702.605 1244.9 736.002 1244.38 749.386 C 1254.41 750.929 1264.39 752.776 1274.3 754.924 C 1301.52 745.369 1329.42 737.186 1356.64 727.529 C 1364.09 724.882 1372.85 721.776 1380.49 720.12 C 1379.42 690.973 1380.29 660.367 1379.93 631.079 C 1379.83 622.635 1379.42 592.674 1380.76 586.55 C 1391.28 581.977 1545.37 585.25 1568.86 584.209 C 1595.11 611.026 1620.33 639.282 1646.93 666.461 C 1647 676.292 1646.98 686.123 1646.89 695.954 C 1681.57 701.971 1715.75 710.933 1750.02 718.879 C 1755.35 720.114 1760.62 721.693 1766.01 722.598 C 1765.95 709.512 1764.52 658.823 1767.85 649.47 C 1772.57 645.102 1810.46 647.171 1819.11 647.176 L 1819.69 673.848 C 1827.34 673.836 1835.16 673.699 1842.79 674.146 C 1843.39 692.318 1842.69 711.412 1843.5 729.126 C 1889.25 711.947 1954.14 698.969 2002.79 693.932 C 2018.28 692.328 2032.92 692.652 2048 691.265 L 2048 697.153 C 1985.14 698.296 1922.83 709.021 1863.2 728.958 C 1915.17 722.937 1997.4 743.155 2048 755.733 L 2048 761.529 C 1987.26 744.606 1907.48 728.119 1842.76 735.119 C 1819.02 737.687 1788.85 750.525 1764.9 754.565 C 1726.26 764.772 1685.51 774.21 1647.3 785.294 L 1647.01 823.591 C 1751.77 791.224 1862.25 781.646 1971.03 795.503 C 1993.58 798.315 2016.12 803.001 2038.34 807.756 C 2041.58 808.447 2044.71 809.272 2048 809.671 L 2048 815.493 C 2020.59 821.132 1985.02 832.947 1957.62 841.438 L 1852.78 873.116 C 1842.52 876.233 1796.79 890.717 1787.75 891.834 C 1831.27 903.134 1880.17 906.617 1923.97 919.628 C 1930.09 921.445 1955.28 913.885 1962.71 911.861 C 1982.96 906.151 2003.3 900.789 2023.74 895.779 C 2030.19 894.151 2042.05 890.517 2048 889.481 L 2048 895.029 C 2011.77 903.738 1972.51 914.722 1936.34 924.451 C 1973.43 935.91 2010.65 946.939 2048 957.536 L 2048 963.799 C 2022.17 955.621 1996.02 948.433 1970.08 940.619 C 1958.68 937.188 1934.65 927.64 1923.91 927.369 C 1920.49 927.283 1718.55 976.287 1708.62 980.623 C 1804.1 984.005 1892.45 992.452 1984.97 1017.09 C 2005.67 1022.61 2027.35 1025.99 2048 1032.05 L 2048 1037.66 C 1996.49 1025.56 1943.48 1011.97 1891.47 1002.74 C 1848.43 995.076 1804.93 990.246 1761.26 988.282 C 1735.77 986.914 1709.36 985.438 1683.96 987.181 C 1661.22 988.741 1637.51 995.499 1614.87 999.668 C 1583.51 1005.17 1551.69 1007.63 1519.85 1007 C 1490.92 1006.64 1466.59 1004.66 1437.7 999.337 C 1421.68 996.386 1393.17 987.027 1378.5 984.848 C 1371.89 983.868 1340.94 991.807 1331.68 993.244 C 1293.58 999.159 1256.97 1003.16 1218.26 1002.03 C 1187.72 1000.99 1157.29 997.88 1127.18 992.706 C 1078.59 984.038 1028.14 972.698 978.62 969.701 C 964.934 968.873 939.69 975.735 924.817 978.319 C 879.717 986.152 841.454 991.929 795.11 989.68 C 773.264 988.775 751.53 986.07 730.129 981.593 C 718.87 979.184 691.923 970.131 682.743 970.559 C 668.143 971.241 644.681 979.73 628.823 982.66 C 578.426 991.97 522.382 1000.53 471.08 999.707 C 417.432 998.848 370.083 982.278 320.558 964.667 C 257.29 941.642 194.742 929.093 127.403 928.768 C 79.279 928.536 46.2182 936.348 0 948.545 L 0 943.288 C 99.7791 910.521 200.496 920.208 299.275 951.699 C 337.456 963.894 374.131 979.101 413.517 987.218 C 487.054 1002.37 564.819 989.268 637.421 974.527 C 648.532 972.271 662.024 969.289 672.656 965.759 C 644.296 958.092 617.349 947.778 588.318 941.849 C 574.463 937.276 558.893 934.177 545.206 929.444 C 489.627 910.226 438.095 903.232 379.875 897.174 C 249.07 883.564 127.306 893.759 0 924.876 L 0 919.286 C 24.5313 911.445 64.3693 903.979 89.6787 900.039 C 180.737 885.579 273.217 882.263 365.076 890.163 C 387.666 891.778 410.196 894.136 432.631 897.234 C 438.107 897.994 464.103 902.585 467.057 902.721 L 467.695 901.959 C 467.457 901.731 467.218 901.502 466.98 901.274 C 366.194 868.802 240.584 829.576 135.57 827.231 C 74.1846 825.86 44.5303 830.308 0 835.075 L 0 829.48 C 20.5502 826.069 48.2051 824.029 69.2266 822.915 C 103.967 821.074 142.365 820.587 177.102 823.89 C 239.365 829.899 298.893 846.913 359.39 862.131 C 391.123 870.114 425.803 882.956 457.818 889.355 C 461.572 890.106 487.343 884.356 493.51 883.087 C 523.636 877.016 553.622 870.276 583.447 862.87 C 565.08 858.411 543.557 850.97 525.198 845.157 C 499.803 837.18 474.328 829.461 448.777 822.003 C 424.151 814.777 397.909 807.845 373.083 801.371 C 361.59 798.374 345.882 797.107 334.168 794.617 C 232.611 773.034 133.474 779.604 34.7498 811.341 C 23.6944 814.895 11.6593 817.315 0 821.258 L 0 815.681 C 103.788 779.913 192.457 768.892 300.829 782.403 C 300.05 756.162 300.425 728.87 300.452 702.546 C 283.292 708.242 256.142 713.59 238.132 717.529 L 140.102 738.995 C 94.1218 749.077 46.003 762.906 0 772.917 L 0 767.655 C 40.2953 758.89 82.2821 746.425 122.548 737.319 C 161.6 728.487 200.843 719.909 239.922 711.105 C 219.223 704.953 198.968 698.607 177.763 694.369 C 118.897 682.602 59.571 681.966 0 686.815 L 0 681.086 C 56.5258 675.028 128.446 678.356 184.202 689.995 C 206.749 694.702 232.352 704.294 253.992 707.548 C 260.631 708.546 291.224 699.319 300.083 697.022 C 301.486 648.366 300.453 596.292 300.88 547.197 z M 1386.05 870.249 C 1407.59 865.343 1424 864.301 1445.59 861.684 C 1508.51 854.061 1565.36 855.302 1628.19 864.451 C 1632.91 865.309 1638.16 866.14 1642.8 867.154 C 1642.24 831.77 1641.97 796.382 1641.99 760.993 C 1641.98 745.903 1643.26 680.601 1639.7 669.634 C 1634.24 665.391 1576.78 666.982 1566.04 666.993 C 1565.88 642.572 1566.37 614.205 1565.35 590.105 C 1505.55 589.55 1445.74 589.482 1385.93 589.898 C 1383.92 611.681 1385.19 655.067 1385.27 678.338 C 1385.92 742.306 1386.18 806.277 1386.05 870.249 z M 306.019 783.354 C 347.398 789.984 380.605 797.528 420.763 808.54 C 464.106 820.38 507.159 833.253 549.887 847.147 C 553.266 848.228 558.22 850.49 560.87 848.757 L 561.055 848.067 C 560.051 828.55 561.206 804.056 561.252 783.801 L 561.877 631.416 C 540.945 631.766 505.48 632.511 485.116 631.077 L 485.072 552.229 L 305.961 552.201 L 306.019 783.354 z M 607.406 861.135 C 646.559 868.873 683.905 862.211 723.047 856.773 L 783.16 848.79 C 875.293 836.398 964.251 838.141 1054.26 862.603 C 1097.59 874.862 1140.24 891.973 1182.96 905.964 C 1187.13 907.329 1215.67 900.536 1222.07 899.29 C 1241.32 895.681 1260.6 892.176 1279.9 888.774 C 1308.66 883.685 1346.13 878.473 1373.96 872.088 C 1325.92 856.973 1274.9 846.485 1226.36 833.451 C 1142.79 811.009 1059.04 788.892 972.002 787.481 C 962.913 787.333 953.876 786.888 944.741 787.533 C 847.954 789.303 763.084 817.492 670.322 842.855 C 648.707 848.765 629.911 855.655 607.406 861.135 z M 465.06 893.426 C 507.219 912.665 561.663 928.755 607.459 938.479 C 619.275 940.988 641.167 940.961 653.916 941.936 C 681.436 944.113 708.93 946.596 736.395 949.384 L 737.692 949.126 C 748.113 947.002 758.362 943.344 768.622 940.505 C 845.358 919.272 923.844 898.598 1003.56 893.455 C 1046.32 890.697 1088.29 893.066 1130.73 898.954 C 1135.67 899.639 1140.5 900.272 1145.49 900.441 C 1131.34 893.424 1112.23 887.805 1097.37 882.423 C 1038.27 861.031 980.061 849.071 917.172 847.662 C 904.836 847.386 886.899 846.613 874.64 847.561 C 840.708 848.572 806.851 851.333 773.203 855.835 C 734.607 860.741 695.862 866.821 657.111 870.431 C 648.111 871.269 626.493 871.009 618.026 869.197 C 593.624 863.976 581.495 870.098 557.891 874.886 C 527.817 880.985 495.669 889.817 465.06 893.426 z M 1438.94 965.88 C 1450.3 965.2 1486.56 955.875 1499.05 952.994 C 1541.09 943.648 1583.05 933.92 1624.91 923.813 L 1712.4 903.957 C 1722.63 901.558 1742.78 897.476 1751.81 893.987 C 1672.62 878.722 1593.13 859.266 1511.85 862.446 C 1477.61 864.06 1443.46 867.234 1409.5 871.959 C 1374.72 876.95 1335.66 884.589 1300.8 890.842 C 1271.24 896.143 1226.89 902.44 1199.41 910.065 C 1227.7 917.838 1257.5 923.754 1286.49 931.225 C 1315.3 938.616 1344.17 945.767 1373.1 952.679 C 1392.93 957.392 1418.96 963.76 1438.94 965.88 z M 1647.89 867.524 C 1671.27 871.798 1694.62 876.215 1717.94 880.773 C 1733.06 883.797 1757.86 889.709 1772.23 890.409 C 1777.71 890.676 1804.05 882.058 1811.13 879.834 C 1865.85 864.13 1920.64 846.791 1975.21 830.617 C 1989.58 826.358 2023.34 815.094 2037 812.919 C 2019.93 809.863 2002.06 805.679 1985.2 803.029 C 1944.64 796.653 1896.95 792.461 1855.73 794.532 C 1783.63 796.244 1717.14 811.323 1647.37 828.671 C 1647.45 840.891 1647.18 855.496 1647.89 867.524 z M 726.917 747.432 C 782.242 763.128 840.213 778.742 897.953 782.712 C 912.89 783.739 929.988 782.137 945.25 781.87 C 975.339 781.512 986.285 778.495 1015.11 771.351 C 1034.87 766.556 1054.69 762.016 1074.56 757.731 C 1087.43 755.041 1119.92 750.582 1130.68 747.247 C 1053.43 718.103 997.594 704.703 913.826 709.44 C 863.684 712.42 811.646 725.076 763.358 738.167 C 751.648 741.342 738.049 743.651 726.917 747.432 z M 1456.2 968.945 C 1492.63 974.438 1529.29 978.303 1566.07 980.528 C 1576.66 981.104 1591.35 982.168 1601.75 981.836 C 1623.14 983.615 1662.24 983.755 1682.89 980.841 C 1697.1 978.837 1724.93 969.313 1741.08 965.49 L 1857.61 937.339 C 1869.81 934.304 1900.32 927.366 1911.49 923.515 C 1895.71 917.847 1782.35 896.039 1769.38 897.218 C 1664.78 920.211 1560.38 944.121 1456.2 968.945 z M 1172.75 993.561 C 1244.36 1000.27 1298.78 995.77 1368.56 979.793 C 1325.62 967.031 1282.32 945.895 1239.25 932.408 C 1222.78 927.25 1204.64 917.976 1187.89 914.275 C 1137.2 925.625 1086.67 937.666 1036.31 950.396 C 1017.24 955.023 1001.99 959.535 982.488 963.664 C 1029.39 969.462 1075.17 976.658 1121.49 986.159 C 1138.46 989.64 1156.28 990.383 1172.75 993.561 z M 838.398 793.703 L 873.08 787.014 C 845.419 781.836 816.21 776.981 789.037 770.302 C 749.176 760.505 709.544 747.884 670.063 736.895 C 635.973 727.637 601.666 719.198 567.172 711.584 L 566.832 784.662 C 613.601 795.604 666.412 812.656 713.453 825.03 C 750.743 815.216 787.491 803.92 825.341 796.757 C 829.682 795.935 834.118 794.811 838.398 793.703 z M 697.724 967.313 C 757.574 988.59 831.077 987.288 893.243 977.736 C 901.886 976.137 937.702 968.704 943.569 968.542 C 913.25 964.565 870.058 964.718 838.245 962.637 L 772.939 957.929 C 767.609 957.544 745.704 955.794 741.546 956.193 C 729.099 958.971 709.106 962.925 697.724 967.313 z M 567.084 789.293 C 566.754 809.505 565.936 831.584 566.146 851.645 C 571.979 853.24 590.696 859.47 594.084 858.754 C 618.094 853.679 650.783 842.79 674.491 835.909 C 681.02 834.225 693.918 831.287 699.425 828.45 C 698.96 827.832 698.383 827.065 697.695 826.151 C 683.296 821.036 664.427 817.079 649.97 813.188 C 633.216 808.678 618.575 804.587 602.352 799.882 C 590.653 796.488 577.97 793.649 567.084 789.293 z M 1435.26 972.309 C 1419.49 975.332 1408.81 977.785 1393.58 982.173 C 1444.22 1001.82 1539.99 1006.21 1594.25 997.403 C 1607.5 995.634 1618.15 994.857 1630.7 989.816 C 1627.98 988.295 1621.75 990.508 1619.77 989.391 L 1621.37 989.274 C 1610.31 986.772 1592.78 987.469 1580.53 986.839 C 1556.25 985.701 1532.01 983.855 1507.83 981.302 C 1496.73 980.163 1441.66 971.471 1435.26 972.309 z M 1187.88 743.987 C 1200.17 744.12 1210.61 744.846 1222.78 746.115 C 1225.02 746.347 1238.15 747.855 1239.17 747.806 C 1239.19 730.824 1239.63 711.815 1239.11 694.997 C 1234.57 695.009 1226.34 695.524 1222.53 693.793 C 1219.6 690.795 1219.33 690.303 1219.36 685.522 C 1219.39 683.321 1219.45 681.121 1219.54 678.922 C 1209.04 678.682 1198.53 678.551 1188.02 678.528 L 1187.88 743.987 z M 1632.09 660.934 C 1617.49 645.459 1603.06 629.826 1588.79 614.037 C 1585.89 610.863 1573.38 596.621 1571.06 594.655 C 1571.49 617.094 1570.82 638.837 1571.03 661.076 L 1632.09 660.934 z M 742.87 638.017 C 740.944 665.253 742.017 709.541 742.462 737.684 C 762.348 732.683 782.433 727.135 802.229 722.271 C 807.38 721.053 812.943 719.853 818.023 718.499 C 817.749 699.362 817.652 680.222 817.731 661.083 C 810.877 660.989 798.904 661.134 792.517 660.442 C 792.328 652.939 792.377 645.431 792.666 637.931 C 776.818 637.937 758.511 637.493 742.87 638.017 z M 1647.01 779.821 C 1661.43 774.898 1680.18 770.525 1695.05 766.557 C 1709.48 762.705 1725.8 758.1 1740.23 755.125 C 1748.27 752.969 1758.32 750.517 1766.03 747.856 L 1765.9 728.475 C 1737.1 721.595 1708.28 713.914 1679.27 708.016 C 1671.09 706.352 1654.8 702.53 1646.89 701.856 L 1647.01 779.821 z M 1284.23 757.819 L 1308.57 762.85 C 1331.22 768.059 1358.24 773.473 1380.36 779.515 C 1380.35 772.712 1380.91 728.325 1379.21 726.089 L 1378.4 725.945 C 1357.19 733.339 1335.93 740.57 1314.61 747.64 C 1304.61 750.962 1293.88 753.883 1284.23 757.819 z M 631.58 946.184 C 664.711 957.52 682.187 967.578 715.535 956.086 L 718.726 955.044 L 718.111 953.869 C 710.614 952.096 638.981 945.576 631.58 946.184 z M 1838.69 729.932 C 1836.9 716.893 1838.08 693.994 1837.51 679.685 C 1830.02 679.224 1820.29 680.542 1815.53 675.807 C 1812.58 670.094 1814.06 659.944 1814 653.053 C 1801.04 653.085 1785.36 652.719 1772.62 653.511 C 1771.04 656.598 1771.61 736.97 1771.44 747.332 C 1779.17 745.323 1816.27 734.853 1822.06 734.352 C 1828.13 732.98 1832.74 731.914 1838.69 729.932 z M 1376.05 978.122 C 1387.16 976.777 1401.16 973.615 1412.25 970.972 L 1418.63 969.224 L 1418.49 968.59 C 1397.07 962.599 1370.73 957.695 1348.29 952.193 L 1284.68 936.408 C 1276.12 934.26 1255.17 928.333 1246.86 928.114 C 1259.88 934.917 1278.16 939.946 1292.16 945.341 C 1318.82 955.609 1350.38 966.124 1376.05 978.122 z M 490.809 625.697 C 504.784 625.469 546.277 626.942 557.12 625.233 C 556.197 621.282 497.72 563.305 490.951 555.569 L 490.809 625.697 z M 923.246 961.244 C 933.383 961.54 958.857 964.145 966.535 962.621 C 989.85 957.994 1015.26 949.874 1038.53 944.212 L 1125.23 922.808 C 1137.85 919.758 1161.44 915.024 1172.51 911.204 C 1138.99 902.133 1047.69 896.467 1012.14 898.429 C 938.956 903.945 878.346 916.128 807.349 935.667 C 794.487 939.207 768.663 944.662 758.029 951.099 C 814.519 956.81 867.822 957.421 923.246 961.244 z M 1380.74 793.533 C 1365.12 796.478 1216.27 820.685 1212.97 823.626 C 1218.77 825.59 1242.87 832.222 1248.7 833.141 L 1328.84 853.81 C 1342.16 857.253 1368.79 864.044 1381 869.276 C 1380.8 854.138 1379.22 806.452 1380.74 793.533 z M 1174.53 749.441 C 1112.09 752.43 1056.15 768.199 995.919 781.763 C 1007.34 783.959 1019.05 784.87 1030.59 786.07 C 1082.69 791.483 1133.42 803.267 1184.07 816.194 C 1191.43 818.074 1199.45 819.895 1207.02 818.476 C 1225.59 814.082 1244.5 811.841 1263.28 808.651 L 1345.17 794.143 C 1355.64 792.391 1378.05 789.652 1386.79 787.543 C 1377.58 783.685 1345.45 776.797 1334.56 774.407 C 1289.42 764.493 1244.26 751.576 1197.92 749.581 C 1192.52 749.348 1179.73 748.706 1174.53 749.441 z"></path><path transform="translate(0,0)" fill="rgb(0,0,0)" d="M 1436.17 753.459 C 1453.21 753.392 1597 751.795 1601.66 755.03 L 1601.63 758.888 C 1584.28 759.435 1438.81 760.772 1431.54 758.175 L 1431.07 756.409 C 1433.19 753.529 1432.07 754.425 1436.17 753.459 z"></path><path transform="translate(0,0)" fill="rgb(0,0,0)" d="M 1437.3 708.305 C 1456.81 709.121 1593.38 706.928 1600.03 709.474 C 1600.78 712.187 1600.85 710.83 1599.36 713.632 L 1596.25 714.191 C 1575.99 714.143 1440.87 716.084 1432.42 712.9 C 1431.49 712.548 1431.48 711.805 1431.09 710.935 C 1433.31 708.087 1432.49 708.997 1437.3 708.305 z"></path><path transform="translate(0,0)" fill="rgb(0,0,0)" d="M 1433.28 796.385 C 1443.58 795.824 1535.59 795.234 1540.27 797.346 L 1540.13 799.912 C 1537.68 802.132 1536.71 801.391 1532.66 801.473 C 1511.06 801.776 1489.17 801.366 1467.54 801.64 C 1461.98 801.711 1436.15 802.139 1432.12 801.104 L 1431.31 799.582 L 1433.28 796.385 z"></path><path transform="translate(0,0)" fill="rgb(0,0,0)" d="M 349.102 716.488 C 398.651 714.558 450.251 717.571 500.025 716.286 C 503.588 716.194 508.187 716.071 511.613 716.94 C 513.383 719.811 512.911 718.653 512.499 722.656 C 492.627 722.964 354.549 724.133 347.491 721.507 L 347.054 719.641 L 349.102 716.488 z"></path><path transform="translate(0,0)" fill="rgb(0,0,0)" d="M 348.848 673.486 C 368.546 673.321 508.53 671.649 515.321 674.82 L 515.963 676.896 L 514.768 679.102 C 497.229 679.33 352.487 680.645 347.495 677.643 C 347.194 674.785 346.929 676.171 348.848 673.486 z"></path><path transform="translate(0,0)" fill="rgb(0,0,0)" d="M 399.243 757.526 C 415.3 758.162 432.48 757.18 448.64 757.57 C 452.139 757.654 454.079 757.527 456.229 759.728 L 455.925 762.179 C 453.266 763.921 418.001 763.317 412.25 763.342 C 402.468 763.371 357.489 764.009 351.231 762.309 L 350.678 760.783 C 354.062 757.403 356.398 757.541 360.908 757.551 C 373.687 757.579 386.468 757.876 399.243 757.526 z"></path><path transform="translate(0,0)" fill="rgb(0,0,0)" d="M 803.4 668.062 L 805.466 668.7 L 805.851 671.194 C 802.842 674.89 763.107 688.289 755.568 691.143 C 773.008 697.524 801.761 690.999 809.033 697.463 C 808.651 697.875 807.263 699.282 806.793 699.302 C 795.838 699.763 761.304 703.996 755.792 692.542 C 755.998 680.857 793.022 671.146 803.4 668.062 z"></path><path transform="translate(0,0)" fill="rgb(0,0,0)" d="M 1820.58 684.14 L 1822.93 686.19 C 1822.4 694.277 1796.82 695.405 1792.5 701.889 C 1800.08 704.482 1824.37 701.458 1828.73 705.98 L 1827.8 708.709 C 1818.38 709.343 1793.77 709.463 1786.03 704.244 C 1785.33 702.945 1784.56 702.275 1785.11 701.318 C 1788.92 694.685 1813.5 686.887 1820.58 684.14 z"></path><path transform="translate(0,0)" fill="rgb(0,0,0)" d="M 1230.97 700.616 L 1232.28 702.27 C 1231.51 710.411 1204.95 710.29 1199.23 716.728 C 1203.74 723.64 1226.01 713.979 1231.66 725.13 C 1222.81 725.139 1198.36 727.248 1193.74 718.371 C 1195.9 708.383 1221.88 703.122 1230.97 700.616 z"></path></svg>