<!-- Generated by SVGMaker - https://svgmaker.io -->
<!-- Prompt: Monochrome empty-state illustration for a documentation app home screen.

Subject (lower half only): a closed hardcover book lying flat, with a simple bookmark ribbon peeking out; beside it a small cup with gentle rising steam lines. Calm “reading done / take a break” mood. Sparse desk surface suggested with almost no detail—no clutter.

Composition: bottom-weighted, large empty upper area for UI text. Single quiet focal point, generous negative space. Adult, elegant, minimal—not cute, not childish, not sticker-like.

Technical: black only on transparent background. No blue, no brown, no warm fill colors, no gradients. No text, no logos, no people, no laptop, no inbox, no document icons, no notification badges. No busy background pattern.

Keep shapes clear and bold enough for a linocut/engraving look, but still simple for later one-color accent recoloring. -->
<!-- Quality: medium -->
<!-- Type: edit -->
<!-- Created: 2026-07-23T10:45:51.830Z -->
<svg version="1.1" xmlns="http://www.w3.org/2000/svg" style="display: block;" viewBox="0 0 2048 1365" width="1536" height="1024" preserveAspectRatio="none"><path transform="translate(0,0)" fill="rgb(0,0,0)" d="M 791.994 1065.78 L 692.043 1044.09 C 672.818 1039.96 646.891 1034.72 628.644 1028.69 C 598.447 1018.7 593.213 947.309 618.659 929.703 C 621.248 927.913 634.082 923.754 637.88 922.703 C 703.299 904.592 770.721 885.937 835.861 867.635 L 893.001 851.486 C 928.726 841.341 927.614 840.869 964.392 845.775 L 1020.79 853.376 L 1108.01 865.036 C 1125.69 867.388 1143.68 869.554 1161.23 872.717 C 1167.66 873.878 1168.73 875.505 1172.14 880.641 C 1172.69 894.369 1170.1 964.071 1172.56 970.724 C 1175.63 972.996 1177.68 972.87 1181.5 973.345 C 1184.91 974.691 1186.56 975.002 1188.48 978.207 C 1189.03 981.164 1189.57 981.818 1187.89 984.786 C 1186.72 986.864 1182.74 989.799 1180.49 990.775 C 1161.36 999.05 1141.86 1007.14 1122.65 1015.18 C 1083.83 1031.55 1044.91 1047.7 1005.9 1063.62 C 992.204 1069.24 939.569 1092.19 930.395 1093.52 C 920.395 1094.97 839.025 1078.14 830.804 1074.74 L 828.608 1075.05 C 826.171 1079.8 830.001 1082.47 826.816 1085.94 C 819.662 1089.99 818.239 1088.3 810.664 1085.74 L 810.121 1069.49 C 805.41 1073.85 800.478 1078.18 795.695 1082.47 C 790.051 1081.92 784.018 1080.42 778.437 1079.19 C 783.359 1073.88 786.606 1070.65 791.994 1065.78 z"></path><path transform="translate(0,0)" fill="rgb(22,22,22)" d="M 791.994 1065.78 L 692.043 1044.09 C 672.818 1039.96 646.891 1034.72 628.644 1028.69 C 598.447 1018.7 593.213 947.309 618.659 929.703 C 621.248 927.913 634.082 923.754 637.88 922.703 C 703.299 904.592 770.721 885.937 835.861 867.635 L 893.001 851.486 C 928.726 841.341 927.614 840.869 964.392 845.775 L 1020.79 853.376 L 1108.01 865.036 C 1125.69 867.388 1143.68 869.554 1161.23 872.717 C 1167.66 873.878 1168.73 875.505 1172.14 880.641 C 1156.87 888.411 1117.52 901.193 1100.33 907.508 C 1054.56 924.511 1008.62 941.034 962.508 957.073 C 949.226 961.792 916.765 974.79 905.176 976 C 900.231 976.516 863.462 968.912 856.187 967.583 L 768.654 952.275 C 744.12 947.81 719.56 943.482 694.977 939.294 C 679.585 936.633 656.094 931.758 641.289 932.163 C 615.726 948.164 616.593 974.558 628.611 1001.23 C 632.646 1010.19 645.34 1012.13 653.638 1014.16 C 701.484 1024.67 753.173 1033.52 800.543 1045.03 C 798.383 1051.11 795.324 1058.6 794.684 1064.88 L 791.994 1065.78 z"></path><path transform="translate(0,0)" fill="rgb(22,22,22)" d="M 836.607 1054.37 C 858.842 1057.9 907.609 1070.64 926.097 1069.88 C 935.062 1069.51 992.852 1045.85 1005.61 1041.04 C 1047.49 1025.24 1090.58 1008.15 1132.4 991.962 C 1144.41 987.314 1171.34 973.966 1181.5 973.345 C 1184.91 974.691 1186.56 975.002 1188.48 978.207 C 1189.03 981.164 1189.57 981.818 1187.89 984.786 C 1186.72 986.864 1182.74 989.799 1180.49 990.775 C 1161.36 999.05 1141.86 1007.14 1122.65 1015.18 C 1083.83 1031.55 1044.91 1047.7 1005.9 1063.62 C 992.204 1069.24 939.569 1092.19 930.395 1093.52 C 920.395 1094.97 839.025 1078.14 830.804 1074.74 C 833.597 1063.88 831.71 1066.7 836.607 1054.37 z"></path><path transform="translate(0,0)" fill="rgb(22,22,22)" d="M 804.795 1015.93 C 771.113 1009.58 737.486 1002.94 703.918 996.014 C 696.611 994.479 674.156 990.569 668.344 988.546 C 680.681 987.045 764.842 1006.9 782.417 1008.94 C 786.009 1009.36 797.275 1012.78 802.316 1013.52 C 810.01 1014.67 813.038 1006.83 818.161 1006.2 C 828.579 1004.93 843.073 1006.75 853.553 1007.96 C 842.71 1009.35 825.626 1009.91 828.11 1026.35 C 830.489 1042.1 837.857 1048.72 823.779 1060.53 C 824.529 1068.61 825.26 1078.07 826.816 1085.94 C 819.662 1089.99 818.239 1088.3 810.664 1085.74 L 810.121 1069.49 C 805.41 1073.85 800.478 1078.18 795.695 1082.47 C 790.051 1081.92 784.018 1080.42 778.437 1079.19 C 783.359 1073.88 786.606 1070.65 791.994 1065.78 L 794.684 1064.88 C 809.34 1047.87 801.421 1037.7 804.795 1015.93 z"></path><path transform="translate(0,0)" fill="rgb(22,22,22)" d="M 1155.15 900.097 L 1157.73 900.405 C 1160.95 905.989 1159.74 958.4 1159.39 967.849 C 1103.49 989.672 1047.44 1011.1 991.237 1032.14 L 939.833 1052.2 C 931.19 1055.54 918.808 1060.95 910.21 1062.57 C 908.799 1057.2 907.396 1045.98 907.423 1040.39 C 907.483 1027.79 898.942 1001 908.058 991.31 L 908.524 990.82 C 913.128 985.904 956.619 971.955 966.154 968.594 L 1045.81 939.96 C 1081.49 927.245 1119.67 911.751 1155.15 900.097 z"></path><path transform="translate(0,0)" fill="rgb(22,22,22)" d="M 837.217 1020.4 C 838.032 1020.43 838.847 1020.48 839.66 1020.55 C 846.797 1021.16 895.324 1029.29 898.21 1032.72 C 891.871 1033.05 840.062 1023.31 837.217 1020.4 z"></path><path transform="translate(0,0)" fill="rgb(22,22,22)" d="M 1448.21 984.071 C 1397.31 1006.36 1330.9 1020.02 1275 1021.44 C 1250.42 1022.06 1204.36 1015.47 1196.54 986.119 C 1194.26 977.541 1193.66 962.128 1192.81 952.583 L 1187.48 887.8 C 1185.7 865.299 1183.53 841.841 1182.14 819.273 C 1181.92 815.669 1183.88 810.76 1186.73 808.566 C 1207.01 792.981 1260.5 792.585 1284.89 793.272 C 1304.3 793.819 1353.57 796.528 1366.74 811.187 C 1370.62 815.509 1370.99 819.663 1370.74 825.066 L 1370.68 826.283 C 1372.17 828.607 1371.19 828.08 1373.27 828.682 C 1394.85 832.103 1417 837.732 1430.59 856.742 C 1438 867.259 1440.88 880.307 1438.6 892.968 C 1435 913.62 1418.21 932.855 1401.38 944.365 C 1390.45 951.973 1378.05 957.222 1364.98 959.779 L 1358.89 960.331 C 1358.95 966.25 1357.3 979.604 1356.68 986.004 C 1374.62 985.608 1392.56 985.33 1410.5 985.171 C 1422.53 985.075 1436.45 985.53 1448.21 984.071 z"></path><path transform="translate(0,0)" fill="rgb(0,0,0)" d="M 1358.89 960.331 C 1358.88 955.295 1360.62 942.752 1361.24 937.236 C 1363.02 922.131 1364.62 907.005 1366.03 891.861 C 1367.28 876.975 1368.4 862.078 1369.41 847.174 C 1369.71 842.399 1369.74 830.232 1370.68 826.283 C 1372.17 828.607 1371.19 828.08 1373.27 828.682 C 1394.85 832.103 1417 837.732 1430.59 856.742 C 1438 867.259 1440.88 880.307 1438.6 892.968 C 1435 913.62 1418.21 932.855 1401.38 944.365 C 1390.45 951.973 1378.05 957.222 1364.98 959.779 L 1358.89 960.331 z"></path><path transform="translate(0,0)" fill="rgb(22,22,22)" d="M 1373.27 828.682 C 1394.85 832.103 1417 837.732 1430.59 856.742 C 1438 867.259 1440.88 880.307 1438.6 892.968 C 1435 913.62 1418.21 932.855 1401.38 944.365 C 1390.45 951.973 1378.05 957.222 1364.98 959.779 C 1364.73 955.595 1365.18 947.71 1365.29 943.261 C 1374.95 940.466 1384.1 936.142 1392.39 930.454 C 1404.59 922.183 1417.64 908.011 1419.78 893.066 C 1424.4 860.847 1396.88 851.537 1371.97 847.616 C 1371.85 841.904 1371.23 833.746 1373.27 828.682 z"></path><path transform="translate(0,0)" fill="rgb(0,0,0)" d="M 1363.87 827.236 L 1364.42 827.512 C 1359.04 840.533 1360.32 859.624 1359.03 873.961 C 1357.32 893.061 1347.7 982.84 1339.08 995.392 C 1336.23 999.541 1306.1 1003.27 1299.42 1004.4 C 1298.42 998.984 1301.58 963.709 1301.83 955.401 C 1302.94 917.898 1306.87 877.294 1306.62 839.983 C 1328.75 836.027 1340.92 838.874 1363.87 827.236 z"></path><path transform="translate(0,0)" fill="rgb(0,0,0)" d="M 1254.25 802.43 C 1272.56 800.507 1341.89 802.452 1354.79 815.579 C 1355.88 818.933 1355.95 817.321 1354.58 820.578 C 1345.59 829.143 1312.59 831.493 1299.55 832.885 C 1281.39 833.445 1202.69 834.778 1193.99 818.08 L 1194.79 815.708 C 1204.99 804.883 1239.94 803.148 1254.25 802.43 z"></path><path transform="translate(0,0)" fill="rgb(0,0,0)" fill-opacity="0.878431" d="M 1704.98 982.851 C 1645.28 982.441 1584.54 984.974 1524.68 983.941 C 1503.09 983.568 1476.44 984.838 1455.3 983.422 C 1465.8 981.515 1487.36 981.739 1498.78 981.611 L 1572.39 981.107 C 1637.24 980.886 1705.91 978.59 1770.22 981.285 C 1750.88 983.9 1722.96 980.434 1704.98 982.851 z"></path><path transform="translate(0,0)" fill="rgb(0,0,0)" fill-opacity="0.933333" d="M 293.525 980.157 C 324.279 979.969 568.639 975.912 578.04 979.497 C 569.291 981.759 513.626 981.059 501.501 981.129 L 322.116 982.166 C 311.155 981.257 287.55 981.86 275.644 981.803 C 277.107 981.163 290.205 980.508 293.525 980.157 z"></path><path transform="translate(0,0)" fill="rgb(0,0,0)" fill-opacity="0.980392" d="M 1271.46 588.764 C 1272.5 592.388 1265.89 607.305 1267.78 615.84 C 1270.7 629.049 1278.7 637.445 1283.66 649.806 C 1292.8 672.59 1276.52 689.514 1268.2 709.524 C 1264.64 718.109 1263.92 723.466 1267.06 732.797 C 1267.95 735.456 1268.25 734.693 1267.99 737.529 C 1246.16 716.999 1282.78 686.279 1282 663.514 C 1281.38 645.506 1266.45 634.277 1263.96 616.329 C 1262.65 606.506 1265.36 596.571 1271.46 588.764 z"></path><path transform="translate(0,0)" fill="rgb(0,0,0)" fill-opacity="0.980392" d="M 1243.65 640.624 C 1246.33 641.533 1248.45 643.849 1250.03 646.162 C 1265.87 669.277 1237.46 697.532 1234.13 720.404 C 1232.85 729.195 1233.61 732.577 1238.69 739.653 C 1236.56 739.646 1234.13 737.742 1233.16 735.977 C 1219.84 711.804 1247.98 689.119 1250.25 665.579 C 1251.1 656.766 1249.07 647.584 1243.65 640.624 z"></path><path transform="translate(0,0)" fill="rgb(0,0,0)" fill-opacity="0.976471" d="M 1315.96 658.501 C 1318.44 659.879 1319.48 661.975 1320.43 664.598 C 1327.63 685.289 1308.32 702.929 1300.33 720.324 C 1295.44 730.962 1302.25 737.686 1302.47 745.006 C 1274.1 721.992 1329.24 693.463 1315.96 658.501 z"></path><path transform="translate(0,0)" fill="rgb(0,0,0)" fill-opacity="0.470588" d="M 322.116 982.166 C 312.5 983.516 261.967 983.699 253.647 981.545 L 254.497 981.776 C 257.17 979.831 288.756 979.952 293.525 980.157 C 290.205 980.508 277.107 981.163 275.644 981.803 C 287.55 981.86 311.155 981.257 322.116 982.166 z"></path><path transform="translate(0,0)" fill="rgb(0,0,0)" fill-opacity="0.341176" d="M 1770.22 981.285 L 1772.04 981.996 C 1770.32 983.474 1713.33 983.504 1706.66 982.998 C 1706.1 982.958 1705.54 982.909 1704.98 982.851 C 1722.96 980.434 1750.88 983.9 1770.22 981.285 z"></path></svg>