<!-- Generated by SVGMaker - https://svgmaker.io -->
<!-- Prompt: Monochrome seamless repeating pattern for a documentation product empty state.
Abstract knowledge network: sparse nodes and thin connecting lines, elegant geometric rhythm, generous spacing, not dense.
Suggest connected knowledge without icons, letters, books, or UI screens.
Black only, transparent background, stroke-like clarity, calm and premium.
Tileable seamless pattern, no text, no logos, no people, no inbox. -->
<!-- Quality: medium -->
<!-- Type: edit -->
<!-- Created: 2026-07-23T10:45:22.349Z -->
<svg version="1.1" xmlns="http://www.w3.org/2000/svg" style="display: block;" viewBox="0 0 2048 1365" width="1536" height="1024" preserveAspectRatio="none"><defs><linearGradient id="Gradient1" gradientUnits="userSpaceOnUse" x1="301.118" y1="7.06885" x2="300.074" y2="3.57507"><stop class="stop0" offset="0" stop-opacity="0.909804" stop-color="rgb(11,11,11)"></stop><stop class="stop1" offset="1" stop-opacity="1" stop-color="rgb(2,1,3)"></stop></linearGradient><linearGradient id="Gradient2" gradientUnits="userSpaceOnUse" x1="2034.3" y1="92.7881" x2="2035.4" y2="90.7587"><stop class="stop0" offset="0" stop-opacity="0.92549" stop-color="rgb(10,10,11)"></stop><stop class="stop1" offset="1" stop-opacity="1" stop-color="rgb(0,0,0)"></stop></linearGradient></defs><path transform="translate(0,0)" fill="rgb(14,16,21)" d="M 1438.91 659.398 C 1459.28 644.95 1478.01 641.606 1493.73 663.721 C 1498.36 670.236 1498.17 673.781 1501.27 679.677 L 1501.76 682.357 C 1500.92 686.24 1499.82 692.669 1500.87 696.442 L 1502.99 697.597 L 1500.35 699.138 L 1499.24 699.021 C 1492.69 709.928 1488.7 715.106 1475.38 718.994 L 1473.46 720.912 C 1470.4 719.069 1457.9 721.126 1449.65 716.673 C 1426.13 703.996 1426.54 682.964 1437.11 661.225 L 1438.91 659.398 z"></path><path transform="translate(0,0)" fill="rgb(14,16,21)" d="M 612.598 478.232 C 620.112 475.514 623.437 474.406 631.669 476.54 C 634.007 477.146 635.612 478.301 638.051 478.516 L 641.188 481.008 C 642.224 485.304 645.305 488.257 647.049 496.397 C 645.733 500.089 644.451 503.83 642.942 507.445 C 655.102 519.616 668.111 535.083 679.764 548.157 C 697.274 567.686 715.215 586.824 733.575 605.556 L 735.55 604.663 L 733.919 604.876 C 743.406 599.604 749.162 597.463 756.4 608.658 C 757.943 611.044 758.068 614.595 759.109 617.01 L 758.375 618.846 C 755.713 620.696 752.383 626.58 749.052 627.542 C 745.496 628.57 743.564 627.191 739.668 628.815 C 735.882 641.132 728.78 742.367 728.145 762.325 C 729.126 764.535 733.501 768.783 733.619 770.899 C 734.314 783.362 723.527 785.458 715.372 779.076 C 710.763 769.807 723.315 765.413 724.309 758.271 C 725.429 750.229 725.855 741.269 726.571 733.066 L 731.071 682.191 C 732.635 664.574 734.404 646.938 735.771 629.325 C 736.225 623.465 729.77 622.007 730.543 615.827 C 730.603 615.345 730.379 607.847 730.456 607.931 C 700.414 575.362 671.029 541.536 640.911 509.043 C 629.123 518.011 619.775 515.824 608.791 507.294 L 607.9 504.985 C 599.702 494.206 610.577 485.07 609.34 478.6 L 612.598 478.232 z"></path><path transform="translate(0,0)" fill="rgb(14,16,21)" d="M 938.926 877.554 C 946.966 882.665 994.318 915.064 999.42 916.439 C 1010.31 906.233 1023.58 897.721 1036.16 912.346 L 1038.73 913.587 C 1043.18 924.331 1044.59 928.035 1040.68 939.036 L 1039.41 941.462 C 1025.1 957.004 1018.54 947.244 1011.48 951.012 L 1009.1 949.94 C 1008.16 948.739 1006.85 947.632 1005.75 946.56 C 1000.97 941.859 996.826 936.058 997.085 929.003 C 997.171 926.662 997.91 923.781 997.304 921.502 C 995.87 916.111 944.803 884.821 936.684 879.481 L 938.926 877.554 z"></path><path transform="translate(0,0)" fill="rgb(14,16,21)" d="M 423.245 674.397 L 424.294 677.319 L 415.874 685.372 C 420.553 692.187 423.705 697.997 422.078 706.581 C 420.822 713.166 416.98 718.974 411.41 722.705 C 406.067 726.276 399.746 727.754 393.422 726.356 C 387.059 724.912 381.563 720.928 378.211 715.33 C 374.887 709.886 373.856 703.346 375.342 697.142 C 376.607 692.054 379.744 687.03 383.898 683.827 L 386.462 682.461 C 393.693 677.281 405.43 679.405 412.816 683.273 C 416.716 680.484 419.718 677.624 423.245 674.397 z"></path><path transform="translate(0,0)" fill="rgb(14,16,21)" d="M 887.992 1057.7 C 892.456 1063.28 912.688 1089.24 916.322 1092.31 C 927.643 1090.74 925.564 1088.81 937.567 1091.34 L 938.088 1090.71 L 939.302 1091.94 C 952.611 1101.46 953.856 1113.48 946.309 1127.39 L 943.84 1130.3 C 940.186 1130.26 933.966 1134.88 928.359 1134.7 C 904.009 1133.92 897.394 1111.33 913.655 1094.71 C 905.097 1083.49 896.309 1072.45 887.294 1061.59 L 887.992 1057.7 z"></path><path transform="translate(0,0)" fill="rgb(14,16,21)" d="M 946.542 644.027 L 948.798 644.371 C 976.1 650.805 966.916 668.203 971.825 672.185 L 969.569 674.005 C 966.936 682.38 958.963 689.39 949.942 689.539 C 943.758 689.634 937.806 687.185 933.48 682.765 C 926.66 675.779 926.649 670.503 926.773 661.435 L 927.478 658.711 C 932.816 648.212 936.666 648.484 946.542 644.027 z"></path><path transform="translate(0,0)" fill="rgb(14,16,21)" d="M 1128.01 461.929 L 1130.62 462.261 C 1144.96 472.822 1149.52 482.413 1138.71 498.313 L 1137.07 499.614 C 1119.52 507.231 1105.62 505.059 1101.09 483.945 L 1100.27 482.023 C 1105.83 463.175 1111.53 464.229 1128.01 461.929 z"></path><path transform="translate(0,0)" fill="rgb(14,16,21)" d="M 1177.61 1029.4 C 1183.29 1033.16 1192.09 1039.39 1198.01 1042.08 C 1214.07 1030.23 1231.87 1033.92 1236.03 1055.68 C 1234.07 1063.23 1232.59 1067.72 1225.19 1072.08 C 1220.28 1074.99 1214.4 1075.75 1208.91 1074.19 C 1195.82 1070.48 1191.53 1057.18 1195.92 1045.07 C 1193.29 1043.35 1179.48 1034.43 1177.78 1032.83 C 1177.85 1032.01 1177.67 1030.3 1177.61 1029.4 z"></path><path transform="translate(0,0)" fill="rgb(14,16,21)" d="M 1171.08 292.838 L 1170.46 290.094 C 1167.65 287.532 1163.08 283.018 1161.77 279.49 C 1158.09 269.535 1162.53 257.819 1172.81 254.448 C 1178.47 252.654 1184.61 253.17 1189.89 255.885 C 1196.89 259.444 1198.27 263.759 1200.47 270.564 L 1200.83 272.479 C 1191.03 298.916 1179.67 285.996 1174.17 292.91 L 1171.08 292.838 z"></path><path transform="translate(0,0)" fill="rgb(14,16,21)" d="M 1478.53 1084.15 C 1454.66 1066.53 1493.97 1031.84 1507.78 1065.96 L 1510.16 1067.55 C 1506.78 1069.61 1507.31 1075.73 1502.64 1082.72 L 1500.66 1084.96 C 1488.58 1090.36 1487.24 1085.56 1480.59 1086.55 L 1478.53 1084.15 z"></path><path transform="translate(0,0)" fill="rgb(14,16,21)" d="M 1722.59 770 C 1730.47 762.472 1741.96 756.421 1750.65 766.937 C 1754.18 771.192 1755.78 776.723 1755.07 782.205 C 1753.32 795.591 1740.89 800.204 1729.82 794.835 L 1726.96 792.74 C 1719.51 785.465 1720.63 781.022 1721.12 771.281 L 1722.59 770 z"></path><path transform="translate(0,0)" fill="rgb(14,16,21)" d="M 345.454 1064.12 C 352.847 1054.11 350.049 1050.28 367.27 1050.85 L 369.173 1052.34 C 385.591 1061.01 380.68 1075.81 365.385 1083.05 L 362.386 1083.43 C 351.034 1081.34 348.16 1076.7 345.339 1066.15 L 345.454 1064.12 z"></path><path transform="translate(0,0)" fill="rgb(14,16,21)" d="M 1346.9 1227.72 C 1359.17 1253.16 1321.92 1262.67 1318.29 1240.84 C 1317.45 1235.72 1318.75 1230.49 1321.87 1226.36 C 1328.41 1217.82 1338.41 1219.7 1345.72 1226.07 L 1346.9 1227.72 z"></path><path transform="translate(0,0)" fill="rgb(1,1,1)" fill-opacity="0.94902" d="M 607.9 504.985 L 608.791 507.294 C 602.981 513.737 591.412 523.509 584.639 529.632 C 569.364 543.578 554.019 557.446 538.604 571.235 C 500.316 606.169 462.802 642.645 424.294 677.319 L 423.245 674.397 C 441.683 655.948 467.407 633.36 487.052 615.171 C 526.048 579.066 567.601 539.533 607.9 504.985 z"></path><path transform="translate(0,0)" fill="rgb(14,16,21)" d="M 1120.31 851.286 C 1112.69 840.888 1116.44 825.646 1130.8 825.508 C 1139.63 825.423 1142 831.041 1147.13 836.587 L 1147.72 839.097 C 1145.96 844.649 1143.74 850.803 1138.48 854.028 C 1132.4 855.325 1123.94 852.831 1120.91 854.404 L 1120.31 851.286 z"></path><path transform="translate(0,0)" fill="rgb(14,16,21)" d="M 443.983 869.869 C 423.181 836.91 478.528 831.698 466.514 866.056 L 464.482 868.046 C 453.421 874.618 454.496 870.668 445.477 871.577 L 443.983 869.869 z"></path><path transform="translate(0,0)" fill="rgb(1,1,1)" d="M 1502.99 697.597 C 1508.01 697.993 1719.34 768.027 1722.59 770 L 1721.12 771.281 C 1712.6 770.76 1690.54 761.701 1681.28 758.781 C 1620.84 739.282 1560.53 719.401 1500.35 699.138 L 1502.99 697.597 z"></path><path transform="translate(0,0)" fill="rgb(1,1,1)" fill-opacity="0.976471" d="M 443.983 869.869 L 445.477 871.577 C 429.563 911.121 411.651 950.687 395.783 990.396 C 392.475 998.674 372.817 1047.1 369.173 1052.34 L 367.27 1050.85 C 385.289 1010.06 401.301 966.653 419.466 925.746 C 425.657 911.804 436.492 882.241 443.983 869.869 z"></path><path transform="translate(0,0)" fill="rgb(1,1,1)" fill-opacity="0.964706" d="M 1478.53 1084.15 L 1480.59 1086.55 C 1474.25 1094.53 1465.84 1102.55 1458.68 1110.01 C 1421.34 1148.93 1385.69 1190.29 1346.9 1227.72 L 1345.72 1226.07 C 1348.25 1221.02 1379.17 1190.68 1385.13 1184.16 C 1415.45 1150.96 1448.82 1117.72 1478.53 1084.15 z"></path><path transform="translate(0,0)" fill="rgb(14,16,21)" d="M 557.046 974.886 C 575.069 968.166 577.256 975.778 578.951 991.46 C 579.92 992.391 581.108 993.621 582.138 994.428 L 579.897 995.892 L 577.469 995.198 C 572.423 997.144 562.628 1000.5 557.416 997.146 C 551.846 993.563 551.656 982.832 555.263 977.502 L 557.046 974.886 z"></path><path transform="translate(0,0)" fill="rgb(1,1,1)" fill-opacity="0.94902" d="M 469.965 339.903 C 482.842 353.976 498.686 369.326 512.868 382.361 C 546.09 412.893 578.518 448.998 612.598 478.232 L 609.34 478.6 C 605.455 475.564 600.577 470.958 597.027 467.423 C 554.794 425.38 509.355 384.782 468.463 341.583 C 469.027 341.083 469.531 340.519 469.965 339.903 z"></path><path transform="translate(0,0)" fill="rgb(1,1,1)" d="M 1501.27 679.677 C 1531.95 669.424 1573.44 659.567 1605.74 650.446 C 1620.51 646.312 1635.26 642.088 1649.98 637.774 C 1657.8 635.474 1670.17 631.366 1677.87 630.03 L 1677.41 632.442 C 1660.6 638.938 1634.86 645.399 1617 650.403 L 1501.76 682.357 L 1501.27 679.677 z"></path><path transform="translate(0,0)" fill="rgb(14,16,21)" d="M 1270.48 820.863 C 1274.94 816.311 1271.6 808.303 1285.02 807.264 C 1288.05 807.021 1291.04 808.062 1293.26 810.133 C 1300.12 816.462 1298.66 824.338 1294.07 831.226 L 1291.95 832.222 C 1273.08 836.49 1277.56 825.861 1270.66 822.5 L 1270.48 820.863 z"></path><path transform="translate(0,0)" fill="rgb(1,1,1)" fill-opacity="0.960784" d="M 1500.66 1084.96 L 1502.64 1082.72 C 1510.4 1092.56 1525.89 1107.81 1535.08 1117.37 L 1590.17 1175 C 1601.47 1186.78 1616.86 1202.07 1627.02 1214.46 L 1623.71 1215.44 C 1612.12 1201.39 1598.02 1188.25 1585.74 1174.93 C 1557.98 1144.83 1527.79 1115.4 1500.66 1084.96 z"></path><path transform="translate(0,0)" fill="rgb(1,1,1)" d="M 1171.08 292.838 L 1174.17 292.91 C 1159.32 348.306 1146.07 408.124 1130.62 462.261 L 1128.01 461.929 C 1128.36 456.397 1141.21 408.023 1143.21 400.185 L 1160.17 333.665 C 1163.34 321.172 1166.98 304.752 1171.08 292.838 z"></path><path transform="translate(0,0)" fill="rgb(1,1,1)" fill-opacity="0.988235" d="M 759.109 617.01 C 765.14 617.293 779.629 621.601 786.093 623.303 C 799.478 626.807 812.886 630.219 826.318 633.539 L 892.154 649.478 C 901.301 651.708 918.915 655.707 927.478 658.711 L 926.773 661.435 L 817.352 634.389 C 798.866 629.771 776.428 624.549 758.375 618.846 L 759.109 617.01 z"></path><path transform="translate(0,0)" fill="rgb(14,16,21)" d="M 806.738 962.438 L 804.656 960.581 C 796.951 961.073 787.47 959.328 783.922 951.464 C 783.389 945.267 789.917 937.785 795.545 936.969 C 809.598 934.93 814.466 947.479 806.956 957.754 L 806.34 958.585 L 807.447 959.835 L 806.738 962.438 z"></path><path transform="translate(0,0)" fill="rgb(1,1,1)" fill-opacity="0.968627" d="M 1040.68 939.036 C 1084.51 966.513 1134.52 1000.3 1177.61 1029.4 C 1177.67 1030.3 1177.85 1032.01 1177.78 1032.83 C 1172.63 1029.99 1161.88 1022.42 1156.57 1018.94 L 1112.26 989.925 L 1062.02 956.326 C 1055.05 951.659 1045.61 946.272 1039.41 941.462 L 1040.68 939.036 z"></path><path transform="translate(0,0)" fill="rgb(1,1,1)" fill-opacity="0.960784" d="M 1009.1 949.94 L 1011.48 951.012 C 1005.66 965.703 946.403 1084.35 939.302 1091.94 L 938.088 1090.71 L 1009.1 949.94 z"></path><path transform="translate(0,0)" fill="rgb(1,1,1)" fill-opacity="0.956863" d="M 290.215 547.186 C 293.929 550.627 310.592 575.722 314.997 581.737 C 339.151 614.717 362.338 649.542 386.462 682.461 L 383.898 683.827 C 351.556 640.938 320.077 591.609 287.736 548.269 L 290.215 547.186 z"></path><path transform="translate(0,0)" fill="rgb(14,16,21)" d="M 1230.77 586.932 C 1238.9 594.638 1244.07 580.592 1253.91 594.334 L 1255.81 596.312 C 1252.96 606.513 1252.63 612.332 1239.58 610.969 C 1229.71 609.939 1231.69 598.398 1231.44 591.374 C 1231.44 591.374 1229.22 588.624 1229.01 588.37 L 1230.77 586.932 z"></path><path transform="translate(0,0)" fill="rgb(1,1,1)" fill-opacity="0.960784" d="M 582.138 994.428 C 620.357 1017.93 660.409 1038.52 699.174 1061.09 C 702.566 1063.07 706.43 1065.39 709.508 1067.79 L 708.102 1070.68 C 703.789 1066.78 683.06 1055.3 677.015 1051.94 L 620.593 1020.54 C 608.225 1013.63 590.794 1004.36 579.897 995.892 L 582.138 994.428 z"></path><path transform="translate(0,0)" fill="rgb(1,1,1)" d="M 362.386 1083.43 L 365.385 1083.05 C 378.135 1130.09 387.734 1181.63 400.258 1230.01 L 397.802 1231.24 C 396.246 1226.52 394.94 1221.71 393.734 1216.89 C 382.633 1172.56 373.453 1127.77 362.386 1083.43 z"></path><path transform="translate(0,0)" fill="rgb(14,16,21)" d="M 1627.02 1214.46 C 1633.09 1217.69 1633.59 1214.69 1637.9 1215.84 C 1663.25 1222.62 1634.87 1253.83 1625.6 1228.73 C 1624.09 1224.62 1629.03 1221.33 1623.71 1215.44 L 1627.02 1214.46 z"></path><path transform="translate(0,0)" fill="rgb(14,16,21)" d="M 1386.46 617.637 C 1383.17 617.402 1376.05 626.073 1368.82 620.295 C 1351.66 606.57 1386.77 582.397 1387.38 616.527 L 1386.46 617.637 z"></path><path transform="translate(0,0)" fill="rgb(14,16,21)" d="M 400.258 1230.01 C 407.548 1232.54 417.402 1237.35 415.081 1246.79 C 406.55 1259.97 379.342 1253.72 397.802 1231.24 L 400.258 1230.01 z"></path><path transform="translate(0,0)" fill="rgb(1,1,1)" d="M 970.933 509.818 C 978.654 507.445 1014.38 500.116 1023.29 498.377 C 1042.48 494.631 1082.55 483.573 1100.27 482.023 L 1101.09 483.945 C 1085.31 487.853 975.743 513.607 968.031 512.529 L 970.933 509.818 z"></path><path transform="translate(0,0)" fill="rgb(14,16,21)" d="M 1677.87 630.03 C 1676.81 627.181 1675.73 621.405 1677.58 618.62 C 1687.72 603.336 1714.55 629.547 1689.82 636.08 C 1685.57 637.204 1681.07 634.916 1677.41 632.442 L 1677.87 630.03 z"></path><path transform="translate(0,0)" fill="rgb(1,1,1)" d="M 208.098 1046.18 C 215.815 1046.74 225.443 1048.56 233.452 1049.56 C 255.325 1052.2 277.182 1054.98 299.02 1057.89 C 306.143 1058.81 340.33 1062.08 345.454 1064.12 L 345.339 1066.15 C 333.023 1066.35 293.245 1060.23 278.812 1058.28 C 259.648 1055.68 224.879 1052.61 207.887 1048.25 L 208.098 1046.18 z"></path><path transform="translate(0,0)" fill="rgb(1,1,1)" fill-opacity="0.956863" d="M 466.514 866.056 C 492.72 901.852 530.188 939.944 557.046 974.886 L 555.263 977.502 L 497.189 908.129 C 486.909 895.769 473.762 880.852 464.482 868.046 L 466.514 866.056 z"></path><path transform="translate(0,0)" fill="rgb(1,1,1)" fill-opacity="0.952941" d="M 1294.07 831.226 C 1310.7 853.046 1327.43 881.505 1343.18 904.54 C 1348.39 912.166 1367.56 941.135 1370.57 947.534 L 1369.02 948.715 C 1364.68 943.31 1359.06 934.797 1355.49 928.801 C 1336.15 896.34 1310.88 864.46 1291.95 832.222 L 1294.07 831.226 z"></path><path transform="translate(0,0)" fill="rgb(14,16,21)" d="M 953.538 524.136 C 952.252 519.314 942.493 511.619 945.917 506.201 C 958.106 486.914 966.685 508.213 970.933 509.818 L 968.031 512.529 C 967.439 515.612 967.222 515.921 965.049 518.198 C 962.11 519.334 957.962 520.28 956.271 522.242 L 953.538 524.136 z"></path><path transform="translate(0,0)" fill="rgb(1,1,1)" d="M 969.569 674.005 L 971.825 672.185 C 1013.49 686.082 1055.27 699.651 1097.15 712.893 C 1097.79 715.673 1097.88 714.309 1096.57 717.087 C 1077.97 707.928 1054.88 703.269 1035.29 696.164 C 1014.03 688.452 990.158 683.064 969.569 674.005 z"></path><path transform="translate(0,0)" fill="rgb(1,1,1)" d="M 1200.47 270.564 C 1208.48 268.793 1231.06 268.656 1240.33 268.372 L 1325.08 266.142 L 1325.21 269.423 C 1285.49 269.246 1239.05 273.496 1200.83 272.479 L 1200.47 270.564 z"></path><path transform="translate(0,0)" fill="rgb(14,16,21)" d="M 207.887 1048.25 C 204.103 1052.74 197.567 1057.58 192.364 1053.61 C 173.624 1039.32 205.186 1017.97 208.098 1046.18 L 207.887 1048.25 z"></path><path transform="translate(0,0)" fill="rgb(1,1,1)" fill-opacity="0.960784" d="M 1138.71 498.313 C 1157.81 516.46 1176.23 535.104 1195.68 553.099 C 1202.99 559.859 1225.19 579.967 1230.77 586.932 L 1229.01 588.37 C 1226.19 586.339 1204.34 565.563 1201.14 562.25 C 1184.03 544.558 1151.47 517.876 1137.07 499.614 L 1138.71 498.313 z"></path><path transform="translate(0,0)" fill="rgb(1,1,1)" fill-opacity="0.972549" d="M 807.447 959.835 C 831.973 987.906 854.591 1018.37 878.708 1046.85 C 881.713 1050.4 884.814 1054.33 887.992 1057.7 L 887.294 1061.59 L 834.073 996.863 C 827.782 989.189 811.378 970.019 806.738 962.438 L 807.447 959.835 z"></path><path transform="translate(0,0)" fill="rgb(1,1,1)" fill-opacity="0.980392" d="M 1147.13 836.587 C 1151.25 835.774 1155.4 835.128 1159.58 834.724 C 1196.3 831.178 1233.73 823.529 1270.48 820.863 L 1270.66 822.5 C 1261.05 825.432 1233.24 828.396 1222.5 829.734 C 1197.59 832.999 1172.66 836.12 1147.72 839.097 L 1147.13 836.587 z"></path><path transform="translate(0,0)" fill="rgb(14,16,21)" d="M 1370.57 947.534 C 1375.19 947.492 1380.83 947.421 1383.89 951.094 C 1395.56 965.125 1362.91 977.615 1365.6 955.429 C 1365.94 952.561 1366.87 950.783 1369.02 948.715 L 1370.57 947.534 z"></path><path transform="translate(0,0)" fill="rgb(1,1,1)" fill-opacity="0.976471" d="M 953.538 524.136 L 956.271 522.242 C 954.833 530.68 954.599 538.857 954.042 547.363 C 951.929 579.626 951.402 612.158 948.798 644.371 L 946.542 644.027 C 945.903 635.07 952.209 525.723 953.538 524.136 z"></path><path transform="translate(0,0)" fill="rgb(14,16,21)" d="M 1496.5 820.645 C 1506.07 821.215 1513.61 825.609 1507.72 836.155 C 1506.47 838.421 1504.3 840.041 1501.78 840.605 C 1489.83 843.389 1485.4 831.107 1494.4 820.35 L 1496.5 820.645 z"></path><path transform="translate(0,0)" fill="rgb(1,1,1)" fill-opacity="0.972549" d="M 1036.16 912.346 C 1043.1 906.254 1051.21 901.362 1058.47 895.81 C 1077.82 881.006 1101.67 866.434 1120.31 851.286 L 1120.91 854.404 C 1117.6 857.232 1114.32 859.784 1110.78 862.314 C 1086.86 879.42 1063.16 897.238 1038.73 913.587 L 1036.16 912.346 z"></path><path transform="translate(0,0)" fill="rgb(14,16,21)" d="M 1325.08 266.142 C 1329.76 263.021 1329.48 257.778 1337.25 258.748 C 1349.19 260.239 1346.28 283.565 1333.53 278.8 C 1327.07 276.388 1328.18 273.679 1325.21 269.423 L 1325.08 266.142 z"></path><path transform="translate(0,0)" fill="rgb(14,16,21)" d="M 1001.44 1187.34 C 1007.02 1183.87 1014.36 1183.23 1017.28 1189.67 C 1023.64 1203.69 1006.6 1211.66 1000.24 1198.71 C 999.696 1197.61 999.907 1191.02 999.873 1189.37 L 1001.44 1187.34 z"></path><path transform="translate(0,0)" fill="rgb(14,16,21)" d="M 468.463 341.583 C 464.581 345.029 458.685 344.849 455.021 341.172 C 451.357 337.495 451.197 331.599 454.657 327.729 C 458.117 323.859 463.994 323.36 468.057 326.591 C 472.119 329.822 472.956 335.661 469.965 339.903 C 469.531 340.519 469.027 341.083 468.463 341.583 z"></path><path transform="translate(0,0)" fill="rgb(1,1,1)" d="M 1475.38 718.994 C 1482.41 749.068 1491.11 790.107 1496.5 820.645 L 1494.4 820.35 C 1490.95 813.868 1475.04 731.21 1473.46 720.912 L 1475.38 718.994 z"></path><path transform="translate(0,0)" fill="rgb(14,16,21)" d="M 287.736 548.269 C 282.39 548.291 277.118 547.597 273.77 542.93 C 271.773 533.727 280.141 527.594 288.413 529.913 C 294.821 534.377 292.609 541.192 290.215 547.186 L 287.736 548.269 z"></path><path transform="translate(0,0)" fill="rgb(14,16,21)" d="M 709.508 1067.79 C 720.133 1062.99 730.765 1066.56 725.361 1079.79 C 722.398 1087.04 706.886 1087.45 708.102 1070.68 L 709.508 1067.79 z"></path><path transform="translate(0,0)" fill="rgb(1,1,1)" fill-opacity="0.972549" d="M 718.738 429.242 L 720.345 432.139 L 641.188 481.008 L 638.051 478.516 C 646.252 474.833 662.634 464.257 670.884 459.071 C 686.359 449.343 703.719 439.402 718.738 429.242 z"></path><path transform="translate(0,0)" fill="rgb(1,1,1)" fill-opacity="0.964706" d="M 863.144 826.337 C 888.258 843.341 914.023 860.347 938.926 877.554 L 936.684 879.481 L 860.46 828.437 L 863.144 826.337 z"></path><path transform="translate(0,0)" fill="rgb(1,1,1)" d="M 860.46 828.437 C 852.91 821.368 851.979 827.117 845.386 824.075 C 838.207 820.761 839.325 808.279 848.959 806.734 C 858.959 808.525 856.19 815.971 858.921 822.428 C 860.641 824.02 862.048 825.323 863.144 826.337 L 860.46 828.437 z"></path><path transform="translate(0,0)" fill="rgb(14,16,21)" d="M 1097.15 712.893 C 1106.09 706.96 1114.5 709.641 1114.63 720.932 C 1111.27 728.411 1100.75 729.418 1095.89 722.74 C 1095.58 720.48 1094.96 719.115 1096.57 717.087 C 1097.88 714.309 1097.79 715.673 1097.15 712.893 z"></path><path transform="translate(0,0)" fill="rgb(1,1,1)" fill-opacity="0.960784" d="M 1726.96 792.74 L 1729.82 794.835 C 1718.59 803.077 1672.56 835.895 1665.12 844.023 L 1662.65 841.593 C 1673.71 830.452 1712.04 804.79 1726.96 792.74 z"></path><path transform="translate(0,0)" fill="rgb(1,1,1)" fill-opacity="0.964706" d="M 946.309 1127.39 C 961.765 1146.72 984.247 1169.28 1001.44 1187.34 L 999.873 1189.37 C 984.834 1176.3 958.855 1146.15 943.84 1130.3 L 946.309 1127.39 z"></path><path transform="translate(0,0)" fill="rgb(14,16,21)" d="M 1570.64 1046.97 C 1570.31 1042.39 1573.61 1038.35 1578.16 1037.75 C 1582.7 1037.14 1586.94 1040.18 1587.82 1044.68 C 1588.71 1049.19 1585.93 1053.6 1581.49 1054.76 C 1577.05 1055.91 1572.47 1053.41 1571.05 1049.05 C 1570.83 1048.38 1570.69 1047.68 1570.64 1046.97 z"></path><path transform="translate(0,0)" fill="rgb(1,1,1)" d="M 1570.64 1046.97 C 1570.69 1047.68 1570.83 1048.38 1571.05 1049.05 C 1565.34 1052.47 1516.83 1066.56 1510.16 1067.55 L 1507.78 1065.96 C 1511.4 1063.34 1563.4 1049.09 1570.64 1046.97 z"></path><path transform="translate(0,0)" fill="rgb(1,1,1)" fill-opacity="0.988235" d="M 1387.38 616.527 C 1392.18 618.303 1431.13 653.008 1438.91 659.398 L 1437.11 661.225 C 1429.9 656.26 1391.26 624.104 1386.46 617.637 L 1387.38 616.527 z"></path><path transform="translate(0,0)" fill="rgb(14,16,21)" d="M 1274.79 589.446 L 1276.05 589.188 C 1288.17 586.592 1287.9 579.541 1296.4 583.559 C 1300.1 588.23 1300.3 590.398 1295.9 594.643 C 1287.23 597.798 1287.22 590.917 1279.6 591.662 C 1277.96 591.823 1275.99 592.148 1274.36 592.414 L 1274.79 589.446 z"></path><path transform="translate(0,0)" fill="rgb(14,16,21)" d="M 1662.65 841.593 L 1665.12 844.023 C 1666.95 847.704 1667.36 850.058 1665.61 853.854 C 1658.93 859.004 1649.25 855.439 1650.61 847.386 C 1653.87 842.892 1657.52 842.433 1662.65 841.593 z"></path><path transform="translate(0,0)" fill="rgb(14,16,21)" d="M 718.738 429.242 C 718.882 423.528 721.135 419.662 727.3 418.998 C 732.795 421.101 734.393 424.202 733.494 430.167 C 729.754 435.909 725.998 434.591 720.345 432.139 L 718.738 429.242 z"></path><path transform="translate(0,0)" fill="rgb(14,16,21)" d="M 1972.25 1348.9 C 1982.37 1352.22 1979.91 1360.06 1972.36 1365 C 1966.98 1361.92 1964.51 1359.33 1965.46 1353.23 C 1967.54 1350.23 1968.72 1350.11 1972.25 1348.9 z"></path><path transform="translate(0,0)" fill="rgb(1,1,1)" d="M 1253.91 594.334 C 1260.86 592.507 1267.78 591.004 1274.79 589.446 L 1274.36 592.414 C 1268.64 594.005 1261.68 596.011 1255.81 596.312 L 1253.91 594.334 z"></path><path transform="translate(0,0)" fill="rgb(14,16,21)" d="M 11.6649 1141.7 C 16.4543 1142.41 19.6612 1141.2 24.2446 1141.26 C 31.5046 1141.35 40.9837 1145.67 45.8236 1151.16 C 52.9933 1159.9 50.8946 1171.88 51.3824 1182.34 C 51.4215 1183.18 56.1444 1185.83 57.2467 1186.43 L 51.9937 1186.52 L 50.0896 1185.48 C 46.7103 1188.45 44.3387 1192 41.1722 1195.06 C 29.8085 1206.07 12.1949 1202.78 0 1196.08 L 0 1148.24 C 3.68092 1146.51 8.07476 1143.79 11.6649 1141.7 z"></path><path transform="translate(0,0)" fill="rgb(14,16,21)" d="M 196.378 316.928 C 215.004 306.623 227.636 310.738 239.862 327.958 L 241.625 328.153 L 242.343 330.957 C 241.49 334.29 242.359 337.996 242.393 341.491 C 242.579 360.62 225.363 373.415 207.04 369.005 C 196.585 366.488 191.671 362.016 186.16 353.241 L 183.999 350.028 C 187.159 345.424 178.528 336.053 194.014 317.474 L 196.378 316.928 z"></path><path transform="translate(0,0)" fill="rgb(14,16,21)" d="M 210.119 822.828 L 211.221 825.826 C 220.67 827.748 235.472 823.924 242.698 834.894 C 250.943 847.411 247.555 863.109 234.92 871.296 C 228.434 875.48 220.528 876.854 213.011 875.102 C 191.597 870.228 192.421 852.221 197.887 835.595 L 199.715 834.135 C 202.983 831.741 207.225 829.48 208.478 825.956 L 210.119 822.828 z"></path><path transform="translate(0,0)" fill="rgb(14,16,21)" d="M 1864.02 518.438 L 1866.67 517.837 C 1869.73 520.75 1871.74 520.592 1874.89 522.745 C 1890.54 533.463 1891.73 545.162 1881.21 560.294 L 1879.69 562.742 C 1858.44 576.69 1834.97 563.733 1837.82 536.94 L 1839.17 535.146 C 1843.56 523.473 1852.67 520.169 1864.02 518.438 z"></path><path transform="translate(0,0)" fill="rgb(14,16,21)" d="M 729.631 1289.18 C 722.089 1279.03 718.263 1263.7 730.319 1256.4 C 755.787 1240.96 782.24 1267.21 756.084 1291.52 L 781.769 1365 L 778.612 1365 C 771.037 1343.65 759.622 1314.02 753.784 1292.73 C 744.403 1294.29 734.899 1290.13 729.607 1294.46 C 714.973 1306.43 701.787 1321.17 687.332 1333.32 L 685.247 1331.29 C 698.243 1319.36 718.389 1301.74 729.631 1289.18 z"></path><path transform="translate(0,0)" fill="rgb(14,16,21)" d="M 1776.11 1009.85 L 1810.36 1044.76 C 1818.82 1043.69 1823.99 1042.97 1832.06 1045.97 L 1834.2 1046.9 C 1843.51 1054.52 1843.49 1058.15 1846.11 1070.72 C 1848.17 1072.79 1848.53 1072.81 1851.29 1073.97 C 1851.77 1075.48 1852.38 1076.38 1851.95 1077.55 C 1835.67 1070.11 1843.02 1087.04 1823.76 1088.05 C 1816.8 1088.4 1810 1085.89 1804.94 1081.1 C 1792.89 1069.62 1797.08 1056.89 1807.32 1046.28 C 1796.98 1035.45 1786.47 1024.78 1775.82 1014.25 L 1776.11 1009.85 z"></path><path transform="translate(0,0)" fill="rgb(14,16,21)" d="M 1505.2 1358.55 C 1505.17 1341.35 1512.34 1326.82 1531.68 1327.09 C 1538.87 1327.13 1545.74 1330.03 1550.77 1335.15 C 1558.61 1343.21 1559.83 1354.47 1557.18 1365 L 1477.75 1365 C 1486.89 1362.78 1496.04 1360.63 1505.2 1358.55 z"></path><path transform="translate(0,0)" fill="rgb(14,16,21)" d="M 1945.7 894.74 C 1940.84 888.75 1937.4 882.062 1938.47 874.011 C 1939.31 867.85 1942.73 862.339 1947.88 858.858 C 1953.54 854.998 1960.53 853.615 1967.24 855.03 C 1987.75 859.38 1991.26 887.597 1971.37 899.183 L 1969.35 900.147 C 1958.24 901.096 1956.79 900.896 1946.2 896.33 L 1945.7 894.74 z"></path><path transform="translate(0,0)" fill="rgb(14,16,21)" d="M 1202.41 53.2217 C 1203.4 53.5718 1203.98 53.9134 1204.95 53.9249 C 1225.28 49.5166 1226.46 57.0073 1235.4 70.9686 L 1236.05 73.3331 C 1233.47 78.8116 1234.06 83.7955 1229.34 89.0139 C 1220.61 98.6841 1207.16 99.4863 1197.74 89.8997 C 1193.38 85.498 1191.01 79.5021 1191.18 73.3073 C 1191.51 63.6078 1195.82 59.3243 1202.41 53.2217 z"></path><path transform="translate(0,0)" fill="rgb(14,16,21)" d="M 746.996 276.478 L 750.806 276.97 C 763.114 283.088 766.729 292.168 763.721 305.543 C 762.894 309.217 760.536 310.491 763.039 312.74 L 759.386 312.981 C 751.637 321.766 738.974 322.603 729.935 315.259 C 725.051 311.344 721.949 305.627 721.327 299.399 C 719.663 282.275 732.95 277.346 746.996 276.478 z"></path><path transform="translate(0,0)" fill="rgb(14,16,21)" d="M 1512.67 0 L 1558.27 0 L 1557.87 0.648663 C 1556.46 2.25224 1556.27 1.86501 1556.02 3.44028 C 1549.17 22.657 1538.43 17.3083 1530.17 22.0844 C 1527.68 30.9761 1525.82 55.7546 1524.58 65.7159 C 1520.21 101.034 1517.96 137.811 1512.79 172.945 C 1516.52 176.436 1521.19 183.553 1517.45 188.291 C 1504.26 205.002 1482.13 176.794 1510.52 172.623 C 1510.94 165.829 1511.77 158.528 1512.58 151.754 C 1517.78 107.849 1521 63.2567 1527.17 19.5007 C 1516.88 13.8614 1515.71 11.6588 1512.67 0 z"></path><path transform="translate(0,0)" fill="rgb(14,16,21)" d="M 121.071 616.417 C 124.635 611.701 117.547 596.909 134.31 589.974 C 140.177 587.512 146.803 587.596 152.606 590.207 C 163.799 595.243 168.326 607.496 163.182 618.551 C 160.993 623.257 155.582 625.448 152.95 629.088 L 150.404 629.917 C 138.208 626.753 136.617 633.131 122.522 618.67 L 121.071 616.417 z"></path><path transform="translate(0,0)" fill="rgb(14,16,21)" d="M 44.4369 127.998 C 52.046 123.175 57.0827 120.193 66.6703 122.422 C 72.1242 123.699 76.8396 127.107 79.7641 131.884 C 84.667 139.97 82.9038 153.372 75.3195 159.195 L 73.8238 160.281 C 70.4358 161.901 67.1142 163.724 63.4858 164.559 L 60.4114 163.912 C 51.1355 161.931 49.8983 160.83 42.4865 154.693 L 41.9203 152.148 C 38.7281 142.443 39.7747 138.379 43.6663 129.314 L 44.4369 127.998 z"></path><path transform="translate(0,0)" fill="rgb(14,16,21)" d="M 1019.9 140.522 C 1029.1 128.416 1039.98 118.233 1056.47 131.579 C 1075 146.57 1043.88 179.875 1027.14 159.321 C 1022.76 154.529 1021.63 149.559 1020.81 143.215 L 1019.9 140.522 z"></path><path transform="translate(0,0)" fill="rgb(14,16,21)" d="M 395.2 182.854 L 398.733 183.826 C 404.429 194.687 409.98 205.623 415.386 216.631 C 427.004 215.053 439.142 218.489 440.507 232.19 C 441.032 237.51 439.294 242.805 435.72 246.78 C 432.191 250.791 427.14 253.136 421.798 253.241 C 413.207 253.359 410.54 248.171 404.77 245.718 L 403.604 243.084 C 403.892 241.752 402.379 231.821 403.749 227.786 C 405.729 221.953 408.06 220.762 412.883 217.581 C 406.932 206.253 400.487 194.447 395.2 182.854 z"></path><path transform="translate(0,0)" fill="rgb(14,16,21)" d="M 842.383 115.945 C 863.145 105.758 864.055 115.621 874.542 128.681 C 874.645 128.809 882.096 129.46 883.204 129.539 L 876.978 130.467 L 876.434 131.616 L 873.144 132.279 C 870.47 138.411 867.734 144.724 861.069 147.715 C 855.311 150.299 846.624 146.53 842.417 147.087 L 841.445 145.202 C 834.7 136.748 833.038 126.243 840.531 117.608 L 842.383 115.945 z"></path><path transform="translate(0,0)" fill="rgb(1,1,1)" fill-opacity="0.972549" d="M 1511.32 322.886 C 1528.68 344.321 1547.86 366.771 1564.71 388.222 L 1563.82 391.107 C 1556.08 382.695 1549.62 374.167 1542.14 365.808 C 1530.87 374.117 1508.81 385.474 1496.02 392.433 L 1444.55 421.082 L 1401.56 444.583 C 1395.48 447.917 1382.84 455.235 1376.65 457.772 L 1373.78 456.734 C 1373.66 456.883 1534.82 366.406 1541.18 364.474 C 1531.37 352.155 1521.23 338.974 1510.95 327.127 L 1511.32 322.886 z"></path><path transform="translate(0,0)" fill="rgb(1,1,1)" d="M 60.4114 163.912 L 63.4858 164.559 C 44.8628 240.406 29.7987 317.629 11.3884 393.603 C 9.49249 401.427 2.5473 428.907 2.69333 434.989 L 3.83667 436.159 L 2.91998 437.378 L 0 437.222 L 0 429.477 C 6.09546 405.678 11.2046 380.551 16.7475 356.515 L 60.4114 163.912 z"></path><path transform="translate(0,0)" fill="rgb(1,1,1)" d="M 1489.26 0 L 1500.35 0 C 1486.04 4.89731 1468.44 8.77876 1453.51 12.9881 L 1351.15 41.9323 L 1272.53 63.8849 C 1263.45 66.3552 1244 72.1721 1236.05 73.3331 L 1235.4 70.9686 C 1243.12 68.0689 1257.99 64.4955 1266.28 62.2425 L 1321.51 47.0349 L 1489.26 0 z"></path><path transform="translate(0,0)" fill="rgb(14,16,21)" d="M 1139.76 1305.37 C 1100.46 1317.43 1110.28 1266.35 1139.84 1281.12 C 1147.54 1284.97 1144.66 1297.88 1141.19 1304.57 L 1139.76 1305.37 z"></path><path transform="translate(0,0)" fill="rgb(14,16,21)" d="M 1848 243.139 C 1857.31 238.7 1862.95 237.733 1871.54 244.953 L 1873.37 248.001 C 1875.49 261.24 1871.34 268.37 1857.31 269.315 C 1855.12 269.936 1855.77 269.314 1854.55 270.706 C 1853.86 268.067 1846.76 262.762 1843.39 257.308 L 1842.27 255.161 L 1846.11 245.044 L 1848 243.139 z"></path><path transform="translate(0,0)" fill="rgb(14,16,21)" d="M 1564.71 388.222 C 1575.25 400.384 1585.65 412.675 1595.88 425.092 C 1602.76 433.405 1615.29 449.686 1623.11 455.823 C 1634.24 454.639 1642.89 449.181 1643.92 468.058 L 1644.49 470.774 C 1640.38 473.648 1637.08 479.195 1630.45 478.432 C 1616.55 476.833 1622.02 461.994 1620.68 460.139 C 1603.36 436.211 1582.38 414.331 1563.82 391.107 L 1564.71 388.222 z"></path><path transform="translate(0,0)" fill="rgb(1,1,1)" d="M 1854.55 270.706 C 1855.77 269.314 1855.12 269.936 1857.31 269.315 C 1856.99 290.15 1858.94 316.167 1859.85 337.373 L 1864.71 457.883 C 1865.09 467.691 1867.75 510.274 1866.67 517.837 L 1864.02 518.438 C 1864.13 501.826 1862.79 481.063 1862.16 464.104 L 1857.59 349.998 C 1856.41 324.02 1854.56 296.586 1854.55 270.706 z"></path><path transform="translate(0,0)" fill="rgb(1,1,1)" fill-opacity="0.952941" d="M 21.0935 660.709 L 141.706 777.984 C 153.563 789.412 165.482 800.776 177.461 812.075 C 183.242 817.553 194.964 828.243 199.715 834.135 L 197.887 835.595 C 186.051 823.258 169.178 808.276 156.501 796.125 C 124.397 765.826 92.6218 735.181 61.1805 704.196 C 47.7445 690.94 31.6648 676.436 19.5723 662.241 L 21.0935 660.709 z"></path><path transform="translate(0,0)" fill="rgb(1,1,1)" fill-opacity="0.976471" d="M 57.2467 1186.43 C 89.9702 1202.44 126.673 1223.72 159.629 1241.1 C 180.4 1251.98 201.075 1263.03 221.651 1274.27 C 227.417 1277.45 243.512 1286.07 248.077 1289.51 L 243.972 1290.31 C 190.025 1262.08 136.734 1230.93 82.3637 1203.28 C 72.3319 1198.18 61.739 1192.19 51.9937 1186.52 L 57.2467 1186.43 z"></path><path transform="translate(0,0)" fill="rgb(1,1,1)" d="M 1969.35 900.147 L 1971.37 899.183 C 1979.73 920.062 1987.2 942.176 1994.9 963.399 L 2027.45 1051.05 C 2033.88 1068.24 2040.73 1087.74 2048 1104.44 L 2048 1113.47 C 2030.26 1070.42 2011.83 1017.44 1995.61 973.492 L 1978.1 925.986 C 1975.56 918.972 1970.87 907.134 1969.35 900.147 z"></path><path transform="translate(0,0)" fill="rgb(1,1,1)" fill-opacity="0.984314" d="M 1851.29 1073.97 C 1896.77 1093.99 1942.43 1113.59 1988.27 1132.77 C 1997.21 1136.52 2041.86 1154.07 2048 1157.97 L 2048 1161.62 L 2045.48 1160.36 C 2042.37 1157.64 2011.32 1145.95 2004.49 1142.94 C 1954.23 1120.78 1901.74 1100.55 1851.95 1077.55 C 1852.38 1076.38 1851.77 1075.48 1851.29 1073.97 z"></path><path transform="translate(0,0)" fill="rgb(1,1,1)" d="M 1557.87 0.648663 C 1570.37 7.3358 1584.33 12.0487 1597.47 17.3906 C 1647.44 37.7097 1698.74 56.5253 1748.03 78.3366 L 1747.02 81.1072 C 1707.15 64.4116 1667.11 48.1341 1626.9 32.2772 C 1604.37 23.286 1577.78 13.644 1556.02 3.44028 C 1556.27 1.86501 1556.46 2.25224 1557.87 0.648663 z"></path><path transform="translate(0,0)" fill="rgb(1,1,1)" d="M 1643.92 468.058 C 1654.54 470.814 1669.17 476.495 1679.75 480.258 C 1701.43 488.07 1723.17 495.723 1744.96 503.215 C 1764.75 509.906 1784.59 516.469 1804.46 522.903 C 1812.99 525.688 1831.97 531.436 1839.17 535.146 L 1837.82 536.94 C 1797.5 524.656 1755.85 510.093 1715.98 496.245 C 1693.33 488.379 1666.4 479.552 1644.49 470.774 L 1643.92 468.058 z"></path><path transform="translate(0,0)" fill="rgb(14,16,21)" d="M 316.145 1337 C 334.328 1321.15 352.242 1341.05 335.597 1354.69 C 333.17 1356.67 329.071 1355.47 326.344 1354.88 C 316.263 1352.02 309.761 1358.9 302.694 1365 L 296.712 1365 C 301.596 1361.43 307.342 1358.35 311.845 1354.45 C 316.226 1350.64 315.24 1343.72 315.645 1338.69 L 316.145 1337 z"></path><path transform="translate(0,0)" fill="rgb(1,1,1)" d="M 150.404 629.917 L 152.95 629.088 C 170.741 686.349 186.184 744.928 203.984 802.267 C 205.879 808.37 208.847 816.703 210.119 822.828 L 208.478 825.956 C 203.606 813.368 199.141 797.364 195.529 784.237 C 181.378 732.812 163.71 681.538 150.404 629.917 z"></path><path transform="translate(0,0)" fill="rgb(14,16,21)" d="M 591.899 56.6145 C 588.915 44.7815 595.85 32.3906 607.667 40.5368 C 608.42 40.9513 609.516 41.6895 610.252 41.7879 C 620.613 64.7007 594.851 59.4146 594.893 59.3787 C 577.322 74.4776 561.797 94.602 545.448 111.432 L 542.594 110.115 C 557.943 94.9872 577.042 72.8622 591.899 56.6145 z"></path><path transform="translate(0,0)" fill="rgb(14,16,21)" d="M 1491.63 302.413 C 1486.03 306.08 1477.43 307.957 1473.42 302.54 C 1457.77 281.417 1499.61 269.748 1494.16 297.014 C 1493.11 302.297 1507.33 317.593 1511.32 322.886 L 1510.95 327.127 C 1504.47 318.925 1498.03 310.687 1491.63 302.413 z"></path><path transform="translate(0,0)" fill="rgb(1,1,1)" d="M 1871.54 244.953 C 1875.21 242.935 1886.77 238.679 1891.11 236.957 L 1928.54 221.935 L 2048 172.086 L 2048 175.472 L 1930.6 224.471 C 1923.63 227.31 1876.8 245.584 1873.37 248.001 L 1871.54 244.953 z"></path><path transform="translate(0,0)" fill="rgb(1,1,1)" fill-opacity="0.976471" d="M 241.625 328.153 C 292.687 303.311 353.797 270.488 403.604 243.084 L 404.77 245.718 C 377.348 263.093 336.244 281.488 306.82 298.008 C 295.381 304.43 251.175 327.79 242.343 330.957 L 241.625 328.153 z"></path><path transform="translate(0,0)" fill="rgb(1,1,1)" fill-opacity="0.960784" d="M 310.538 0 L 314.446 0 C 341.815 59.377 369.986 125.959 398.733 183.826 L 395.2 182.854 C 387.882 169.126 379.86 150.522 373.255 136.103 L 331.382 43.5328 C 328.427 37.0169 314.058 3.81102 311.045 0.752715 L 310.538 0 z"></path><path transform="translate(0,0)" fill="rgb(1,1,1)" fill-opacity="0.960784" d="M 73.8238 160.281 L 75.3195 159.195 C 100.451 191.94 124.578 224.906 150.167 257.454 L 181.338 296.946 C 184.978 301.577 193.807 312.323 196.378 316.928 L 194.014 317.474 C 189.47 313.062 178.885 298.894 174.284 293.016 L 134.876 242.191 L 97.6377 193.669 C 91.8222 186.082 77.7437 168.341 73.8238 160.281 z"></path><path transform="translate(0,0)" fill="rgb(1,1,1)" fill-opacity="0.94902" d="M 1945.7 894.74 L 1946.2 896.33 C 1943.43 901.866 1935.04 912.189 1930.81 917.802 L 1904.27 953.345 L 1858.12 1015.51 C 1851.94 1023.79 1840.65 1039.76 1834.2 1046.9 L 1832.06 1045.97 C 1834.61 1040.02 1942.11 897.703 1945.7 894.74 z"></path><path transform="translate(0,0)" fill="rgb(14,16,21)" d="M 0 640.622 C 8.37725 637.96 15.9638 637.392 20.883 646.242 L 23.1894 648.804 C 23.7929 653.648 23.3131 656.282 21.0935 660.709 L 19.5723 662.241 C 12.0292 667.766 9.13909 667.919 0 665.62 L 0 640.622 z"></path><path transform="translate(0,0)" fill="rgb(1,1,1)" fill-opacity="0.976471" d="M 183.999 350.028 L 186.16 353.241 C 165.417 363.104 141.885 376.449 121.46 387.434 L 33.1745 434.89 L 27.6428 434.56 C 78.43 406.014 132.573 378.066 183.999 350.028 z"></path><path transform="translate(0,0)" fill="rgb(1,1,1)" fill-opacity="0.960784" d="M 1879.69 562.742 L 1881.21 560.294 C 1915.45 578.58 1949.88 596.529 1984.47 614.139 C 1994.87 619.47 2027.08 635.023 2035.02 641.592 C 2034.57 642.413 2034.24 643.251 2033.61 643.819 C 2024.97 637.543 2001.09 626.429 1990.62 620.703 C 1954.74 601.076 1914.82 583.195 1879.69 562.742 z"></path><path transform="translate(0,0)" fill="rgb(1,1,1)" d="M 1683.06 315.642 C 1736.38 296.112 1788.84 274.472 1842.27 255.161 L 1843.39 257.308 C 1831.99 262.485 1818.92 267.207 1807.09 271.528 C 1767.24 286.08 1726.61 304.263 1686.46 317.524 L 1683.06 315.642 z"></path><path transform="translate(0,0)" fill="rgb(14,16,21)" d="M 2048 430.152 L 2048 470.781 L 2046.64 470.217 C 2039.63 467.27 2035.23 464.678 2032.26 457.003 C 2030.38 452.251 2030.56 446.936 2032.73 442.314 C 2035.92 435.629 2041.4 432.518 2048 430.152 z"></path><path transform="translate(0,0)" fill="rgb(14,16,21)" d="M 1686.46 317.524 C 1680.54 319.691 1684.64 331.271 1675.11 333.124 C 1649.49 338.1 1657.22 293.778 1682.04 314.776 L 1683.06 315.642 L 1686.46 317.524 z"></path><path transform="translate(0,0)" fill="rgb(1,1,1)" fill-opacity="0.956863" d="M 841.445 145.202 L 842.417 147.087 C 837.126 155.947 830.716 164.489 824.724 172.91 C 800.123 207.483 774.543 241.812 750.806 276.97 L 746.996 276.478 C 768.701 246.821 789.404 216.401 810.996 186.667 C 820.924 172.996 830.776 158.19 841.445 145.202 z"></path><path transform="translate(0,0)" fill="rgb(1,1,1)" fill-opacity="0.984314" d="M 759.386 312.981 L 763.039 312.74 C 774.772 316.504 797.579 327.841 810.278 333.386 L 868.38 358.573 C 875.393 361.602 894.927 369.255 899.841 373.176 L 898.328 375.372 C 866.701 360.125 831.504 346.881 799.569 332.084 C 790.442 327.855 767.075 318.369 759.386 312.981 z"></path><path transform="translate(0,0)" fill="rgb(14,16,21)" d="M 1953.2 1251.57 L 1956.01 1252.33 C 1964.83 1259.88 1964.13 1273.12 1951.07 1275.22 C 1939.18 1277.13 1934.01 1264.46 1940.63 1255.65 C 1943.42 1251.94 1948.77 1251.72 1953.2 1251.57 z"></path><path transform="translate(0,0)" fill="rgb(1,1,1)" fill-opacity="0.952941" d="M 1730.39 145.558 C 1737.52 149.311 1757.88 167.842 1765.34 174.229 C 1783.15 189.258 1801.04 204.19 1819.01 219.024 C 1827.47 226.055 1839.63 236.957 1848 243.139 L 1846.11 245.044 C 1806.29 213.908 1767.86 179.235 1728.91 147.114 L 1730.39 145.558 z"></path><path transform="translate(0,0)" fill="rgb(14,16,21)" d="M 2048 635.77 L 2048 666.374 C 2035.84 665.849 2038.72 658.195 2027.76 665.021 L 2025.52 662.475 C 2035.25 655.288 2027.78 652.618 2033.61 643.819 C 2034.24 643.251 2034.57 642.413 2035.02 641.592 C 2037.73 637.893 2043.73 636.836 2048 635.77 z"></path><path transform="translate(0,0)" fill="rgb(1,1,1)" d="M 883.204 129.539 C 914.782 133.102 947.496 133.985 979.214 136.864 C 991.243 137.956 1008.37 138.387 1019.9 140.522 L 1020.81 143.215 C 1007.58 141.803 993.946 141.773 980.816 140.205 C 946.648 136.125 910.258 136.731 876.434 131.616 L 876.978 130.467 L 883.204 129.539 z"></path><path transform="translate(0,0)" fill="rgb(1,1,1)" fill-opacity="0.960784" d="M 745.958 0 L 748.802 0 C 766.011 19.4633 783.696 44.3588 801.024 64.434 C 806.872 71.2093 839.306 110.244 842.383 115.945 L 840.531 117.608 C 833.824 107.691 817.219 88.6227 809.143 78.7822 C 787.63 52.887 766.565 26.6223 745.958 0 z"></path><path transform="translate(0,0)" fill="rgb(14,16,21)" d="M 1376.65 457.772 C 1372.54 460.544 1371.89 462.292 1372.17 467.459 C 1372.78 478.43 1358.03 481.187 1351.99 473.055 C 1346.4 465.532 1352.32 455.288 1361.51 455.88 C 1366.33 456.19 1368.83 458.974 1373.78 456.734 L 1376.65 457.772 z"></path><path transform="translate(0,0)" fill="rgb(14,16,21)" d="M 1744.63 981.365 C 1736.26 981.105 1726.53 979.68 1728.24 968.905 C 1730.74 953.098 1760.98 955.768 1747 980.717 L 1744.63 981.365 z"></path><path transform="translate(0,0)" fill="rgb(14,16,21)" d="M 248.077 1289.51 C 250.823 1289.83 257.5 1284.87 262.364 1287 C 270.777 1290.69 266.373 1300.51 267.534 1304.32 L 266.695 1306.35 C 262.541 1305.59 246.968 1317.54 247.165 1294.75 C 247.188 1292.05 245.976 1291.92 243.972 1290.31 L 248.077 1289.51 z"></path><path transform="translate(0,0)" fill="rgb(1,1,1)" fill-opacity="0.941176" d="M 2025.52 662.475 L 2027.76 665.021 L 1966.31 706.606 C 1955.34 714.024 1944.24 720.595 1934.04 728.997 L 1933 726.727 C 1939.05 719.225 2011.93 671.93 2025.52 662.475 z"></path><path transform="translate(0,0)" fill="rgb(14,16,21)" d="M 1748.03 78.3366 C 1752.02 77.3525 1758.91 76.3236 1762.55 78.6189 C 1764.19 79.6455 1765.32 81.3215 1765.65 83.2292 C 1766.78 89.5742 1759.89 99.1862 1753.92 98.8242 C 1744.77 98.2693 1744.37 87.3552 1747.02 81.1072 L 1748.03 78.3366 z"></path><path transform="translate(0,0)" fill="rgb(14,16,21)" d="M 899.841 373.176 C 903.864 373.456 907.288 368.848 913.726 371.662 C 923.645 375.998 917.971 390.165 909.432 391.756 C 907.382 392.139 905.266 391.633 903.61 390.366 C 899.517 387.27 898.942 383.618 898.568 378.975 C 898.473 377.775 898.393 376.574 898.328 375.372 L 899.841 373.176 z"></path><path transform="translate(0,0)" fill="rgb(14,16,21)" d="M 1934.04 728.997 C 1934.62 756.864 1909.75 741.846 1913.55 727.475 C 1918.73 721.775 1926.71 724.059 1933 726.727 L 1934.04 728.997 z"></path><path transform="translate(0,0)" fill="rgb(14,16,21)" d="M 214.948 67.1894 C 217.734 73.5954 215.259 79.8795 209.08 82.4693 C 193.875 88.842 188.931 54.0987 211.747 64.2177 L 212.878 66.5226 L 214.948 67.1894 z"></path><path transform="translate(0,0)" fill="rgb(1,1,1)" fill-opacity="0.964706" d="M 2043.22 1189.3 L 2044.82 1191.75 C 2031.53 1201.17 1961.95 1245.12 1956.01 1252.33 L 1953.2 1251.57 C 1960.25 1243.52 1986.91 1227.06 1997.47 1220.1 C 2012.82 1209.99 2028.07 1199.72 2043.22 1189.3 z"></path><path transform="translate(0,0)" fill="rgb(14,16,21)" d="M 27.6428 434.56 L 33.1745 434.89 L 12.054 445.192 C 11.9003 456.087 11.407 460.097 0 463.941 L 0 437.222 L 2.91998 437.378 L 3.83667 436.159 C 7.53541 437.651 8.61445 439.668 10.9627 442.816 C 15.9592 439.938 22.36 437.084 27.6428 434.56 z"></path><path transform="translate(0,0)" fill="rgb(1,1,1)" d="M 20.883 646.242 C 53.8796 636.641 88.304 625.462 121.071 616.417 L 122.522 618.67 C 100.168 626.678 75.8614 632.997 53.1148 640.073 C 44.2866 642.819 31.5082 645.656 23.1894 648.804 L 20.883 646.242 z"></path><path transform="translate(0,0)" fill="rgb(14,16,21)" d="M 526.076 128.825 L 529.201 129.431 L 526.912 132.768 C 527.068 141.075 523.731 156.492 512.431 148.265 C 498.049 137.794 511.824 130.016 523.617 130.627 L 524.359 130.672 L 526.076 128.825 z"></path><path transform="translate(0,0)" fill="rgb(1,1,1)" fill-opacity="0.964706" d="M 211.747 64.2177 C 239.532 47.0274 268.476 24.8718 296.899 7.11045 L 298.46 9.25505 C 289.626 15.2343 217.413 62.9511 214.948 67.1894 L 212.878 66.5226 L 211.747 64.2177 z"></path><path transform="translate(0,0)" fill="rgb(1,1,1)" d="M 0 1101.66 C 2.13044 1108.79 11.1574 1135.32 11.6649 1141.7 C 8.07476 1143.79 3.68092 1146.51 0 1148.24 L 0 1101.66 z"></path><path transform="translate(0,0)" fill="rgb(1,1,1)" fill-opacity="0.972549" d="M 1961.92 52.7706 C 1962.34 50.5952 1962.37 49.068 1963.81 47.4155 L 1964.79 49.2788 C 1970.7 55.9859 2020.37 82.1742 2031.3 88.2315 L 2028.78 90.2987 C 2009.06 81.3237 1982.23 63.4441 1961.92 52.7706 z"></path><path transform="translate(0,0)" fill="rgb(1,1,1)" fill-opacity="0.968627" d="M 1141.19 1304.57 C 1154.48 1319.03 1171.38 1349.11 1185.15 1365 L 1181.62 1365 C 1170.71 1347.71 1148.63 1323.22 1139.76 1305.37 L 1141.19 1304.57 z"></path><path transform="translate(0,0)" fill="rgb(14,16,21)" d="M 2045.48 1160.36 L 2048 1161.62 L 2048 1192.59 L 2044.82 1191.75 L 2043.22 1189.3 C 2038.59 1177.63 2038.05 1170.85 2045.48 1160.36 z"></path><path transform="translate(0,0)" fill="rgb(1,1,1)" fill-opacity="0.980392" d="M 1176.49 0 L 1179.27 0 C 1183.65 8.53945 1204.83 48.3486 1204.95 53.9249 C 1203.98 53.9134 1203.4 53.5718 1202.41 53.2217 C 1194.48 37.1296 1182.88 15.9879 1176.49 0 z"></path><path transform="translate(0,0)" fill="rgb(1,1,1)" d="M 1728.91 147.114 C 1724.34 150.215 1722.5 151.234 1717.88 147.847 C 1715.53 142.959 1717.17 138.019 1721.3 134.695 C 1726.31 133.776 1729.23 136.613 1729.87 141.586 L 1730.39 145.558 L 1728.91 147.114 z"></path><path transform="translate(0,0)" fill="rgb(1,1,1)" fill-opacity="0.980392" d="M 267.534 1304.32 C 274.882 1308.9 312.435 1332.83 316.145 1337 L 315.645 1338.69 C 306.448 1333.73 274.132 1312.72 266.695 1306.35 L 267.534 1304.32 z"></path><path transform="translate(0,0)" fill="rgb(1,1,1)" fill-opacity="0.933333" d="M 643.202 0 L 647.2 0 C 635.401 14.0602 622.519 28.0586 610.252 41.7879 C 609.516 41.6895 608.42 40.9513 607.667 40.5368 C 609.728 37.5868 617.907 28.9716 620.64 25.9435 C 628.341 17.4544 635.864 8.80464 643.202 1.13687e-13 z"></path><path transform="translate(0,0)" fill="rgb(1,1,1)" fill-opacity="0.960784" d="M 0 97.7993 C 6.81261 102.957 41.2792 124.667 44.4369 127.998 L 43.6663 129.314 C 40.0919 129.621 5.3854 105.338 0 101.788 L 0 97.7993 z"></path><path transform="translate(0,0)" fill="rgb(14,16,21)" d="M 1961.92 52.7706 C 1956.98 54.0765 1954.56 52.7764 1952.28 48.6731 C 1951.85 42.5988 1953.94 39.4258 1959.82 38.2686 C 1966 40.2879 1966.44 43.8629 1964.79 49.2788 L 1963.81 47.4155 C 1962.37 49.068 1962.34 50.5952 1961.92 52.7706 z"></path><path transform="translate(0,0)" fill="rgb(1,1,1)" fill-opacity="0.984314" d="M 0 172.759 C 13.7433 165.782 27.9226 158.505 41.9203 152.148 L 42.4865 154.693 C 34.8419 159.804 9.20118 171.778 0 176.264 L 0 172.759 z"></path><path transform="translate(0,0)" fill="rgb(1,1,1)" fill-opacity="0.933333" d="M 685.247 1331.29 L 687.332 1333.32 C 676.763 1343.42 663.543 1355 653.625 1365 L 650.291 1365 C 654.343 1359.42 678.332 1338.03 685.247 1331.29 z"></path><path transform="translate(0,0)" fill="rgb(1,1,1)" fill-opacity="0.960784" d="M 1747 980.717 C 1755.22 987.19 1768.13 1001.78 1776.11 1009.85 L 1775.82 1014.25 C 1766.58 1003.7 1752.8 991.867 1744.63 981.365 L 1747 980.717 z"></path><path transform="translate(0,0)" fill="rgb(1,1,1)" fill-opacity="0.988235" d="M 542.594 110.115 L 545.448 111.432 C 540.168 117.626 534.722 123.46 529.201 129.431 L 526.076 128.825 C 531.541 122.552 537.047 116.316 542.594 110.115 z"></path><path transform="translate(0,0)" fill="url(#Gradient2)" d="M 2031.3 88.2315 C 2037.18 91.1203 2042.31 93.9266 2048 97.1112 L 2048 100.426 C 2042.03 97.7038 2034.68 93.4726 2028.78 90.2987 L 2031.3 88.2315 z"></path><path transform="translate(0,0)" fill="url(#Gradient1)" d="M 306.665 0 L 310.538 0 L 311.045 0.752715 C 306.895 3.53794 302.523 6.3813 298.46 9.25505 L 296.899 7.11045 C 297.62 6.32444 305.283 0.984428 306.665 0 z"></path></svg>