<!-- App empty-state from empty-pulse-11. Fills: --pulse-empty-9. -->
<svg xmlns="http://www.w3.org/2000/svg" viewBox="0 540 4096 1801" preserveAspectRatio="xMidYMin slice"><path fill="var(--pulse-empty-9)" d="m4036.66 562.071 3.06 5.433c6.02-3.066 1.94-5.918 11.11-9.717 6.51-.767 4.19-1.05 9.79.013-8.73 4.778-22.3-.39-11.59 18.148 4.29 1.898 5.58 2.555 7.57 5.438-4.98 1.558-9.62 2.978-12.54 5.838-18.16 17.755-35.09 36.634-52.46 54.637-24.7 25.503-50.35 50.7-76.95 75.571-16.56 15.786-33.76 32.956-51.99 48.029l-17.51 4.266c-38.94 28.179-71.79 72.939-113.09 102.129-32.5-5.413-69.94-9.498-99.7-17.971-16.61-4.728 21.41-31.082 28.1-36.214 33.22-25.456 63.19-52.595 97.7-77.454 27.18 4.12 60.47 6.782 87.69 11.198 6 .974 6.57 5.354 7.94 8.516l2.45.384c10.31-4.702 31.17-26.435 39.73-34.327 31.57-29.111 60.92-58.521 90.4-88.272 18.63-18.792 36.56-40.912 54.63-58.603-3.31-6.596-6.35-10.389-4.34-17.042m-399.88 286.651c19.52 5.901 62.43 11.03 85.02 15.168 5.62-.166 9.05-.007 13.09-3.474 20.58-17.665 98.37-86.771 105.51-101.296-5.89-6.341-64.19-10.644-78.32-12.49-19.58 12.803-116.68 89.663-125.3 102.092"/><path fill="var(--pulse-empty-9)" d="M4036.66 562.071c4.4-4.195 7.94-8.867 16.7-9.858 4.85-.522 9.85.295 13.49 2.203 16.1 8.3 5.81 21.058-10.25 26.97-1.99-2.883-3.28-3.54-7.57-5.438-10.71-18.538 2.86-13.37 11.59-18.148-5.6-1.063-3.28-.78-9.79-.013-9.17 3.799-5.09 6.651-11.11 9.717z"/><path fill="var(--pulse-empty-9)" d="M3289.71 1105.57c41.01 11.64 94.33 26.29 133.53 38.98 7.14 4.25 51.05 16.53 60.94 18.69 9.77.24 43.47-23.12 59.32-9.01 19.09 17-17.04 40.28-51.58 22.93-41.36 24.18-79.65 43.79-123.63 66.4 21.88 4.97 45.84 10.75 68.59 13.84l156.6-88.69c35.45 6.9 88.47 15.78 120.25 26.62 3.08 1.05 7.76 5.75 9.58 7.59 27.67 4.2 79.02 10.91 104.06 16.4l17.74-10.56c24.92 4.48 193.8 33 209.7 31.59 3.25-2.34 3.73-2.55 6.3-5.12 1.94 4.77 2.62 5.4 1.15 10.07l-2.93.1 2.19.64c-10.21 14.44-34.86 40.04-48.99 54.46-28 28.58-58.55 61.91-89.49 89.26a6576 6576 0 0 0 109.12 24.76c18.36 4.06 46.69 9.76 63.84 14.54v5.47l-202.65-45.4c-35.1-8.05-84.71-20.86-118.99-27.34-20.96 11.94-40.71 24.91-60.07 37.79-61.44 40.88-124.56 81.11-184.45 122.73-5.86 4.07-11.73 9.73-14.32 14.73 6.4 8.39 86.81 36.74 103.29 42.91 57.43 21.61 115.32 42.81 173.65 63.62 29.67 10.7 72.23 29.13 102.65 36.44 5.97 1.43 12.34 1.63 18.21-.08 17.62-5.13 129.5-122.65 153.09-141.59 5.29 1.89 4.06.89 6.98 3.64-24.76 23.85-52.99 49.32-76.71 73.09-6.03 4.44-9.43 7.63-14.54 12.36 3.03-1.25 17.67-7.12 19.44-8.19 48.24-12.35 31.78 13.53 38.17 16.9 25.98 13.66 32.89 17.07 16.75 38.45-17.69 21.15-48.13 43.7-81.92 60.53 56.02 3.88 71.47-1.51 121.42-3.12v4.88c-41.21 3.69-79.19 8.19-120.73 3.34-6.4 4.48-7.93 6.06-16.24 9.1-12.52-1.33-17.37-1.65-28.98 1.35l-2.97-1.75c4-4.61 4.83-3.73 3.86-7.94-12.05-5.89-205.96-61.51-222.07-64.51-19.03 6.54-78.79 36.71-97.9 45.64-23.6 11.03-104.86 45.04-118.26 56.64.41 4.27 6.01 8.27 11.74 10.8 68.45 30.19 139.59 58.54 209.12 87.95 5.7 2.41 14.39 4.66 21.08 6 13.12-1.04 78.92-56.74 95.33-62.79 3.66-1.52 7.27-3.07 10.84-4.66l2.94 1.7c-12.72 9.84-92.02 69.91-108.23 72.09-12.96 1.74-214.06-86.03-240.99-97.31-13.35 11.78-40.65 22.85-51.47 32.92-10.38 9.67 14.44 17.53-17.04 30.42-4.32 1.01-6.5 1.76-11.09 2.11-19.91-3.17-21.29-3.88-32.24-14.55-24.91 8.57-63.2 24.18-87.22 34.36 35.01 30.24 83.7 59.46 122.99 88.24 20.03 14.67 37.77 27.48 6.9 43.42-19.25 9.74-40.4 17.7-61.67 25.92-41.65 15.79-83.49 31.42-125.53 46.87 3.52 3.62 7.54 8.77 13.13 11.07 21.61-1.18 30.8-5.27 49.23 3.62 23.47 11.33 25.67 27.64 5.34 40.28-1.27.79-2.56 1.57-3.86 2.34 78.24 52.1 162.45 101.16 252.1 146.86 32.49 16.8 82.39 38.55 110.92 54.59h-14.94c-22.77-8.42-52.16-25.19-73.66-35.69-103.2-50.43-191.65-105.32-282.35-162.83-25.06 3.7-31.82 2.4-54.19-3.77 1.23.34-95.25 29.96-100.3 31.31-109.45 29.17-225.86 53.02-345.44 64.54 36.6 36.74 76.78 72.27 120.33 106.44h-11.69c-45.25-32.74-80.11-70.94-120.78-105.23-70.46 3.75-142.4 12.98-216.95 16.07-9.92-.52-26.02.27-32.8-2.27 44.13-2.99 88.19-6.25 132.19-9.78 35.59-2.98 76.78-7.19 112.11-9.25-48.03-48.8-97.19-97.41-135.13-149.12-12.84-17.51-24.66-35.25-36.27-53.03-46.9-7.07-50-20.1-14.72-37.46l-1.19-.89c-48.88 4.33-150.07 23.26-192.9 21.93-2.52-2.76-4.65-4.46-4.89-7.57 22.27 3.85 27.52 4.04 49.23-1.06 4.37-1.43 184.85-23.68 200.83-25.44 18.33-.32 28.68-3.92 44.21-8.8 1.83 2.55.17 3.28-1.68 6.71-20.7 5.71-57.45 9.92-81.11 12.37 33.03 9.82 45.78 22.8 11.57 37.93 4.96 12.23 19.29 31.31 28.04 43.09 32.11 42.99 68.7 84.84 109.56 125.33 5.48 5.41 32.2 29.05 31.31 32.98l-3.68 1.14-.68 2.56c4.07 3.01 6.23 4.31 10.96 7.01 1.49-2.47 2.26-3.71 3.37-6.25-5.86-1.38-6.57-1.4-9.97-4.46 13.39 2.62 48.44-2.36 63.76-4.34 114.1-14.76 226.54-38.48 329.32-70.47 17.16-5.34 37.8-11.63 52.96-18.41 2.3-15.82-16.66-19.87 12.53-36.67l2.1-1.2c-4.66-4.76-8.64-7.8-14.2-12.18-20.93 9.16-61.76 22.24-85.59 30.79-46.08 16-91.31 33.39-139.21 47.55-15.83 4.69-38.86 10.36-51.17-.17-19.58-16.74-33.42-36.56-47.9-54.93l-46.97-58.78-95.46-119.4c-19.11-23.72-63.56-71.36-67.97-96.49-1.76-10.04 92.39-31.67 112.52-36.2l4.25-.28 4.04-3.23c13.58-1.72 56.48-14.57 71.2-18.39 59.52-15.45 124.62-36.7 184.69-50.18 28.06 10.21 82.52 53.31 106.49 70.62 35.97 26.39 72.65 52.48 110.03 78.23 30.22-11.75 61.31-24.7 92.5-35.4 2.19-3.22 5.81-7.11 8.57-10.28 17.47-7.06 19.07-4.69 37.42-5.36 14.1-.51 48.65-24.55 58.43-31.16l-3.67-16.32c12.92-8.39 40.43-17.91 48.56-25.07-8.4-2.93-17.55-1.43-24.41-3.98-17-6.31-4.76-17.73-13.35-23.16-27.71 3.02-143.66 73.94-182.32 76.39-11.23.71-69.63-40.97-80.31-48.07a4466 4466 0 0 1-117.22-79.34c-57.46 16.77-120.66 27.14-177.23 45.12-4.25 1.35-15.24-2.66-16.56-6.32-2.8-7.79-.23-10.71 6.31-17.13-29.32-22.12-70.17-51.71-87.92-76.82 33.29 15.63 63.08 62.06 105.01 74.72 12.79 3.86 14.59 8.51 20.44 9.62 26.27-2.29 117.79-25.88 143.69-33.96-15.2-9.8-75.2-44.28-74.82-56.84.26-8.42 56.79-26.88 71.18-31.97l89.99-31.65c39.54-13.82 83.68-31.29 123.34-43.64a483 483 0 0 1 16.23 7.36c88.81 41.74 174.47 88.53 263.17 130.71 57.1 27.14-97.08 62.27-94.07 78.26l4.32 1.88c29.26.44 35.5 3.04 33.24 19.56l2.65 1.27c27.71-3.22 134.68-59.1 164.36-72.29 17.54 2.81 70.02 18.96 88.06 24.41 47.68 14.4 91.89 27.31 140.97 40.27 16.05-9.45 19.59-9.11 41.36-5.86 19.82-10.34 95.49-59.92 75.71-78.49-23.24-21.82-41.27 15.67-66.73-17.51-23.14 1.41-42.42 44.35-68.58 53.42-5.86 2.04-12.24 2.56-18.91 1.71-17.41-2.19-332.59-119.59-366.55-133.37-7.97-3.24-18.49-7.33-23.3-12.23-4.44-4.53.24-10.77 4.32-14.87 11.37-11.46 30.03-21.84 45.07-31.77l83.05-54.51c9.15-5.98 29.13-17.87 32.85-24.57-6.04-4.56-55.3-15.47-69.81-20.07l-2.65-.85a4683 4683 0 0 1-119.58 67.65c-16.99 9.38-35.32 21.67-55.34 28.92-3.23 1.17-5.76 1.95-9.67 1.58-30.8-2.95-184.25-77.57-199.3-78.65-2.95-.22-8.48 2.57-11.04 3.55l-1.51-2.23 4.72-5.36c.96-1.51 1.03-2.28.39-3.86-.81-2-2.58-4.63-1.88-6.7 2.35-6.92 165.38-86.97 186.17-96.03l127.43 39.55c16.64 5.16 55.18 17.81 70.97 20.38l2.06-1.08c-13.52-22.33 17.74-25.81 47.61-18.97 18.93-8.11 63.22-32.9 79.57-43.06-9.22-4.08-12.27-4.52-13.16-11.26 2.93-4.6 9.37-7.35 15.74-10.86 2.4.78 2.58.6 5.45.89 13.2-5.03 20.66-11.91 33.11-17.83l2.14.87c-6.92 4.86-39.05 22.53-48.81 28.29 51.26 13.26 116.91 29.45 170.43 39.33 31.06-17.29 96.5-68.32 123.77-89.66-54.34-7.3-108.94-16.48-162.76-25.11-14.92 8.11-26.85 17.04-42.75 25.18l-1.22-1.01 5.65-3.5c8.02-4.9 10.58-5.3 12.04-11.65-12.53-5.76-82.6-13.77-105.67-18.26-25.64 14.21-156.45 95.25-174.39 99.09-11.34-1.27-101.6-27.47-106.56-32.53-21.3-21.73-26.75-14.17-72.47-26.03-32.18 14.71-66.01 28.18-97.91 43.39-10.91 5.2-15.92 15.46-28.15 24.03-24.74 17.32-83.85 47.33-122.88 51.13-2.09.21-19.08-4.64-21.8-5.41-38.51 13.47-128.91 44.07-171.1 52.08-16.56-5.92-24.65-11.86-36.99-20.48-11.37 3.04-29.27 7.37-38.68 11.47-3.89 7.05 9.61 5.15-5.98 13.57l.84 1.12c4.09.51 5.34.6 9.52.76 11.42 8.88 2.46 13.34 1.59 20.23l-.62 6.67-2.47.86-1.78-.4c-9.11-10.05-22.37-6.29-26.34-17.07 2.93-3.59.71-2.63 5.54-4.24 3.02 2.54 3.84 3.59 6.17 6.39 7.61 1.57 3.82 1.39 11.82.51l3.1-1.97c-3.54-8.19-18.09-7.42-30.04-9.1-52.07 16.36-151.14 43.43-206.69 55.47l1.72 1.67c13.93 13.24 42.2 18.42 25.86 32.7 19.75 25.45 42.72 52.12 60.9 77.41 7.66-1.06 34.29-5.11 38.46-2.86 18.1 9.75 40.47 36.62 54.95 48.33 18.48-9.2 28.83-16.33 38.19-29.45l1.94.04c.58 6.72-1.62 8.71-7.67 14.67l1.44.85c-10.46 7.96-16.37 11.26-28.79 18.26 14.6 15.61 72.45 66.47 68.1 81-12.51 10.58-58.48 15.58-75.85 23.46.01.89.03 1.79.04 2.69 19.33 14.15 29.99.57 17.96 27.56-.39 2.74-.46 5.27-.13 8.02h-1.35c-7.08-7.99-25.29-8.57-30.38-15.7-.66-7.83 7.81-16.29 13.81-23.34-21.58 4.32-153.09 32.74-162.16 29.12-19.22-7.65-58-70.73-71.49-87.53-7.52-9.36-36.32-47.84-30.15-56.23 12.72-6.97 49.24-13.14 67.27-16.51 8.54.49 35.62-5.41 42.63-8.91 13.94-3.64 40.71-8.63 55.99-11.65l-41.4-51.07c-7.1-8.99-14.93-23.24-27.21-29.46-9.86-5-7.32-12.76-6.11-19.6-6.96-4.61-14.03-9.17-20.59-13.96-15.76 2.85-38.81 9.63-53.79 14.27 6.26 8.29 40.02 48.2 33.78 54.83-11.8 12.54-192.47 32.83-224.85 37.79l.65 1.24c2.1 3.92 12.41 15.59 12.69 18.24 1.7 16.23-10.35 20.44 9.95 35.07.93.66-18.27 31.63 5.97 34.84-7.49 1.97-4.68 1.45-13.69.94 1.7-3.64-8.4-20.5-10.86-25.25-6.52-2.8-9.44-3.85-11.28-8.23.92-4.75 5.64-7.44 10.74-11.42-2.65-12.79-10.83-13.76-13.91-22.4-2.88-8.09 6.51-10.66 1.22-23.23-11.32.52-21.6 1.55-32.77 2.59 5.33-1 3.39-.06 6-2.89l4.56-.29c-3.04-1.46-2.4-.74-8.62-.56l-2.77-1.57c22.92-3.54 51.57-4.85 75.04-7.72 59.6-7.29 130.45-15.38 185.75-29.76-10.18-17.28-53.28-76.55-68.27-93.03-64.56 11.39-134.27 22.85-200.97 29.24-14.7-.29-48.43 2.76-62.54 5-2.85 2.01-5.39 3.78-8.41 5.72-2.25-1.33-1.9-4.09-2.35-6.46 17.22-5.07 83.56-10.69 107.68-13.61 34.47-4.25 68.67-9.2 102.52-14.86 17.29-2.92 51.69-11.03 67.41-9.07 11.65 5.41 25.26 29.14 33.87 39.14 14.73-4.09 38-11.13 53.35-12.7-9.48-8.29-41.24-33.54-39.58-42.09 21.24-9.83 84.1-24.06 111.56-31.43 38.89-10.49 76.99-21.89 114.23-34.18 17.9 11.64 37.2 24.66 57.24 34.85 11.81-2.97 27.93-6.62 38.12-10.72 4.92-7.75-37.1-15.4-42.61-29.59 1.67-3.23 2.94-5.03 8.39-6.89 75.63-25.93 150.62-52.66 225.02-79.67 10.38 3.94 20.85 7.82 31.39 11.64 14.26-5.54 38.19-14.29 49.76-20.66-18.11-8.13-71.28-28.16-76.77-38.59.68-4.19 4.02-6.64 9.46-9.41 36.38-18.56 75.89-35.46 112.64-53.82 33.79-16.88 65.71-38.76 99.26-55.11m-246.95 1037.41c57.43-19.38 381.44-128.57 390.04-149.88 1.76-4.34-3.6-9.21-7.6-12.65-32.2-27.65-76.78-55.37-113.33-81.77-70.86-51.17-140.48-103.56-213.75-153.58-5.18-3.54-19.08-14.32-27.97-13.83-1.16.07-2.25.33-3.38.49-18.96 3.43-52.64 13.46-71.85 18.82l-121.41 33.88c-26.91 7.42-151.75 39.15-167.32 46.71-3.78 6.05-.01 13.22 4.47 18.99 73.23 94.05 149.65 187.29 224.62 280.91 7.13 8.91 18.8 23.43 31.77 30.42 8.38 3.24 32.16-3.39 41.02-6.37 11.68-3.93 23.25-7.98 34.69-12.14m280.35-352.11c37.2-16.24 273.63-121.93 275.82-134.04.62-3.43.46-5.84-3.62-8.57-13.32-8.91-31.33-16.68-46.93-24.28l-73.24-35.71c-16.4-8.06-152.07-78.07-162.37-78.57-33.09 11.76-263.45 91.58-272.16 100.93 3.58 5.72 9.15 10.68 15.67 15.44 16.91 12.33 36.75 23.41 54.5 35.37 22.65 15.26 182.16 126.47 195.79 130.34 4.8 1.36 7.48 1.5 12.5.42 1.4-.3 2.79-.86 4.04-1.33m-82.12-497.92 23.88-10.3c85.9-37.04 146.8-65.88 223.45-110.19-19.32-8.41-181.7-57.94-200.64-59.33-30.71 19.04-64.49 36.7-97.03 54.21-16.34 8.79-106.78 48.32-110.69 55.04 5.07 12.13 135.31 62.64 161.03 70.57m-711.26 338.98c14.57 23.51 33.52 48.67 50.14 71.94 13.28 18.59 31.17 45.55 47.92 62.54 9.06-1.52 18.13-3.02 27.21-4.49 53.67-11.04 155.51-29.95 202.93-44.83-6.24-15.17-113.57-125.56-127.57-128.31-44.96 7.81-166.27 28.75-200.63 43.15m1078.58-240.26 47.56 13.04c9.47 2.38 18.54 5.11 27.66 7.39 28.78-19.32 58.32-38.26 88.61-56.81 37.94 7.71 105.37 23.31 142.89 32.84 20.61-17.6 46.6-44.04 64.86-62.89 20.38-21.04 57.18-56.59 72.24-78.28-9.07-.82-25.99-2.6-34.46-2.84a2897 2897 0 0 0-75.94 56.37c-14.28 10.75-34.85 27.02-51.61 36.08-32.17-3.61-120.85-26.5-157.47-33.81-28.33 15.69-57.55 32.33-86.91 47.26-1.57 16.29-9.42 12.78-24.9 21.99-3.83 2.28-5.08 12.94-12.53 19.66m-215.61-79.6c-50.62 23.81-98.85 49.7-148.91 73.95-8.58 4.16-18.17 9.33-24.62 14.58.39 4.36 10.25 8.95 15.65 11.78 19.53 10.22 165.21 74.53 183.5 75.26 3.25.13 7.26-1.97 9.94-2.97 22.08-12.1 177.35-94.79 178.57-105.41.2-1.69-3.25-3.38-5.34-4.42-11.14-5.52-197.31-61.41-208.79-62.77m-472.3 94.57c28.24-7.56 56.09-15.58 83.53-24.05 6.65-2.05 46.89-15.59 51.72-16.18 11.21-1.24 31.47-9.25 44.25-12.92l-.51 1.7c2.11 1.26 4.58 2.58 6.77 3.79 28.53 5.15 101.92-32.76 120.46-44.93 7.43-4.88 16.31-11.36 23.19-16.63-36.63-2.66-64.58-18.84-96.18-31.76-16.32 7.02-33.39 13.96-49.88 20.92 11.04 4.01 24.78 8.3 36.27 12.1-2.84 1.08-5.46 1.82-7.55 3.21-23.45-7.32-46.23-15.32-68.27-23.95-64.78 23.05-128.49 46.71-194.95 68.22-10.91 3.52-22.74 7.7-32 12.53 15.86 8.26 31.13 16.12 46 24.99 12.16 7.25 24.47 16.31 37.15 22.96m1037.17 337.57c5.09-2.97 7.76-3.96 9.45-8-2.74-5-5.92-4.67-14.6-4.8-6.25 3.22-6.96 3.34-9.32 7.76 1.87 3.76.06 2.24 5.97 4.58zm-676.72 395.08c12.16-3.18 21.35-5.92 26.14-13.65 3.68-5.85 3-12.3-1.87-17.85-8.6-9.92-24.49-13.06-42.66-11.24-13.01 4.83-23.96 8.56-26.9 17.93-5.56 17.65 18.22 25.59 45.29 24.81m734.76-498c10.88-3.32 18.52-7.54 15.87-15.24-6.44-4.48-8.88-3.83-18.69-3.48-23.67 3.66-21.25 17.42 2.82 18.72m-578.85-374.77c16.56 7.38 85.42 31.14 104.3 32.71l5.84-1.39c53.06-30.37 112.79-69.27 164.54-97.27-21.66-6.1-92.04-22.66-115.48-24.87-37.76 21.98-77.32 42.42-115.06 64.3-11.73 6.81-34.24 19.26-44.14 26.52m77.71-88.41c15.08-1.81 28.42-8.26 24.43-17.79-5.19-3.45-7.76-4.3-15.99-4.62-11.8 3.22-20.11 7.91-29.95 12.82 7.28 3.7 12.89 6.99 21.51 9.59m-4.92 550.07c-6.21 2.69-7.46 7.75-2.8 11.33 4.67 3.57 13.5 4.33 19.8 1.7 6.37-2.67 7.72-7.8 3-11.42s-13.7-4.34-20-1.61m-99.48 99.79c-7.18 1.52-13.13 3.08-16.46 7.47-2.08 2.78-1.92 5.93.41 8.64 4.19 4.97 12.99 7.23 22.11 7.74 23.28-8.17 28.04-22.07-6.06-23.85m-788.58-360.9c24.95-5.54 196.02-49.65 213.18-58.17.08-4.02-55.01-36.62-59.86-37.42-41.6 13.36-84.28 25.6-127.89 36.68-25.42 6.61-64.54 15.69-87.9 23.08 8.27 8.02 34.98 36.41 46.66 38.62 7.62-.94 8.67-1.08 15.81-2.79m-26.99 529.16c-7.8 1.39-13.67 5.09-15.33 9.66-1.66 4.58 1.15 9.31 7.34 12.36s14.79 3.94 22.46 2.33c11.47-2.41 17.48-9.6 13.55-16.21s-16.36-10.23-28.02-8.14M3614 1345.51c-11.3 5.03-17.12 10.37-13.44 18.89 5.05 3.33 1.95 2.26 9.82 3.12l7.34-1.41c10.52-4.57 25.2-11.15 14.47-19.1-6.82-2.09-10.47-1.73-18.19-1.5"/><path fill="var(--pulse-empty-9)" d="M3181.93 1318.69c3.86 3.34 2.32 3.23 1.69 8.32-9.74 5.91-70.64 25.69-84.23 28.18l.51-1.7c-12.78 3.67-33.04 11.68-44.25 12.92 26.66-12.74 116.63-34.41 126.28-47.72"/><path fill="var(--pulse-empty-9)" d="M3140.02 1298.68c16.55 4.68 68.7 15.27 43.6 28.33.63-5.09 2.17-4.98-1.69-8.32-15.82-6.15-32.79-11.41-49.46-16.8 2.09-1.39 4.71-2.13 7.55-3.21"/><path fill="var(--pulse-empty-9)" d="M3952.42 1731.41c8.68.13 11.86-.2 14.6 4.8-1.69 4.04-4.36 5.03-9.45 8l-8.5-.46c-5.91-2.34-4.1-.82-5.97-4.58 2.36-4.42 3.07-4.54 9.32-7.76"/><path fill="var(--pulse-empty-9)" d="M2574.95 1551.84c26.69-.81 21.86 8.69 12.78 17.97.45 4.88.98 9.75 1.57 14.62-7.46-4.09-19.02-19.83-21.82-25.85 1.83-4.54.94-3 7.47-6.74"/><path fill="var(--pulse-empty-9)" d="M1118.7 1330.82c60.26 21.28 112.24 50.95 177.3 68.86 12.83 3.54 47.48 14.51 52.66 22.02-1.21 11.52-37.55 33.5-51.5 43.12 13.92 5.8 27.99 11.45 40.96 17.93 25.45-21.01 51.09-41.94 76.93-62.8 26.22 6.23 52.7 12.1 79.43 17.59 23.26 4.81 87.81 16.36 104.07 23.44 3.38 9.39-42.85 58.04-52.87 70.95 16.29 7.61 28.72 10.47 48.03 15.28l.96-1.09c16.23-18.94 44.87-72.07 64.68-85.2 14.82-1.35 56.31 3.25 70.81 5.87 49.93 9.02 114.02 7.77 160.51 18.57 13.26 3.08-17.1 86.07-20.53 96.25 29.95.76 59.52 2.27 89.46 2.86.62-14.68-1.31-41.18 10.86-53.48-.2 3.67-1.43 5.36 1.22 8.07 1 13.02-10.36 48.3 1.53 58.56 26.08 7.31 188.02-6.09 215.5-.2-7.11 1.38-11.55 1.32-19.1 1.48 2.38 2.13 8.77 3.38 13.5 4.76l2.51-.32c3.01-.38 1.81-.35 4-.3-4.7 4.69 4.91 28.27 7.01 34.93l-4.91-1.35-4.3 1.34c-2.62-11.76-5.99-23.46-10.09-35.08-26.09-1.64-58.77.95-85.33 1.3-30.93.4-61.57.15-92.46.63l-1.45-.49c-5.43 1.45-22.85.24-28.18-1.87-7.49-2.97-2.7-7.5-9.88-10.93-12.83-2.12-74.68-4.24-90.78-4.56-4.82 14.74-22.54 86.19-36.91 92.98-10.82 5.11-83.85-2.09-98.3-4.83-.46-.08-.85-.25-1.28-.38-10.57-2.92-99.24-14.67-109.38-13.14-18.51-2.05-76.54-12.03-86.26-21.69-2.67-13.39 43.44-70.49 55.59-87.2-16.92-4.03-41.47-13.74-54.75-16.27-45.39-8.62-104.06-22.04-149.97-27.55l-2.58 1.1c-3.43 5.14 2.89 9.47 3.1 13.19.6 11.05-19.75 7.74-26.43 16.94-4.27 5.88-12.08 13.04-17.11 17.42l-1.45 1.26c23.44 4.94 125.17 25.48 138.31 32.98-6.42.33-8.01-.28-14.23-1.54l-3.66-.76-1.4 1.31c-7.81-1.37-16.28-3.72-24.07-5.44-46.4-10.21-93.31-21.21-141-29.31-4.79 4.43-8.13 7.27-13.65 11.41.11-1.36 8.18-11.43 8.96-13.91.69-2.22 5.73-2.79 9.2-3.16 12.96 2.31 21.4 4.08 33.92 7.07 8.07-6.53 15.11-13.83 20.21-21.28 5.54-8.11-6.35-9.17-4.1-16.31 5.79-4.16 9.7-4.82 18.2-7.36-2.69 1.79-3.49 2.39-5.7 4.39 5.49 1.91 8.9 1.39 16.02 1.59 2.9-4.64-2.96-2.59-.71-6.99 2.67-5.23 6.27-2.89 8.37-9.41 10.77 1.41 34.64 6.36 46.24 8.58l100.82 19.72c15.12-11.65 48.71-54.27 58.45-68.3-50.16-8.49-126.16-23.85-173.93-35.44-26.04 17.63-53.22 41.87-76.19 61.39l-2.51-2.69-3-.28c-1.96 4.23-1.49 5.7-1.21 9.99-7.11-13.62-25.07-18.2-46.05-26.1-12.62 7.98-48.2 35.7-62.97 35.59-26.36-.18-113.54-48.03-130.93-46.45-5.65 6.94-.97 20.42-14.05 21.56-23.41 2.04-19.34 9.69-35.96 17.09-2.52.19-4.98.33-7.5.49l-4.05-2.45 4.53.62c17.99-7.62 17.36-18.45 19.67-29.4 1.68-7.98 23.89-4.54 29.54-14.21-3.27-4.22-100.988-47.1-116.38-53.89l-7.576 2.26c-74.766 22.71-131.409-36.11-184.733-59.53l-2.074-.89c3.959-.34 2.812-.21 6.524-1.17-3.41-1.98-4.651-2.82-6.882-5.28 49.602 17.02 97.023 72.59 165.044 66.86 7.127-.6 17.625-3.47 24.455-5.32-2.45-4.42-4.845-8.42-6.516-12.96 39.538-14.35 114.758-38.22 157.748-51.04m545.21 134.44c-13.72 15.01-121.8 164.46-118.13 172.53 1.7 3.71 18.22 7.43 24.14 8.78 55.51 12.64 147.34 22.82 205.76 26.88 16.13 1.48 34.98 4.14 50.55 1.93 11.38-5.36 62.16-171.19 57.47-185.83-20.66-3.79-73.12-8.36-97.7-10.61-30.43-2.79-95.12-12.85-122.09-13.68m-695.825-80.24c35.565 23.02 68.525 34.34 108.665 52.91 43.2 19.98 82.35 36.18 127.58 54.71 6.31 2.56 19.51 8.47 24.43 6.37 26.7-11.37 95.01-62.39 111.67-75.63-14.33-8.72-31.74-13.45-50.05-19.03-43.69-13.32-82.96-30.31-122.67-47.06-14.83-6.25-32.98-14.68-48.77-19.91-51 16.43-99.2 31.86-150.855 47.64"/><path fill="var(--pulse-empty-9)" d="M644.93 1465.79c32.855-12.2 165.051-72.33 185.736-75.97 21.905 3.39 53.93 23.76 71.304 33.42l71.735 39.27c14.219 7.75 51.865 25.84 61.645 32.26l4.05 2.45c2.52-.16 4.98-.3 7.5-.49 5 16.37 134.26 54.38 109.78 73.56-2.18 1.71-18.38 10.19-22.75 12.49 27.7 11.57 56.74 20.98 85.07 31.86l-2.69.25c6.19 2.28 4.8.84 7.16 3.95-28.5 25.15-57.85 46.46-80.03 74.01 18.89 7.46 186.01 46.77 209.67 49.42 12.96-14.02 25.45-28.18 37.46-42.47l5.68 3.83c-10.16 12.4-27.29 34.7-39.19 45.5-37.19-4.96-99.2-20.97-136.5-29.84-2.19 1.83-11.62 9.72-12.02 11.13-4.3 15.26 15.7 19.58-22.66 26.21-7.42 7.54-15.8 16.6-23.81 23.81 37.86 9.6 76.38 18.85 113.23 29.45 21.02 6.04 32.81 12.55 20.46 25.93-15.83 17.15-34.44 33.9-51.77 50.54-27.98 27.1-55.68 54.3-83.1 81.58a8577 8577 0 0 0-83.6 83.85c-16.3 16.62-42.01 46.52-63.56 59.96l-1.12-3.75-7.97.72c4.11-1.92 7.84-4.09 11.11-6.48 10.94-7.89 29.68-28.2 39-37.69l66.04-66.61 117-115.82c16.38-16.06 32.78-32.73 50.65-48.27 3.3-2.88 3.07-7.09 2.5-10.42-8.45-8.56-93.7-27.91-113.65-32.93l-171.01-42.92 10.19-2.74c46.19 10.8 92.03 22.68 137.81 33.26 7.66-6.71 26.42-21.86 23.02-29.31-2.43-5.31-4.98-7.02-2.82-11.72 7.24-4 10.76-3.99 20.54-4.73l17.39-15.01c-19.63-5.11-68.48-13.55-76.52-22.64-.87-14.57 60.29-62.04 77.67-76.13l-88.24-31.62c-33.48 14.4-66.48 29.97-99.99 44.6 35.86 15.99 31.32 21.35-2.9 38.54-77.419 38.89-150.23 81.04-230.816 117.71-15.533 7.03-32.516-.21-45.821-6.08 3.134-.8 1.794-.2 3.925-1.87l-4.839-4.82c10.879 4.35 20.056 7.62 31.452 11.54 15.268-5.18 43.185-19.09 57.399-26.07a6447 6447 0 0 0 119.618-61.55c15.276-7.97 87.392-42.31 85.712-51.86-21.59-15.06-113.103-47.23-145.544-61.17-25.555-10.98-68.14-30.32-93.835-40.01-66.126 19.76-137.332 48.85-202.111 71.02-19.462 6.66-55.81 20.31-75.466 25.19l-.857-3.2-4.379-1.21c6.214-2.76 48.715-16.08 58.645-19.44a3960 3960 0 0 0 103.067-37.06c-37.801-21.13-72.051-45.76-110.401-67.03-42.468 14.41-338.817 70.37-382.499 68.61-12.737-.51-21.079-4.37-29.414-9.52l2.008-1.53 2.087.6 3.487.96c27.322 7.7 40.249 5.22 68.599 1.1 10.506-1.52 18.435-2.54 28.341-5.48 6.921-2.46 37.395-5.68 46.143-7.33 31.949-6 242.902-41.56 251.42-52.69-4.394-4.04-27.02-12.14-35.326-16.9-24.613-14.1-53.132-30.6-71.785-47.18l-1.49-1.34c-50.789 3.83-103.483 11.32-155.346 14.27-24.344 1.39-41.633 4.1-67.305 3.67-9.841-5.23-17.529-11.47-25.693-17.59-.739-3.75-.792-3.48 1.726-6.97 7.738 4.31 18.049 12.67 28.04 18.54 49.652-1.33 105.458-6.35 154.559-10.93 28.388-2.64 60.539-8.08 88.776-9.68-6.84-5.48-12.373-10.11-18.627-15.82 4.16-2.2 2.928-1.55 8.294-3l2.902.32c10.524 1.13 13.528-.3 20.013 5.11 2.004 1.7 3.93 3.44 5.775 5.2l-.362 2.88-2.413.43-7.921-4.05-2.151 1.37c2.912 2.86 4.717 2.88 10.109 4.26-.818 4.63-4.654 3.56-5.754 8.12-7.302.97-19.339 1.25-27.171 1.59 25.851 22.28 66.81 46.32 104.512 61.82 18.453-14.25 49.841-24.3 75.965-34.12-21.919-14.27-60.882-37.57-60.063-56.21.435.95.871 1.9 1.306 2.84l3.275.74.116.91-1.949.37 1.943 1.33c2.535-4.66 2.824-6.63 11.817-7.67-3.379 2.35-7.299 4.72-6.17 7.87 4.843 13.52 41.453 36.83 56.977 46.72m39.275 112.91c30.298-10.21 84.544-30.32 113.818-38.63 32.743 9.47 78.122 33.1 110.769 45.27 34.631 14.64 72.071 28.98 107.658 43 22.92-9.83 127.55-53.27 133.68-64.21-1.43-9.23-68.19-38.9-83.35-46.38a3421 3421 0 0 1-79.834-41.28 7088 7088 0 0 1-92.179-49.96c-13.42-7.37-47.606-28.08-62.744-31.11-55.289 19.25-108.56 45.15-161.514 66.93-23.137 9.51-87.144 31.62-97.061 44.14 1.271 5.67 95.71 62.89 110.757 72.23m516.835 173.03c-19.72-1.74-19.32-1.58-23.14-11.6l-.86-.14c-.02 5.48-.29 5.89 3.36 10.8 8.81 4.02 9.95 2.88 20.64.94"/><path fill="var(--pulse-empty-9)" d="m1177.04 1739.99.86.14c3.82 10.02 3.42 9.86 23.14 11.6-10.69 1.94-11.83 3.08-20.64-.94-3.65-4.91-3.38-5.32-3.36-10.8"/><path fill="var(--pulse-empty-9)" d="M681.338 1199.98c-6.443-6.13-9.07-14.03 5.327-17.68 30.15-7.65 62.855-12.57 93.186-20.24 22.239-4.97 94.969-26.5 109.407-27.31 7.285 2.46 16.704 5.87 22.685 9.26 59.343 33.57 118.217 67.12 182.207 97.88 10.7 5.14 26.14 12.94 33.92 19.57.47 3.76-.31 8.72-5.73 11.29-23.37 11.06-51.05 23.07-76.19 32.87-27.15 10.58-72.537 35.55-101.817 41.87-13.424-1.1-35.462-15.09-46.046-20.95l2.265-5.4c12.322 6.94 29.955 16.07 43.504 21.84 20.549-7.63 49.925-21.63 71.064-30.82 32.92-14.79 69.39-27.91 99.69-44.36 11.74-6.37-29.52-23.09-38.67-27.74a2976 2976 0 0 1-114.176-59.9c-17.631-9.89-52.874-32.61-70.864-39.81-40.959 5.55-89.257 24.28-130.2 32.53-13.408 2.7-72.705 11.62-74.447 18.68 11.527 16.35 130.955 83.93 158.408 99.44l-.388 1.48c3.322 2 10.285 5.37 10.499 7.5l-5.902-.93-1.988.98c-1.246 3.48-1.41 3.65-4.002 6.89-4.42 1.83-324.224 51.34-350.516 54.35-12.943-5.9-55.313-35.41-66.722-44.44-25.994-20.57-103.892-64.67-115.629-85.18l5.588-3.34c16.875-4.31 311.801-39.49 326.997-39 13.438.43 27.441 10.93 36.286 16.04 4.622 4.31 37.422 23.26 45.462 27.87 22.752 13.05 54.349 37.25 82.408 44.96l-1.408-.58.61-1.47c-36.836-25.83-92.255-49.41-124.818-76.15m-186.917 154.89c64.302-6.59 139.713-21.36 204.114-30.52 18.617-2.65 107.492-15.87 119.374-19.46-1.207-4.33-7.236-4.7-7.498-5.79-3.549-14.78-19.7-20.22-38.262-31.02l-72.264-42.68c-5.436-3.23-21.5-12.35-24.729-15.37-2.315-5.42-15.786-13.03-24.899-14.86-23.145-1.43-295.243 31.88-328.812 39.3 24.617 22.58 79.683 56.51 109.808 77.82 15.628 11.06 47.896 33.72 63.168 42.58m338.03-62.26c-3.426-4.18-7.194-6.77-14.498-9.07 1.598 5.2-.038 3.95 5.248 7.58 2.581.43 6.777 1.21 9.25 1.49"/><path fill="var(--pulse-empty-9)" d="M650.257 1195.17c9.113 1.83 22.584 9.44 24.899 14.86-7.824-4.18-19.366-9.92-24.899-14.86"/><path fill="var(--pulse-empty-9)" d="M817.953 1283.54c7.304 2.3 11.072 4.89 14.498 9.07-2.473-.28-6.669-1.06-9.25-1.49-5.286-3.63-3.65-2.38-5.248-7.58"/><path fill="var(--pulse-empty-9)" d="M3769.23 912.938c17.23-10.519 42.77-32.503 57.16-44.687 69.3-59.877 131.87-122.21 187.33-186.621 8.62-10.246 30.72-39.627 45.27-48.099 3.81-2.216 29.69 1.533 37.01 2.497v4.878l-33.21-2.383c-24.68 22.246-40.43 46.9-62 69.667-54.38 57.398-110.5 115.412-175.17 169.242-13.89 11.558-37.16 31.554-53.12 41.714-4.96 33.526-22.54 16.174-39.72 29.193-57.03 43.222-127.15 84.081-184.3 126.531 34.48 7.22 68.75 16.27 102.79 24.31a902 902 0 0 0 19.52-12.24c4.25-1.48 5.64-1.99 10.14-3.19l1.42 2.57c-8.97 6.92-17.42 13.32-28.24 19.37-20.67-3.56-111.04-31.67-119.44-20.92 2.03 6.36 9.52 6.22 5.69 15.23-4.84 11.4-26.66 9.95-37.32 14.65-1.31-5.08-.93-5.99-6.42-9.73l-1.93-1.15c-6.65-13.32 21.69-19.34 38.67-24.59-45.99-13.75-92.88-26.85-137.34-42.17-11.7-3.91-26.4-11.6-13.39-19.3 67.44-39.88 133.78-84.922 202.14-123.847 34.06 6.579 99.46 23.592 133.99 32.174 8.95-15.986 23.66-22.278 50.47-13.099m-233.15 160.392c27.69-15.74 187.76-122.493 193.78-135.805-8.38-6.859-123.16-33.363-142.68-36.983-40.04 19.86-87.94 54.635-126.48 77.099-13.49 7.856-63.99 38.379-71.35 45.079.71 6.13 7.53 8.19 16.79 11.15 42.33 13.54 86.12 27.62 129.94 39.46m216.66-136.417c13.98-9.294 20.68-23.992-10.27-22.439-16.42 8.781-11.76 21.669 10.27 22.439m-236.37 169.407c10.24-3.43 17.7-6.85 14.19-14.24-4.42-2.5-2.37-1.96-7.8-2.98-11.57 2.05-19.96 4.34-19.26 12.23 4.16 3.36 4.37 3.77 12.87 4.99"/><path fill="var(--pulse-empty-9)" d="M0 936.418c20.372 2.24 48.503 7.771 69.463 11.136 13.308 11.945 25.64 29.062 37.478 41.93 31.265 33.986 63.897 76.366 101.475 107.726 20.56 3.65 22.531 4.63 33.052 15.8 26.342 5.35 184.886 34.17 193.28 16.31-5.408-7.72-29.371-24.51-39.55-32.72-31.056-25.16-61.06-50.74-89.987-76.72-11.351-10.03-47.808-38.599-45.9-49.409l3.229-2.902c10.908 2.442 22.929 1.02 33.772 2.141 45.154 4.669 98.79-.026 142.409 2.14l2.9-1.727c7.5 5.386 13.552 11.58 19.759 17.488 36.341 34.589 73.806 69.079 116.374 101.339 71.151-7.52 150.53-8.69 222.456-15.16 20.964-1.89 18.888-17.12 44.74-7.14 10.45 4.1 14.142 11.71 11.176 18.3-15.516 9.81-29.785-.35-38.473-8.07l-157.676 11.26c-19.692 1.4-58.622 5.1-76.015 5.17 12.999 10.45 36.402 24.07 33.492 36.19-16.952 10.88-140.979 1.41-172.152 1.45-13.707 12.89-29.288 11.04-53.411 9.34-49.498-3.49-96.544-13.71-144.853-19.85-2.795-.36-9.558 4.96-11.171 6.19-12.701 2.68-25.397-4.12-39.366-5.78-40.602-4.84-92.042-4.73-131.36-8.66-16.654-15.9-29.256-30.25-43.446-46.93-5.022-5.9-16.642-20.4-21.695-24.89v-8.7c17.238 9.33 50.478 61.06 71.771 76.15 55.653 1.88 94.711 4.8 149.424 9.93-51.398-40.6-114.812-117.75-156.242-164.899C43.414 949.5 21.43 945.551 0 941.875zm442.988 188.072c37.586 2.45 130.355 5.14 167.142 3.68-2.833-9.89-38.031-34.92-50.122-44.52-22.93-17.96-44.683-36.39-65.213-55.27-18.693-17.19-39.964-38.409-59.578-54.816-26.767.298-54.147.724-80.867.328-29.423-.437-58.892-2.229-88.353-2.047 6.156 9.321 30.499 30.755 40.941 40.045 41.902 37.3 87.438 78.21 136.05 112.6m-207.123-3.66c-.947-6.23-6.919-12.7-17.539-15.08 2.237 3.6 6.896 13.55 10.721 15.57z"/><path fill="var(--pulse-empty-9)" d="M218.326 1105.75c10.62 2.38 16.592 8.85 17.539 15.08l-6.818.49c-3.825-2.02-8.484-11.97-10.721-15.57"/><path fill="var(--pulse-empty-9)" d="M3059.99 1402.56c12.09 4.37 23.69 9.18 34.73 14.39 13.29 6.33 29.7 15.19 43.95 20.8 3.18 1.25 4.29.28 9.53-.76l.99 2.1c-3.09 3.56-2.98 1.82-2.14 5.26 3.69 1.79 3.99 2.22 8.21 3.45 6.71 2.2 13.15 4.78 15.68 9.22 1.72 3.01.57 5.7-2.1 8.37-15.27 15.3-172.31 63.85-208 74.04-26.69 7.61-119.11 29.22-134.17 40.14-.47-3.93-12.51-6.91-18.19-8.83-24.43-18.52-47.23-37.88-70.35-56.94-9.99-8.24-15.86-18.51 3.95-23.99 37.59-10.4 77.23-18.12 115.08-28.43-4.64-5.5-8.61-9.55-11.2-15.5l1.78.4 2.47-.86.62-6.67c3.34 7.43 8.33 14.13 13.26 21.25 75.95-17.08 126.49-37.25 195.9-57.44m-326.45 96.77c10.52 9.4 76.56 69.18 90.29 71.52 3.67-.89 7.07-1.69 10.8-2.49 57.4-15.62 299.09-82.27 326.37-106.85.72-8.6-85.96-48.01-102.73-52.38-34.5 10.91-69.03 22.08-103.69 32.74-62.9 19.35-129.9 33.9-195.65 49.66-8.6 2.07-17.86 4.69-25.39 7.8"/><path fill="var(--pulse-empty-9)" d="M605.99 1720.92c3.698 2.47 2.51 1.01 2.182 4.83l-.34 1.21c-5.031 18.54 2.939 30.25-42.679 24.45-48.431 18.13-101.652 33.07-153.318 47.97-68.838 19.86-281.378 72.68-296.688 115.77-4.17 11.73 3.771 23.17 15.49 32.63 72.798 58.78 288.525 108.44 404.571 135.06 23.75 5.45 71.421 18.17 94.141 20.31 2.661.25 4.864.03 7.407-.4 7.138-5.45 1.912-10.11-1.414-16.35 14.323-29.47 30.452-24.69 67.646-22.78 9.454.49 29.077-15.29 35.745-20.83-38.707-13.16-115.033-32.94-142.953-49.08l1.362-8.87 1.594 3.38c11.173 6.9 25.734 11.7 39.737 16.5 35.553 12.18 331.856 105.03 351.486 105.01 4.818 0 9.912-.6 14.681-1.01l7.97-.72 1.12 3.75c-5.26 2.66-11.26 3.96-17.644 5.69-82.188-17.52-167.279-50.07-248.649-71.41-11.604 7.57-21.512 15.01-33.761 22.75 4.939 21.46-3.014 35.66-43.35 37.95-8.938-1.07-14.596-2.3-23.238-.8l.117 1.48c6.406 2.1 7.291 2.23 14.405 3.58 41.086 9.02 94.311 18.36 136.37 26.34 131.552 25.72 265.05 48.06 400.1 66.96 60.91-51.6 135.22-135.56 181.68-192.21l3.64 2.18 2.55-.29c8.89-1.01 10.03-1.32 18.71-.71-4.28.34-15.52.49-17.59 2.87-38.07 43.83-74.99 86.89-117.74 129.4-18.24 18.13-44.39 41.7-59.54 60.25 163.07 23.78 329.48 39.34 497.31 46.48 34.92 1.47 102.98 6.98 128.18-8.36l5.86.41 2.34 2.1c-10.64 7.56-26.04 12.92-43.49 12.65-192.61-2.91-409.58-19.85-596.2-48.41-47.35 43.91-95.97 87.37-145.85 130.35h-10.17c47.75-43.91 98.26-87.09 146.23-131.49-51.15-8.13-102.55-15.32-153.83-23.68a10779 10779 0 0 1-273.595-48.77c-42.664-8.09-92.731-16.6-134.01-25.99-41.882 25.16-141.791 67.57-193.314 90.29C335.517 2247.11 230.055 2296 125.63 2341h-16.585c6.573-4.9 96.889-43.65 110.811-49.79a24634 24634 0 0 0 246.252-109.46c51.015-22.68 111.651-47.59 157.404-73.19-28.644-7.69-68.203-15.28-99.751-22.87-126.18-30.81-262.558-61.07-367.351-113.01-86.634-45.18-54.91-77.98 31.777-110.91 109.431-41.56 232.514-67.75 345.916-105.5 39.723-13.22 8.468-14.5 32.739-28.27 8.557-4.85 20.866 3.08 39.148-7.08m43.725 376.19c11.036 2.17 15.195 3.36 27.033 3.29h2.067c14.117-3.58 19.387-5.73 25.33-14.3a83 83 0 0 0 3.022-4.76c-4.546-11.86-9.719-13.99-31.424-13.38-28.608 4.88-31.523 14-26.028 29.15m-58.797-349.66c17.429-10.96 4.287-16.28-17.063-15.64l-1.025.03c-5.063 3.91-5.581 4.09-7.088 8.74 4.034 7.63 13.02 7.1 25.176 6.87"/><path fill="var(--pulse-empty-9)" d="m1430.57 1750.14.69 9c-19.76 24.42-148.41 167.43-146.56 180.84 16.9 11.37 108.22 22.76 138.06 27.74 59.99 10.01 122.3 19.32 183.51 26.77 9.38 1.15 28.61 2.76 37.49.21 4.13-2.2 6.96-8.28 8.26-11.22 24.8-56.14 43.84-113.05 66.98-169.43 6.99-17.02 15.02-34.94 17.88-52.26.47-2.81-2.02-3.34-5.19-5.01 2.3-.94 4.93-2.92 6.89-4.22 3.96 2.08 8.23 4.28 7.39 7.85-10.34 43.64-34.52 87.18-47.22 130.57 32.31 3.13 115.89 7.92 147.9 8.7 9.22-58.86 10.02-52.97 113.5-52.39 34.76.2 76.02.45 110.98-.23-.34-7.13-.09-18.21-3.61-24.64l5.42.2 5.35-3.07c-19.28-4.98-31.89-.02-31.18-16.51 10.96 14.89 26.52 19.77 46.62 5.74 2.53 4.87-4.33 7.08-10.59 10.25l.14.87c-9.05 5.37-5.98 8.6-6.66 16.47-.26 3.01.59 9.67 3.18 12.12l-3.15.06c-43.69 1.06-87.08 2.05-130.95.9-27.35-.72-47.57-.76-74.77 1.77 77.6 1.08 155.22 1.46 232.84 1.14 26.25-.02 119.37-1.85 138.97 2.25.98.88 2.35 1.79 2.47 2.64-19.53-3.99-360.28-4.52-375.73-1.42-13.65 15.68-32.34 131.79-38.27 157.38-10.09 43.52-20.31 97.5-26.74 141.92-.73 5.06 1.19 10.22 3.98 15.06.91 1.62 1.94 3.23 3.06 4.81-3.46-.49-3.74-1.5-7.08-3.63l-3.96 1.44c-14.3-20.35 40.37-229.25 43.87-267.57-37.71-.98-110.88-6.12-147.6-9.41-13.25 29.39-22.59 59.79-36.63 89.15-5.92 12.39-13.31 19.87-39.25 17.15-69.43-7.28-138.01-19.17-205.98-30 18.67 15.62 30.57 33.04-10.22 41.13-8.68-.61-9.82-.3-18.71.71l-2.55.29-3.64-2.18c-.59-.15-1.17-.31-1.75-.46-9.3-2.9-15.98-7.93-18.37-13.82-2.35-5.63-.31-11.56 5.59-16.27 12.44-9.94 23.22-6.18 33.54-10.05-28.54-10.52-138.01-12.77-121.9-38.58 11.67-18.71 34.37-43.59 50.15-61.99 35.07-40.1 69.59-80.36 103.55-120.77m-33.63 257.87c38.97-4.72 33.6-30.37-2.66-30.21-38.2 8.47-34.07 27.1 2.66 30.21"/><path fill="var(--pulse-empty-9)" d="m0 1542.66 1.239 1c13.771 11.21 25.833 24.09 38.964 35.33 31.838 27.24 90.408 73.16 132.594 94.49 30.283-.33 36.235-.89 59.493 10.75 38.527-5.09 69.21-9.09 107.475-15.46-10.42-6.78-27.123-17.55-6.532-24.93 31.77-11.39 50.358-5.1 68.461 10.81 7.904 6.95 99.507-13.75 111.929-16.12l-7.005 3.23c-4.673 1.34-14.703 3.69-17.087 5.72l1.85 1.29-.893 4.07c1.925-.2 11.708-4.77 18.277-6.17-10.202 5.36-14.955 6.77-18.166 14.09l-2.272-3.57c-1.966 2.87-2.091 5.88-2.631 8.97-3.811-6.25-1.61-8.39.215-14.71-6.213-1.03-68.571 9.81-77.845 11.72-29.996 20.6-31.049 7.3-61.837 10.71-31.152 3.44-79.003 10.91-108.167 17-5.959 1.25-9.165 26.61-52.826 8.68l-1.21-1.59 2.462-.99c.186-2.73 1.047-1.69-1.357-3.48-4.075-.91-6.094-1.45-9.547-2.98 9.104.07 33.418-2.48 41.152-4.99l-.686-2.45c-10.792-3.28-25.105-6.34-36.468-2.94-5.133 4.36-3.414 4.19-3.998 10.38l-4.62-2.48-2.205 3.02-3.979.3c3.32-3.6 2.375-8.49 2.36-12.72C93.738 1631.75 58.312 1606.12 0 1552.38zm374.998 126.86c43.817-4.88 14.281-24.8-19.344-25.5-46.83 9.46-10.888 23.86 19.344 25.5"/><path fill="var(--pulse-empty-9)" d="M3414.94 1857.98c4.59-.35 6.77-1.1 11.09-2.11-1.02 2.75-1.57 3.3 2.49 6.25 19.1 13.92 43.45 29.24 65.12 41.68 149.85 86.06 324.78 160.7 499.6 229.36 34.18 13.42 68.38 27.68 102.76 40.65v7.24c-39.53-14.75-80.06-31.54-119.32-46.93-164.98-64.66-327.98-135.36-470.98-215.47-27.95-15.66-71.46-41.86-90.76-60.67"/><path fill="var(--pulse-empty-9)" d="M3967.96 922.656c16.01 1.564 106.89-8.933 128.04-11.242v5.808c-44.03 5.044-89.4 8.198-133.47 12.788-51.76 58.965-111.66 115.48-179.14 169-3.89 3.09-22.67 17.97-25.73 19.06l-4.97-1.79c2.57-4.43 16.02-13.96 21.14-18.06 51.58-41.32 100.63-84.28 142.5-129.069 11.31-12.109 24.68-25.633 33.48-38.332-26.93.519-53.85 1.19-80.75 2.014-17.76 13.894-33.52 29.843-50.57 43.995-41.76 34.672-88.67 77.802-136.14 109.492l-1.42-2.57c-4.5 1.2-5.89 1.71-10.14 3.19 48.18-33.95 87.27-66.07 129.1-102.743 21.04-18.439 42.9-39.557 65.68-56.954 24.22-.7 63.2-1.299 88.4-2.923 1.64-.818 3.29-1.636 4.94-2.454z"/><path fill="var(--pulse-empty-9)" d="M2259.87 1867.7c3.59 7.62 4.52 14.44 5.88 22.25 4.48 25.81 8.14 51.69 12.92 77.48l21.46 110.19c4.3 21.61 9.5 43.61 12.27 65.28 1.5 11.8 6.65 31.46-11.05 39.54-65.41 5.45-410.75-4.93-437.78 3.15-11.29-3.27-34.16-2.47-47.98-2.54-8.91-2.56-11.18-5.36-15.12-10.24l3.96-1.44c3.34 2.13 3.62 3.14 7.08 3.63 14.65 4.63 35.26 4.29 52.05 4.34 138.04.44 276.12-.99 414.15-.07 6.39.04 16.21-.49 20.96-3.08 14.36-15.62-1.36-70.28-5.21-90.43l-27.11-141.26c-3.4-19.13-9.51-46.62-10.63-65.36 4.31-3.24 3.73-7.22 4.15-11.44"/><path fill="var(--pulse-empty-9)" d="M0 1250.31c53.427 2.41 91.352 3.18 145.466-.34 28.08-1.82 69.922-6.36 95.953-6.63 16.2 10.09 32.042 24.61 46.017 35.99 56.461 45.99 113.328 93.62 176.738 136.63-5.366 1.45-4.134.8-8.294 3-39.176-28.6-77.455-57.59-114.819-86.96-33.268-26.7-68.697-57.16-103.233-82.86-94.831 5.14-137.113 13.21-237.828 7.31z"/><path fill="var(--pulse-empty-9)" d="M2226.77 1482.34c.45 2.37.1 5.13 2.35 6.46 3.02-1.94 5.56-3.71 8.41-5.72 14.11-2.24 47.84-5.29 62.54-5-19.22 2.31-50.79 3.62-64.82 9.13-6.88 9.97 24.14 79.81 31.89 93.99l-4.99 3.75c-6.73-6-8.84-12.72-11.94-19.65-14.93 3.13-31.76 6.49-47.08 8.9 7.56 12.15 15.65 24.79-13.51 28.84-2.19-.05-.99-.08-4 .3l-2.51.32c-4.73-1.38-11.12-2.63-13.5-4.76 7.55-.16 11.99-.1 19.1-1.48 6.31-1.91 7.5-1.86 11.4-5.3.72-5.67-17.38-53.32-21.63-60.63-20.55.46-199.66 5.69-206.8 7.57-2.65-2.71-1.42-4.4-1.22-8.07 69.73 1.92 143.54-6.98 212.21-2.99 8.79.51 17.39 35.6 19 41.21 15.72-2.74 31.5-5.38 47.32-7.93-4.22-15.61-31.32-66.05-22.22-78.94"/><path fill="var(--pulse-empty-9)" d="M984.781 1738.56c11.943 1.8 20.209 3.71 31.689 6.28l-10.19 2.74c-6.18-1.3-13.205-2.89-19.415-4.01-36.704 18.94-70.734 40.85-104.463 61.62l-136.852 83.98a6185 6185 0 0 1-83.041 50.07c-23.187 13.8-57.484 30.07-63.773 48.98l-1.594-3.38-1.362 8.87c-8.529-9.57-1.798-18.95 9.631-26.81 21.492-14.78 46.077-28.44 69.503-42.27a5775 5775 0 0 0 86.931-52.82l131.561-80.72c23.647-14.5 64.679-40.56 91.375-52.53"/><path fill="var(--pulse-empty-9)" d="M0 1077.34c25.636 17.88 40.405 51.94 68.8 68.47 33.505 19.5 104.571 24.87 148.583 33.97 18.408-19.97 40.156-8.35 47.686 7.81 1.022 2.19.474 8.36.421 10.86 8.076 5.3 41.826 28.41 50.311 29.86l-5.588 3.34c-20.704-6.07-32.49-20.22-48.201-27.4-22.708-10.37-21.836-.64-40.487-18.23-54.287-9.29-148.115-19.88-174.517-47.66-14.725-15.5-31.496-35.17-47.008-51.13z"/><path fill="var(--pulse-empty-9)" d="M2196.63 1637.97c71.88 1.37 86.9-21.53 97 37.2-4.22 9.8 7.54 27.4 8.86 39.38-.7 2.45-1.05 4.83-1.15 7.31-4.37 2.62-4.82 2.24-11.06 3.61-22.82 3.82-192.72 7.4-213.29 4.74l-6.45-2.92c68.98.24 159.07-2.01 226.7-6.55-3.29-15.38-14.85-67.55-25.82-78.34-14.2-2.37-189.66 4.48-209.26 6.5l-4.64-3.65c24.03-6.98 97.93-4.36 129.9-7.29l4.3-1.34z"/><path fill="var(--pulse-empty-9)" d="M2489.17 1825.55c2.88-1.99 1.37-1.24 4.25-2.42 9.09 1.16 11.58 1.41 20.91 1.43l2.15-.01c8.16 4.59 9.73 7.88 5.5 14.21 10.99 4.1 69.52-9.27 90.79-8.43l3.48 1.82-.61 3.53c-10.27 2.11-.21-2.32-13.36.5-51.82 7.66-109.55 13.22-162.06 20.26-22.92 3.07-56.8 4.9-77.69 9.24-9.36 9.17 17.11 88.72 22.51 104.03l-2.35.97-2.59-.29-4.68-5.83c-5.1-16.55-10.72-32.07-14.3-48.8.59-1.03-4.9-50.75-5.85-54.17 17.37-5.37 109.42-13.29 137.59-17.12-10.76-7.39-14.35-10.08-3.69-18.92m7.59 20.57c6.41-.09 10.98-.01 17.3-.84 2.88-2.8 2.41-1.31 1.01-4.66-6.96 2.32-8.9 2.12-17.22 2.59-.31.76-1.02 2.21-1.09 2.91"/><path fill="var(--pulse-empty-9)" d="M2515.07 1840.62c1.4 3.35 1.87 1.86-1.01 4.66-6.32.83-10.89.75-17.3.84.07-.7.78-2.15 1.09-2.91 8.32-.47 10.26-.27 17.22-2.59"/><path fill="var(--pulse-empty-9)" d="M3757.66 1118.07c-13.01 10.04-22.07 30.61-41.12 33.79-48.66 8.13-49.85-36.62-7.99-43.33 17.94-2.87 26.54 5.15 39.35 9.33l4.79-1.58zm-40.03 26.41c22.7-11.24 35.91-31.35-8.51-30.31-30.37 13.49-29.96 39.21 8.51 30.31"/><path fill="var(--pulse-empty-9)" d="M0 1274.03c55.845 43.05 106.385 88.77 163.703 131.35 7.235 5.37 36.357 27.16 39.429 31.47-2.518 3.49-2.465 3.22-1.726 6.97a4255 4255 0 0 0-103.119-80.98c-32.75 4.69-65.988 10.97-98.287 16.79v-5.2c28.089-5.58 64.154-12.33 92.7-16.24L0 1282.1z"/><path fill="var(--pulse-empty-9)" d="M0 629.33c12.656 6.435 34.055 44.602 43.587 56.305 39.253 48.196 81.752 102.679 130.299 148.085l-7.19 2.941c-47.549-47.517-90.969-96.346-130.102-146.307C22.954 672.81 13.176 654.847 0 637.815z"/><path fill="var(--pulse-empty-9)" d="M40.919 1490.83c.53-5.46.3-13.18 8.815-16.6 22.245-8.93 50.565 8.8 43.78 21.65-1.577 2.99-4.25 5.75-6.658 8.43 13.84 13.7 29.196 29.24 42.423 43.21-5.856 1.08-3.001.69-10.786-.87-15.233-14.17-27.806-27.44-41.594-42.11-34.231-9.66-39.103-8.28-76.899-7.73v-5.62c13.54-.13 27.409-.35 40.919-.36m39.663 8.47c13.268-14.31-3.113-21.58-27.18-21.93-3.208 4.5-4.894 5.78-4.097 10.41 5.566 6.84 18.589 8.51 31.277 11.52"/><path fill="var(--pulse-empty-9)" d="M2303.46 1700.83c-.55-5.94-2.58-12.12 2.87-16.82l5.39-.34c-5 4.18-5.64 5.65-4.52 10.8 3.6 16.46 24.31 99.68 36.08 108.19 22.95 4.84 152.48-14.94 182.6-18.27l3.66-3.44 1.87-.06c1.06 3.64.8 1.88-2.37 6.06-5.92 2.27-12.84 3.11-17.05 4.99-10.98.08-25.35 1.66-34.88 4.85l-2.93-.15c-17.64 3.02-128.3 18.56-139.66 9.91-12.26-9.35-19.23-74.96-29.95-82.21l-8.72 2.33-5.57-1.2c6.24-1.37 6.69-.99 11.06-3.61.1-2.48.45-4.86 1.15-7.31l1.74-.3c3.29-4.16.7-8.46-.77-13.42"/><path fill="var(--pulse-empty-9)" d="M485.696 1666.16c.54-3.09.665-6.1 2.631-8.97l2.272 3.57c18.118 12.92 74.884 36.49 99.852 47.36l154.428 66.9 4.839 4.82c-2.131 1.67-.791 1.07-3.925 1.87-43.868-15.32-90.18-38.73-131.935-55.95-2.235-.92-1.665-.48-5.686-.01.328-3.82 1.516-2.36-2.182-4.83-18.097-6.16-111.522-47.17-120.294-54.76"/><path fill="var(--pulse-empty-9)" d="M3881.03 1151.42c7.98-17.7 74.95-78.46 94.62-98.82 16.02-16.58 54.54-59.158 71.11-73.216-.75 4.129-1.28 4.315-4.2 7.986l2.23 2.451c-6.2 7.992-20.54 21.599-28.38 29.909a2474 2474 0 0 1-65.8 67.9c-13.93 13.64-54.7 50.83-60.02 64.86-1.05-2.49-.66-1.8-2.79-4.3z"/><path fill="var(--pulse-empty-9)" d="M0 847.412c52.4 11.133 136.543 23.882 191.867 27.098 2.768-.509 1.235-.073 4.173-1.714 1.393-5.721-1.512-7.792-2.468-13.415l3.462-1.019c4.375.833 5.013.759 9.496.553l4.056-.204 3.075 1.587c-3.006 1.938-1.73 1.373-5.847 2.624-13.425 8.782 1.992 19.8 13.255 26.171 7.866.931 4.194 1.194 11.409-.808l5.717-4.751c-.317 1.855.067.916-1.281 2.799l3.682 1.286-.124 1.504c-.131 1.782-.229 1.09.076 2.305-19.405 8.35-33.554-2.567-43.516-10.801C124.87 875.253 68.514 865.863 0 853.71z"/><path fill="var(--pulse-empty-9)" d="M1870.93 1851.22c27.2-2.53 47.42-2.49 74.77-1.77 43.87 1.15 87.26.16 130.95-.9l3.15-.06c24.67-1.18 154.52-2.74 167.89 3.81 6.47 3.16 12.06 9.67 12.3 14.49.01.31-.08.61-.12.91-.42 4.22.16 8.2-4.15 11.44-1.1-8.25-4.51-14.48-10.51-21.89-.12-.85-1.49-1.76-2.47-2.64-19.6-4.1-112.72-2.27-138.97-2.25-77.62.32-155.24-.06-232.84-1.14"/><path fill="var(--pulse-empty-9)" d="M1498.45 1719.31c14.9 1.47 83.82 11.43 98.76 14.53 8.04 2.05 38.61 6.71 47.17 6.05 23.95 2.39 75.22 6.88 94.2 12.67-1.96 1.3-4.59 3.28-6.89 4.22-20.69-4.19-55.28-7.82-77.63-10.53-42.8-5.2-84.55-10.89-126.77-17.44-17.07-2.65-36.9-4.67-53.09-7.94 6.46-1.74 16.76-1.43 24.25-1.56"/><path fill="var(--pulse-empty-9)" d="M2616.25 1832.15c6.91 4.98 74.01 124.68 74.02 138.74 0 1.27-4.32 3.79-6.22 4.92 1.85-3.43 3.51-4.16 1.68-6.71-15.53 4.88-25.88 8.48-44.21 8.8 12.92-3.19 29.48-4.07 38.74-9.67 3.74-11.25-56.58-111.91-68.79-128.95-2-2.8-4.72-2.5-9.19-3.1 13.15-2.82 3.09 1.61 13.36-.5z"/><path fill="var(--pulse-empty-9)" d="m3881.03 1151.42 6.77-3.23c2.13 2.5 1.74 1.81 2.79 4.3 57.03 13.05 144.83 19.78 205.41 28.35v6.11c-13.55-2.47-40.21-4.84-55.33-6.79-40.33-5.21-81.65-10.07-121.6-16.23-16.9-2.61-29.6-3.96-38.04-12.51"/><path fill="var(--pulse-empty-9)" d="M1863.57 2185.59c27.03-8.08 372.37 2.3 437.78-3.15-16.52 4.75-26.99 3.7-45.43 3.52.75 8.22 8.89 38.97 7.47 44.05-3.95 3.35-3.29 4.5-3.18 8.53-7.67-9.13-10.9-41.61-12.51-53.36-123.18-1.67-256.45-.6-379.54.61-.8 7.56-2.2 12.9-4.23 20.36-.6-7.22.72-12.59-.36-20.56"/><path fill="var(--pulse-empty-9)" d="M1829.16 1783.98c32.75 13.73 168.39 16.03 212.68 14.73l-1.33 1.79c-5.42.7-9.26 1.19-14.81 1.67l2.08.3c5.74.86 8.13.94 12.72 3.13-51.07-3.1-172.01-1.34-214.75-14.95-.52-4.17-.69-2.09 3.41-6.67"/><path fill="var(--pulse-empty-9)" d="m1462.54 1590.78 1.4-1.31 3.66.76c6.22 1.26 7.81 1.87 14.23 1.54 5.56 11.46-55.28 72.97-65.37 87.44-2.93 4.19-15.84 19.77-20.21 24.42l-5.68-3.83c22.52-28.58 47.21-56.45 70.61-84.78 4.92-5.96 9.42-12.13 11.91-18.58-2.35-3.66-3.28-2.97-10.55-5.66"/><path fill="var(--pulse-empty-9)" d="m164.78 1691.36 3.979-.3 2.205-3.02 4.62 2.48c3.453 1.53 5.472 2.07 9.547 2.98 2.404 1.79 1.543.75 1.357 3.48l-2.462.99c-3.379-.87-6.977-1.78-10.828-1.6-56.07 2.59-116.883 8.65-173.198 7.95v-5.22c57.928-.85 108.29-5.1 164.78-7.74"/><path fill="var(--pulse-empty-9)" d="M2379.9 1671.66c11.42-2.76 72.39-9.84 88.56-10.15 4.79-.09 6.23 1.88 9.28 3.95l-4.9 2.39-6.57-1.71c-37.93 5.29-115.08 14.73-154.55 17.53l-5.39.34c-5.45 4.7-3.42 10.88-2.87 16.82-1.36-4.72-4.39-10.62-6.54-15.37l1.57-.15c.72-.6 6.15-5.01 6.72-5.24 10.41-4.31 49.41-6.91 61-7.47 9.01.51 6.2 1.03 13.69-.94"/><path fill="var(--pulse-empty-9)" d="M2294.26 2251.25c2.92.01 22.05 1.6 26.47 1.88 20.51 1.29 35.69 1.8 56.35 1.46 30.42-.34 60.82-1.18 91.16-2.51 15.97-.72 50.04-3 64.02-2.51 6.78 2.54 22.88 1.75 32.8 2.27-43.27 3.7-92.17 4.74-136.04 6.46-12.17.48-51.52 1.93-62.36 1.32 5.87-3.71 12.28.87 22.18-2.84-4.85.05-9.7.06-14.55.05-15-.05-71.36-.57-80.03-5.58"/><path fill="var(--pulse-empty-9)" d="m2290.28 1725.47 5.57 1.2c-45.6 6.56-170.91 6.71-219.36 6.45-.04 9.35-1.81 50.02.34 56.2l-3.91.27-4.05-1.6c-3.43-5.11-2.39-46.07-.24-52.36l8.36-5.42c20.57 2.66 190.47-.92 213.29-4.74"/><path fill="var(--pulse-empty-9)" d="M655.354 1380.85c39.466-15.61 77.885-32.06 117.528-47.48l5.087-.09c2.231 2.46 3.472 3.3 6.882 5.28-3.712.96-2.565.83-6.524 1.17-8.818.82-90.058 35.44-108.447 41.64-5.176 1.17-8.09 2.06-13.708 2.23z"/><path fill="var(--pulse-empty-9)" d="M3995.15 879.331c2.92-5.423 21.03-27.236 26.11-33.854 17.27-22.229 33.65-44.678 49.14-67.331-.59 2.984-.99 5.387-1.29 8.412l2.6.919c-4.35 9.981-21.07 31.116-28.86 41.154-14.42 18.578-29.23 38.889-44.72 57.099-.66-2.661-1.57-3.863-2.98-6.399"/><path fill="var(--pulse-empty-9)" d="M2477.74 1665.46c11.15 24.19 33.88 59.34 42.3 81.83-.51 3.85.63 5.98-3.01 7.98l-.8.09c-14.47-22.32-33.29-70.01-49.96-89.22l6.57 1.71z"/><path fill="var(--pulse-empty-9)" d="M681.338 1199.98c32.563 26.74 87.982 50.32 124.818 76.15l-.61 1.47 1.408.58c-28.059-7.71-59.656-31.91-82.408-44.96-8.04-4.61-40.84-23.56-45.462-27.87 2.162-1.88 1.648-2.76 2.254-5.37"/><path fill="var(--pulse-empty-9)" d="M2065.39 1732.99c-2.91-1.12-4.99-2.16-7.7-3.43-8.54-9.89-10.84-78.19-.17-84.31l4.64 3.65c-2.74 16.07-3.84 60.12 2.9 75.4l-6.41-1.94-1.22 1.62c2.85 3.74 4.34 5.51 7.96 9.01"/><path fill="var(--pulse-empty-9)" d="M1960.03 1591.52c7.18 3.43 2.39 7.96 9.88 10.93 5.33 2.11 22.75 3.32 28.18 1.87l1.45.49c-7.1 7.76-7.78 35.36-5.72 44.56l-4.74-.61c-9.92 11.37-98.04-8.01-104.64 4.79l-2.78 4.07-3.37.73c.4-3.58.09-4.73 3.15-7.91 14.79-6.94 77.36-.38 102.54-.01-.75-10.66 3.24-30.58 3.79-42.95-19.56-1.87-29.07-3.3-27.74-15.96"/><path fill="var(--pulse-empty-9)" d="M262.54 967.569c12.815-2.421 151.94.298 174.079.419.758.004 3.904 1.602 5.002 2.135l-2.9 1.727c-43.619-2.166-97.255 2.529-142.409-2.14-10.843-1.121-22.864.301-33.772-2.141"/><path fill="var(--pulse-empty-9)" d="M1999.3 1654.02c10.41 11.44-.58 46.92-6.11 60.38-3.38 8.24-9.96 9.61-23.33 10l4.81-2.35-.19-3.03c4.99-.46 3.08-.18 7.57-2.09 8.2-8.9 15.07-47.01 11.96-57.12-3.69-2.65-9.67-2.65-16.63-3.59 9.9-2.29 10.54.22 21.92-2.2"/><path fill="var(--pulse-empty-9)" d="M1862.25 1717.87c2.82 2.63 2.13 2.46 5.91 4.5 3.36-1.84 3.21-1.73 5.3-4.11 4.3.86 3.52.33 6.51 1.96-6.27 1.12-7.09 1.4-10.74 5.99-9.39 11.81-40.94 46.71-40.07 57.77-4.1 4.58-3.93 2.5-3.41 6.67-21.55-19.6 39.31-54.75 36.5-72.78"/><path fill="var(--pulse-empty-9)" d="m1862.25 1717.87.5-3.79c4.08.03 5.38.16 9.43.47 25.59-.47 70.33 4.23 102.3 4.47l.19 3.03-4.81 2.35c-27.54-.54-62.59-1.4-89.89-4.18-2.99-1.63-2.21-1.1-6.51-1.96-2.09 2.38-1.94 2.27-5.3 4.11-3.78-2.04-3.09-1.87-5.91-4.5"/><path fill="var(--pulse-empty-9)" d="M1219 1614.64c17.68-15.28 53.8-50.28 77.25-64.67 1.29-.8 3.52-.02 5.73.4-3.47.37-8.51.94-9.2 3.16-.78 2.48-8.85 12.55-8.96 13.91-6.92 6.5-54.99 48.49-60.35 51.4-2.36-3.11-.97-1.67-7.16-3.95z"/><path fill="var(--pulse-empty-9)" d="m1884.44 1653.55 5.3-.91c-2.46 13.2-26.19 52.64-20.72 60.51l3.16 1.4c-4.05-.31-5.35-.44-9.43-.47l-.5 3.79c-8.97-8.27 11.28-47.57 16.04-59.52l3.37-.73z"/><path fill="var(--pulse-empty-9)" d="M1815.59 2183.05c13.82.07 36.69-.73 47.98 2.54 1.08 7.97-.24 13.34.36 20.56-1.34 10.6-8.01 32.04-20.45 40.26l-2.34-2.1-5.86-.41c19.67-15.53 21.51-39.68 24.12-58.3-16.11.01-28.27.45-43.81-2.55"/><path fill="var(--pulse-empty-9)" d="M2260.21 2238.54c-.11-4.03-.77-5.18 3.18-8.53 7.89 10.78 11.89 15.42 30.87 21.24 8.67 5.01 65.03 5.53 80.03 5.58 4.85.01 9.7 0 14.55-.05-9.9 3.71-16.31-.87-22.18 2.84-41.92 1.65-83.89 2.45-106.45-21.08"/><path fill="var(--pulse-empty-9)" d="m1630.79 1688.68 5.88.31c2.98 3.06 3.51 2.22 3.03 4.73l-9.5 1.46c-5.22 5.26-.95 9.46 7.46 12.33l-2.22-.16 4.83.82c4.7-1.48 9.38-2.98 14.03-4.51-6.93 5.74-8.99 5.26-18.74 8.94-6.16 9.11-9.32 14.3-13.44 23.74 7.05 1.1 15.43 2.27 22.26 3.55-8.56.66-39.13-4-47.17-6.05 4.13.35 7.96.56 12.1.8 10.14-2.74 13.78-15.73 19.72-24.01-12.68-9.62-17.21-13.85 1.76-21.95"/><path fill="var(--pulse-empty-9)" d="M3496.62 1104.92c5.49 3.74 5.11 4.65 6.42 9.73-7.85 8.39-38.27 26.74-50.59 37.88 11.69 3.21 22.53 5.53 31.73 10.71-9.89-2.16-53.8-14.44-60.94-18.69 6.87 1.45 15.84 4.16 22.61 6.05 14.16-13.44 31.58-23.84 47.61-36.5 5.33-4.21 4.58-4.4 3.16-9.18"/><path fill="var(--pulse-empty-9)" d="M3821.46 1224.59c-1.46 6.35-4.02 6.75-12.04 11.65l-5.65 3.5 1.22 1.01c-9.77 6.17-28.45 16.44-39.88 21.97l-2.14-.87c-12.45 5.92-19.91 12.8-33.11 17.83-2.87-.29-3.05-.11-5.45-.89 24.14-15.89 69.11-37.96 97.05-54.2"/><path fill="var(--pulse-empty-9)" d="M3867.9 1793.03c10.25-6.9 53.32-41.59 59.18-44.11l2.97 1.75c11.61-3 16.46-2.68 28.98-1.35-9.34.76-10.96.63-20.51.17-23.5 16.31-43.92 31.56-66.55 47.88z"/><path fill="var(--pulse-empty-9)" d="M1336.86 1495.04c-.28-4.29-.75-5.76 1.21-9.99l3 .28 2.51 2.69c8.46 8.63 27.05 10.36 44.61 14.05-2.1 6.52-5.7 4.18-8.37 9.41-2.25 4.4 3.61 2.35.71 6.99-7.12-.2-10.53.32-16.02-1.59 2.21-2 3.01-2.6 5.7-4.39 2.3-.86 2.71-1.68 4.44-3.15-2.6-9.01-21.01-4.48-37.79-14.3"/><path fill="var(--pulse-empty-9)" d="M1430.57 1750.14c5.53-9.12 20.85-26.64 35.95-31.38 10.96-3.44 20.79-1.28 31.93.55-7.49.13-17.79-.18-24.25 1.56-18.25 7.15-31.35 27.06-42.94 38.27z"/><path fill="var(--pulse-empty-9)" d="M1884.44 1653.55c6.6-12.8 94.72 6.58 104.64-4.79l4.74.61 5.48 4.65c-11.38 2.42-12.02-.09-21.92 2.2-18.64.2-66.23-2.71-87.64-3.58z"/><path fill="var(--pulse-empty-9)" d="m2068.87 1787.99 4.05 1.6c5.83 2.35 8.19 3.32 13.32 6.12-.98 1.55-.11 1.03-2.29 1.71-18.46-3.64-22.88-2.09-36.84 5.62-.71 16.49 11.9 11.53 31.18 16.51l-5.35 3.07-5.42-.2c-18.18-2.39-18.99-7.7-27.02-16.82-4.59-2.19-6.98-2.27-12.72-3.13l-2.08-.3c5.55-.48 9.39-.97 14.81-1.67l1.33-1.79c5.66-3.74 19.25-7.99 27.03-10.72"/><path fill="var(--pulse-empty-9)" d="M1623.38 1661.59c10.14-1.53 98.81 10.22 109.38 13.14-25.55-1.67-53.61-5.6-79.17-8.47-1.7 8.18-6.84 22.01-3.26 29.07-7.22-3.64-3.96-5.26-9.05-9.04-.39-4.25 4.2-15.87 5.84-20.55z"/><path fill="var(--pulse-empty-9)" d="m2375.42 1964.56 4.68 5.83 2.59.29 2.35-.97c8.13 29.17-3.71 39.19 55.65 33.63-21.71 5.1-26.96 4.91-49.23 1.06.24 3.11 2.37 4.81 4.89 7.57-13.74-6.42-18.47-36.06-20.93-47.41"/><path fill="var(--pulse-empty-9)" d="M3148.2 1436.99c3.88-2.88 52.08-22.2 61.31-26.31l-4.72 5.36 1.51 2.23c-13.69 7.3-46.87 16.74-55.2 24.4 1.19 3.35.56 2.12 4.16 5.13-4.22-1.23-4.52-1.66-8.21-3.45-.84-3.44-.95-1.7 2.14-5.26z"/><path fill="var(--pulse-empty-9)" d="M4046.76 979.384c7.47-14.875 23.28-21.166 49.24-20.3v5.867c-7.47.181-16.29.256-23.61.589-10.48 7.4-19 16.086-27.6 24.281l-2.23-2.451c2.92-3.671 3.45-3.857 4.2-7.986"/><path fill="var(--pulse-empty-9)" d="M3995.15 879.331c1.41 2.536 2.32 3.738 2.98 6.399-8.46 10.148-23.33 26.813-30.17 36.926l-9.05-.79c6.98-10.635 26.6-31.571 36.24-42.535"/><path fill="var(--pulse-empty-9)" d="M1641.28 1686.29c5.09 3.78 1.83 5.4 9.05 9.04 5.46 2.67 5 4.14 3.97 8.33-4.65 1.53-9.33 3.03-14.03 4.51l-4.83-.82 2.22.16c-8.41-2.87-12.68-7.07-7.46-12.33l9.5-1.46c.48-2.51-.05-1.67-3.03-4.73l-5.88-.31z"/><path fill="var(--pulse-empty-9)" d="M594.503 1404.1c6.861-3.51 50.644-19.41 60.851-23.25l.818 2.75c5.618-.17 8.532-1.06 13.708-2.23-19.844 8.6-49.91 17.29-66.462 25.58l3.669-3.66-1.143-1.13z"/><path fill="var(--pulse-empty-9)" d="m4073.76 1218.02 6.56 3.42c-4.32 5.73-11.26 14.34-14.47 19.98 9.09.21 21.37.3 30.15.93v3.85c-11.57.22-23.05.71-34.48-.16l-2.19-.64 2.93-.1c1.47-4.67.79-5.3-1.15-10.07 1.2-3.21 9.83-13.61 12.65-17.21"/><path fill="var(--pulse-empty-9)" d="M844.861 1291c10.769 4.32 44.529 23.89 55.691 30.14l-2.265 5.4c-15.699-8.91-32.978-19.55-51.205-26.51l1.988-.98 5.902.93c-.214-2.13-7.177-5.5-10.499-7.5z"/><path fill="var(--pulse-empty-9)" d="m173.886 833.72 23.741 23.57c8.638-.409 13.502-1.176 21.176.665l-8.217.756-4.056.204c-4.483.206-5.121.28-9.496-.553l-3.462 1.019c.956 5.623 3.861 7.694 2.468 13.415-2.938 1.641-1.405 1.205-4.173 1.714 6.715-10.242-15.904-28.84-25.171-37.849z"/><path fill="var(--pulse-empty-9)" d="M128.609 1554.44c5.054 1.54 7.722 2.82 13.104 3.15 15.94 9.9 17.657 13.45 40.439 19.34 35.413-.66 50.132-6.04 78.636-8.02-9.906 2.94-17.835 3.96-28.341 5.48-28.35 4.12-41.277 6.6-68.599-1.1l-3.487-.96-2.087-.6-2.008 1.53c-7.245-2.26-22.417-14.66-27.657-18.82"/><path fill="var(--pulse-empty-9)" d="M4070.4 778.146c4.35-8.467 16.77-26.821 25.6-33.428v10.633c-7.7 8.719-17.49 25.651-24.29 32.126l-2.6-.919c.3-3.025.7-5.428 1.29-8.412"/><path fill="var(--pulse-empty-9)" d="M2520.04 1747.29c4.47 8.47 9.74 17.91 12.75 26.53 3.81 10.9.67 17.5-20.8 18.12 4.21-1.88 11.13-2.72 17.05-4.99 3.17-4.18 3.43-2.42 2.37-6.06l-1.87.06-3.66 3.44c-1.44-9.82-6.73-19.15-9.65-29.03l.8-.09c3.64-2 2.5-4.13 3.01-7.98"/><path fill="var(--pulse-empty-9)" d="m2474.18 1796.64 2.93.15c9.53-3.19 23.9-4.77 34.88-4.85q-12.93 2.37-26.01 4.44c-3.09 4.71 5.73 24.61 15.66 26.09 4.55.69 10.34 1.27 14.84 2.08l-2.15.01c-9.33-.02-11.82-.27-20.91-1.43-2.88 1.18-1.37.43-4.25 2.42-5.33-9.21-10.16-19.51-14.99-28.91"/><path fill="var(--pulse-empty-9)" d="m210.586 858.711 8.217-.756c13.837 8.682 27.793 21.345 21.745 33.473-.305-1.215-.207-.523-.076-2.305l.124-1.504-3.682-1.286c1.348-1.883.964-.944 1.281-2.799l-5.717 4.751c-7.215 2.002-3.543 1.739-11.409.808 7.659-.787 6.87-.528 10.58-3.716 2.54-9.267-7.813-19.607-23.835-22.455 4.117-1.251 2.841-.686 5.847-2.624z"/><path fill="var(--pulse-empty-9)" d="M518.635 1421.18c17.113-4.69 55.127-12.3 74.618-16.61-7.179 4.01-18.532 6.2-19.304 7.86l3.666.25c-10.487 2.37-47.422 11.41-55.754 12.79-.815-2.96-.081-2.06-3.226-4.29"/><path fill="var(--pulse-empty-9)" d="M2267.14 1581.2c13.78 1.39 27.2-.66 41.38-1.85l2.77 1.57c6.22-.18 5.58-.9 8.62.56l-4.56.29c-2.61 2.83-.67 1.89-6 2.89-20.82 3.02-29.01 6.01-47.2.29z"/><path fill="var(--pulse-empty-9)" d="M2808.48 1570.74c5.68 1.92 17.72 4.9 18.19 8.83 5.76 10.55 8.04 19.94 9.75 30.94-1.92 1.56-9.26 7.73-11.11 8.72l-1.44-.85c6.05-5.96 8.25-7.95 7.67-14.67l-1.94-.04c-3.04-5.63-5.93-17.76-7.01-23.76-5.12-2.9-9.48-6.01-14.11-9.17"/><path fill="var(--pulse-empty-9)" d="M4066.41 1538.34c9.78-8.58 18.46-16.39 29.59-24.47v9.16c-2.48 1.98-22.65 18.97-22.61 18.95-2.92-2.75-1.69-1.75-6.98-3.64"/><path fill="var(--pulse-empty-9)" d="M492.864 1426.59c7.805-2.07 17.509-3.79 25.771-5.41 3.145 2.23 2.411 1.33 3.226 4.29-20.398 4.58-23.264 10.2-37.489 14.13 1.1-4.56 4.936-3.49 5.754-8.12-5.392-1.38-7.197-1.4-10.109-4.26l2.151-1.37 7.921 4.05 2.413-.43z"/><path fill="var(--pulse-empty-9)" d="m3867.9 1793.03 4.07 4.34c-4.11 3.06-24.86 18.89-28.21 20.38l-2.94-1.7c-3.57 1.59-7.18 3.14-10.84 4.66 3.34-3.63 30.69-22 37.92-27.68"/><path fill="var(--pulse-empty-9)" d="M4096 1189.67v11.59c-4.65 6.09-10.54 14.44-15.68 20.18l-6.56-3.42c5.72-7.1 15.81-22.72 22.24-28.35"/><path fill="var(--pulse-empty-9)" d="m2072.92 1789.59 3.91-.27c23.87 7.13 34.97 26.76 6.45 30.58l-.14-.87c6.26-3.17 13.12-5.38 10.59-10.25-2.02-4.59-5.5-7.28-9.78-11.36 2.18-.68 1.31-.16 2.29-1.71-5.13-2.8-7.49-3.77-13.32-6.12"/><path fill="var(--pulse-empty-9)" d="M2355.27 1861.59c.95 3.42 6.44 53.14 5.85 54.17-5.48-8.98-13.02-44.57-5.85-54.17"/><path fill="var(--pulse-empty-9)" d="M2592.19 1610.03c3.93-1.55 2.83-.96 6.02-3.09-.89-2.67-3.49-9.78-.82-11.61 7.27 3.46 7.14 5.18 9.9 10.7 9.98-2.02 17.17-3.34 27.53-4.91-7.01 3.5-34.09 9.4-42.63 8.91"/><path fill="var(--pulse-empty-9)" d="m594.503 1404.1 11.441-1.94 1.143 1.13-3.669 3.66-9.295 4.25c-8.993 1.04-9.282 3.01-11.817 7.67l-1.943-1.33 1.949-.37-.116-.91-3.275-.74c-.435-.94-.871-1.89-1.306-2.84l-3.666-.25c.772-1.66 12.125-3.85 19.304-7.86z"/><path fill="var(--pulse-empty-9)" d="M2805.29 1780.22h1.35c-.33-2.75-.26-5.28.13-8.02 5.2 5.6 9.42 14.53 9.66 20.9l-4.04 3.23-4.25.28c2.45-3.93-1.53-11.37-2.85-16.39"/><path fill="var(--pulse-empty-9)" d="M2302.49 1714.55c-1.32-11.98-13.08-29.58-8.86-39.38 1.04 3.2 2.5 7.14 3.29 10.29 2.15 4.75 5.18 10.65 6.54 15.37 1.47 4.96 4.06 9.26.77 13.42z"/><path fill="var(--pulse-empty-9)" d="M2065.39 1732.99c-3.62-3.5-5.11-5.27-7.96-9.01l1.22-1.62 6.41 1.94 5.48 2.99 6.45 2.92-8.36 5.42z"/><path fill="var(--pulse-empty-9)" d="M661.61 2110.99c-7.114-1.35-7.999-1.48-14.405-3.58l-.117-1.48c8.642-1.5 14.3-.27 23.238.8z"/><path fill="var(--pulse-empty-9)" d="M506.618 1641.76c4.448 2.1 2.947.81 3.833 4.2l-1.686.71c-6.569 1.4-16.352 5.97-18.277 6.17l.893-4.07-1.85-1.29c2.384-2.03 12.414-4.38 17.087-5.72"/><path fill="var(--pulse-empty-9)" d="M118.493 1546.65c7.785 1.56 4.93 1.95 10.786.87 5.884 3.71 7.792 5.74 12.434 10.07-5.382-.33-8.05-1.61-13.104-3.15z"/><path fill="var(--pulse-empty-9)" d="M2790.02 2238.22c-4.73-2.7-6.89-4-10.96-7.01l.68-2.56 3.68-1.14c3.4 3.06 4.11 3.08 9.97 4.46-1.11 2.54-1.88 3.78-3.37 6.25"/><path fill="var(--pulse-empty-9)" d="m513.623 1638.53 3.245-.83 4.379 1.21.857 3.2-11.653 3.85c-.886-3.39.615-2.1-3.833-4.2z"/><path fill="var(--pulse-empty-9)" d="M3982.14 1627.43c5.11-4.73 8.51-7.92 14.54-12.36 2.22 3.54.2 2.41 4.9 4.17-1.77 1.07-16.41 6.94-19.44 8.19"/></svg>
